<svg width="1790" height="686" viewBox="0 0 1790 686" fill="none" xmlns="http://www.w3.org/2000/svg">
<g clip-path="url(#clip0_255_317)">
<rect width="1790" height="686" fill="white"/>
<rect y="31" width="202" height="108" rx="12" fill="#FFF6DF"/>
<path d="M82.7595 97.5V73.884H86.3595L90.8955 86.484C91.1835 87.3 91.4595 88.128 91.7235 88.968C92.0115 89.784 92.2995 90.6 92.5875 91.416H92.7315C93.0195 90.6 93.2835 89.784 93.5235 88.968C93.7875 88.128 94.0635 87.3 94.3515 86.484L98.8155 73.884H102.452V97.5H99.6435V84.504C99.6435 83.448 99.6915 82.284 99.7875 81.012C99.8835 79.716 99.9675 78.552 100.04 77.52H99.8955L98.0235 82.884L93.5595 95.124H91.5795L87.1155 82.884L85.2435 77.52H85.0995C85.1715 78.552 85.2435 79.716 85.3155 81.012C85.4115 82.284 85.4595 83.448 85.4595 84.504V97.5H82.7595ZM108.916 105.024C108.532 105.024 108.16 104.988 107.8 104.916C107.464 104.844 107.152 104.76 106.864 104.664L107.44 102.324C107.632 102.372 107.848 102.42 108.088 102.468C108.328 102.54 108.556 102.576 108.772 102.576C109.756 102.576 110.572 102.216 111.22 101.496C111.868 100.8 112.372 99.912 112.732 98.832L113.128 97.536L106.108 80.004H109.168L112.732 89.688C112.996 90.432 113.272 91.236 113.56 92.1C113.872 92.964 114.16 93.804 114.424 94.62H114.568C114.832 93.828 115.084 93 115.324 92.136C115.564 91.272 115.804 90.456 116.044 89.688L119.176 80.004H122.056L115.468 98.94C115.06 100.092 114.568 101.124 113.992 102.036C113.44 102.948 112.744 103.668 111.904 104.196C111.088 104.748 110.092 105.024 108.916 105.024Z" fill="black"/>
<rect y="203" width="202" height="108" rx="12" fill="#FFF6DF"/>
<path d="M82.7595 269.5V245.884H86.3595L90.8955 258.484C91.1835 259.3 91.4595 260.128 91.7235 260.968C92.0115 261.784 92.2995 262.6 92.5875 263.416H92.7315C93.0195 262.6 93.2835 261.784 93.5235 260.968C93.7875 260.128 94.0635 259.3 94.3515 258.484L98.8155 245.884H102.452V269.5H99.6435V256.504C99.6435 255.448 99.6915 254.284 99.7875 253.012C99.8835 251.716 99.9675 250.552 100.04 249.52H99.8955L98.0235 254.884L93.5595 267.124H91.5795L87.1155 254.884L85.2435 249.52H85.0995C85.1715 250.552 85.2435 251.716 85.3155 253.012C85.4115 254.284 85.4595 255.448 85.4595 256.504V269.5H82.7595ZM108.916 277.024C108.532 277.024 108.16 276.988 107.8 276.916C107.464 276.844 107.152 276.76 106.864 276.664L107.44 274.324C107.632 274.372 107.848 274.42 108.088 274.468C108.328 274.54 108.556 274.576 108.772 274.576C109.756 274.576 110.572 274.216 111.22 273.496C111.868 272.8 112.372 271.912 112.732 270.832L113.128 269.536L106.108 252.004H109.168L112.732 261.688C112.996 262.432 113.272 263.236 113.56 264.1C113.872 264.964 114.16 265.804 114.424 266.62H114.568C114.832 265.828 115.084 265 115.324 264.136C115.564 263.272 115.804 262.456 116.044 261.688L119.176 252.004H122.056L115.468 270.94C115.06 272.092 114.568 273.124 113.992 274.036C113.44 274.948 112.744 275.668 111.904 276.196C111.088 276.748 110.092 277.024 108.916 277.024Z" fill="black"/>
<rect x="255" y="203" width="226" height="108" rx="12" fill="#FFF6DF"/>
<path d="M328.184 269.5V252.004H330.632L330.884 254.524H330.992C331.832 253.684 332.72 252.988 333.656 252.436C334.592 251.86 335.66 251.572 336.86 251.572C338.708 251.572 340.052 252.16 340.892 253.336C341.756 254.488 342.188 256.18 342.188 258.412V269.5H339.236V258.808C339.236 257.176 338.972 255.988 338.444 255.244C337.916 254.5 337.076 254.128 335.924 254.128C335.036 254.128 334.232 254.356 333.512 254.812C332.816 255.268 332.024 255.94 331.136 256.828V269.5H328.184ZM351.904 269.932C350.44 269.932 349.216 269.5 348.232 268.636C347.272 267.748 346.792 266.524 346.792 264.964C346.792 263.044 347.644 261.58 349.348 260.572C351.076 259.54 353.8 258.82 357.52 258.412C357.52 257.668 357.412 256.96 357.196 256.288C357.004 255.616 356.644 255.076 356.116 254.668C355.612 254.236 354.88 254.02 353.92 254.02C352.912 254.02 351.964 254.212 351.076 254.596C350.188 254.98 349.396 255.412 348.7 255.892L347.548 253.84C348.364 253.312 349.36 252.808 350.536 252.328C351.736 251.824 353.032 251.572 354.424 251.572C356.56 251.572 358.108 252.232 359.068 253.552C360.028 254.848 360.508 256.588 360.508 258.772V269.5H358.06L357.808 267.412H357.7C356.884 268.084 355.984 268.672 355 269.176C354.04 269.68 353.008 269.932 351.904 269.932ZM352.768 267.556C353.608 267.556 354.4 267.352 355.144 266.944C355.888 266.536 356.68 265.96 357.52 265.216V260.356C354.616 260.716 352.576 261.256 351.4 261.976C350.248 262.696 349.672 263.62 349.672 264.748C349.672 265.732 349.972 266.452 350.572 266.908C351.172 267.34 351.904 267.556 352.768 267.556ZM366.013 269.5V252.004H368.461L368.713 254.524H368.821C369.589 253.684 370.429 252.988 371.341 252.436C372.253 251.86 373.225 251.572 374.257 251.572C375.601 251.572 376.645 251.872 377.389 252.472C378.157 253.048 378.721 253.864 379.081 254.92C379.993 253.936 380.917 253.132 381.853 252.508C382.789 251.884 383.785 251.572 384.841 251.572C386.641 251.572 387.973 252.16 388.837 253.336C389.725 254.488 390.169 256.18 390.169 258.412V269.5H387.217V258.808C387.217 257.176 386.953 255.988 386.425 255.244C385.897 254.5 385.081 254.128 383.977 254.128C382.681 254.128 381.217 255.028 379.585 256.828V269.5H376.633V258.808C376.633 257.176 376.369 255.988 375.841 255.244C375.313 254.5 374.485 254.128 373.357 254.128C372.061 254.128 370.597 255.028 368.965 256.828V269.5H366.013ZM402.952 269.932C401.392 269.932 399.976 269.572 398.704 268.852C397.432 268.108 396.424 267.052 395.68 265.684C394.936 264.316 394.564 262.684 394.564 260.788C394.564 258.868 394.936 257.224 395.68 255.856C396.448 254.488 397.432 253.432 398.632 252.688C399.832 251.944 401.092 251.572 402.412 251.572C404.644 251.572 406.36 252.316 407.56 253.804C408.784 255.292 409.396 257.284 409.396 259.78C409.396 260.092 409.384 260.404 409.36 260.716C409.36 261.004 409.336 261.256 409.288 261.472H397.48C397.6 263.32 398.176 264.796 399.208 265.9C400.264 267.004 401.632 267.556 403.312 267.556C404.152 267.556 404.92 267.436 405.616 267.196C406.336 266.932 407.02 266.596 407.668 266.188L408.712 268.132C407.968 268.612 407.116 269.032 406.156 269.392C405.22 269.752 404.152 269.932 402.952 269.932ZM397.444 259.348H406.804C406.804 257.572 406.42 256.228 405.652 255.316C404.908 254.38 403.852 253.912 402.484 253.912C401.26 253.912 400.156 254.392 399.172 255.352C398.212 256.288 397.636 257.62 397.444 259.348Z" fill="black"/>
<rect x="1535" y="31" width="226" height="108" rx="12" fill="#FFF3EB"/>
<path d="M1608.18 97.5V80.004H1610.63L1610.88 82.524H1610.99C1611.83 81.684 1612.72 80.988 1613.66 80.436C1614.59 79.86 1615.66 79.572 1616.86 79.572C1618.71 79.572 1620.05 80.16 1620.89 81.336C1621.76 82.488 1622.19 84.18 1622.19 86.412V97.5H1619.24V86.808C1619.24 85.176 1618.97 83.988 1618.44 83.244C1617.92 82.5 1617.08 82.128 1615.92 82.128C1615.04 82.128 1614.23 82.356 1613.51 82.812C1612.82 83.268 1612.02 83.94 1611.14 84.828V97.5H1608.18ZM1631.9 97.932C1630.44 97.932 1629.22 97.5 1628.23 96.636C1627.27 95.748 1626.79 94.524 1626.79 92.964C1626.79 91.044 1627.64 89.58 1629.35 88.572C1631.08 87.54 1633.8 86.82 1637.52 86.412C1637.52 85.668 1637.41 84.96 1637.2 84.288C1637 83.616 1636.64 83.076 1636.12 82.668C1635.61 82.236 1634.88 82.02 1633.92 82.02C1632.91 82.02 1631.96 82.212 1631.08 82.596C1630.19 82.98 1629.4 83.412 1628.7 83.892L1627.55 81.84C1628.36 81.312 1629.36 80.808 1630.54 80.328C1631.74 79.824 1633.03 79.572 1634.42 79.572C1636.56 79.572 1638.11 80.232 1639.07 81.552C1640.03 82.848 1640.51 84.588 1640.51 86.772V97.5H1638.06L1637.81 95.412H1637.7C1636.88 96.084 1635.98 96.672 1635 97.176C1634.04 97.68 1633.01 97.932 1631.9 97.932ZM1632.77 95.556C1633.61 95.556 1634.4 95.352 1635.14 94.944C1635.89 94.536 1636.68 93.96 1637.52 93.216V88.356C1634.62 88.716 1632.58 89.256 1631.4 89.976C1630.25 90.696 1629.67 91.62 1629.67 92.748C1629.67 93.732 1629.97 94.452 1630.57 94.908C1631.17 95.34 1631.9 95.556 1632.77 95.556ZM1646.01 97.5V80.004H1648.46L1648.71 82.524H1648.82C1649.59 81.684 1650.43 80.988 1651.34 80.436C1652.25 79.86 1653.22 79.572 1654.26 79.572C1655.6 79.572 1656.64 79.872 1657.39 80.472C1658.16 81.048 1658.72 81.864 1659.08 82.92C1659.99 81.936 1660.92 81.132 1661.85 80.508C1662.79 79.884 1663.78 79.572 1664.84 79.572C1666.64 79.572 1667.97 80.16 1668.84 81.336C1669.72 82.488 1670.17 84.18 1670.17 86.412V97.5H1667.22V86.808C1667.22 85.176 1666.95 83.988 1666.42 83.244C1665.9 82.5 1665.08 82.128 1663.98 82.128C1662.68 82.128 1661.22 83.028 1659.58 84.828V97.5H1656.63V86.808C1656.63 85.176 1656.37 83.988 1655.84 83.244C1655.31 82.5 1654.48 82.128 1653.36 82.128C1652.06 82.128 1650.6 83.028 1648.96 84.828V97.5H1646.01ZM1682.95 97.932C1681.39 97.932 1679.98 97.572 1678.7 96.852C1677.43 96.108 1676.42 95.052 1675.68 93.684C1674.94 92.316 1674.56 90.684 1674.56 88.788C1674.56 86.868 1674.94 85.224 1675.68 83.856C1676.45 82.488 1677.43 81.432 1678.63 80.688C1679.83 79.944 1681.09 79.572 1682.41 79.572C1684.64 79.572 1686.36 80.316 1687.56 81.804C1688.78 83.292 1689.4 85.284 1689.4 87.78C1689.4 88.092 1689.38 88.404 1689.36 88.716C1689.36 89.004 1689.34 89.256 1689.29 89.472H1677.48C1677.6 91.32 1678.18 92.796 1679.21 93.9C1680.26 95.004 1681.63 95.556 1683.31 95.556C1684.15 95.556 1684.92 95.436 1685.62 95.196C1686.34 94.932 1687.02 94.596 1687.67 94.188L1688.71 96.132C1687.97 96.612 1687.12 97.032 1686.16 97.392C1685.22 97.752 1684.15 97.932 1682.95 97.932ZM1677.44 87.348H1686.8C1686.8 85.572 1686.42 84.228 1685.65 83.316C1684.91 82.38 1683.85 81.912 1682.48 81.912C1681.26 81.912 1680.16 82.392 1679.17 83.352C1678.21 84.288 1677.64 85.62 1677.44 87.348Z" fill="black"/>
<rect x="255" y="375" width="226" height="108" rx="12" fill="#FFF6DF"/>
<path d="M328.184 441.5V424.004H330.632L330.884 426.524H330.992C331.832 425.684 332.72 424.988 333.656 424.436C334.592 423.86 335.66 423.572 336.86 423.572C338.708 423.572 340.052 424.16 340.892 425.336C341.756 426.488 342.188 428.18 342.188 430.412V441.5H339.236V430.808C339.236 429.176 338.972 427.988 338.444 427.244C337.916 426.5 337.076 426.128 335.924 426.128C335.036 426.128 334.232 426.356 333.512 426.812C332.816 427.268 332.024 427.94 331.136 428.828V441.5H328.184ZM351.904 441.932C350.44 441.932 349.216 441.5 348.232 440.636C347.272 439.748 346.792 438.524 346.792 436.964C346.792 435.044 347.644 433.58 349.348 432.572C351.076 431.54 353.8 430.82 357.52 430.412C357.52 429.668 357.412 428.96 357.196 428.288C357.004 427.616 356.644 427.076 356.116 426.668C355.612 426.236 354.88 426.02 353.92 426.02C352.912 426.02 351.964 426.212 351.076 426.596C350.188 426.98 349.396 427.412 348.7 427.892L347.548 425.84C348.364 425.312 349.36 424.808 350.536 424.328C351.736 423.824 353.032 423.572 354.424 423.572C356.56 423.572 358.108 424.232 359.068 425.552C360.028 426.848 360.508 428.588 360.508 430.772V441.5H358.06L357.808 439.412H357.7C356.884 440.084 355.984 440.672 355 441.176C354.04 441.68 353.008 441.932 351.904 441.932ZM352.768 439.556C353.608 439.556 354.4 439.352 355.144 438.944C355.888 438.536 356.68 437.96 357.52 437.216V432.356C354.616 432.716 352.576 433.256 351.4 433.976C350.248 434.696 349.672 435.62 349.672 436.748C349.672 437.732 349.972 438.452 350.572 438.908C351.172 439.34 351.904 439.556 352.768 439.556ZM366.013 441.5V424.004H368.461L368.713 426.524H368.821C369.589 425.684 370.429 424.988 371.341 424.436C372.253 423.86 373.225 423.572 374.257 423.572C375.601 423.572 376.645 423.872 377.389 424.472C378.157 425.048 378.721 425.864 379.081 426.92C379.993 425.936 380.917 425.132 381.853 424.508C382.789 423.884 383.785 423.572 384.841 423.572C386.641 423.572 387.973 424.16 388.837 425.336C389.725 426.488 390.169 428.18 390.169 430.412V441.5H387.217V430.808C387.217 429.176 386.953 427.988 386.425 427.244C385.897 426.5 385.081 426.128 383.977 426.128C382.681 426.128 381.217 427.028 379.585 428.828V441.5H376.633V430.808C376.633 429.176 376.369 427.988 375.841 427.244C375.313 426.5 374.485 426.128 373.357 426.128C372.061 426.128 370.597 427.028 368.965 428.828V441.5H366.013ZM402.952 441.932C401.392 441.932 399.976 441.572 398.704 440.852C397.432 440.108 396.424 439.052 395.68 437.684C394.936 436.316 394.564 434.684 394.564 432.788C394.564 430.868 394.936 429.224 395.68 427.856C396.448 426.488 397.432 425.432 398.632 424.688C399.832 423.944 401.092 423.572 402.412 423.572C404.644 423.572 406.36 424.316 407.56 425.804C408.784 427.292 409.396 429.284 409.396 431.78C409.396 432.092 409.384 432.404 409.36 432.716C409.36 433.004 409.336 433.256 409.288 433.472H397.48C397.6 435.32 398.176 436.796 399.208 437.9C400.264 439.004 401.632 439.556 403.312 439.556C404.152 439.556 404.92 439.436 405.616 439.196C406.336 438.932 407.02 438.596 407.668 438.188L408.712 440.132C407.968 440.612 407.116 441.032 406.156 441.392C405.22 441.752 404.152 441.932 402.952 441.932ZM397.444 431.348H406.804C406.804 429.572 406.42 428.228 405.652 427.316C404.908 426.38 403.852 425.912 402.484 425.912C401.26 425.912 400.156 426.392 399.172 427.352C398.212 428.288 397.636 429.62 397.444 431.348Z" fill="black"/>
<rect x="255" y="547" width="226" height="108" rx="12" fill="#FFF6DF"/>
<path d="M328.184 613.5V596.004H330.632L330.884 598.524H330.992C331.832 597.684 332.72 596.988 333.656 596.436C334.592 595.86 335.66 595.572 336.86 595.572C338.708 595.572 340.052 596.16 340.892 597.336C341.756 598.488 342.188 600.18 342.188 602.412V613.5H339.236V602.808C339.236 601.176 338.972 599.988 338.444 599.244C337.916 598.5 337.076 598.128 335.924 598.128C335.036 598.128 334.232 598.356 333.512 598.812C332.816 599.268 332.024 599.94 331.136 600.828V613.5H328.184ZM351.904 613.932C350.44 613.932 349.216 613.5 348.232 612.636C347.272 611.748 346.792 610.524 346.792 608.964C346.792 607.044 347.644 605.58 349.348 604.572C351.076 603.54 353.8 602.82 357.52 602.412C357.52 601.668 357.412 600.96 357.196 600.288C357.004 599.616 356.644 599.076 356.116 598.668C355.612 598.236 354.88 598.02 353.92 598.02C352.912 598.02 351.964 598.212 351.076 598.596C350.188 598.98 349.396 599.412 348.7 599.892L347.548 597.84C348.364 597.312 349.36 596.808 350.536 596.328C351.736 595.824 353.032 595.572 354.424 595.572C356.56 595.572 358.108 596.232 359.068 597.552C360.028 598.848 360.508 600.588 360.508 602.772V613.5H358.06L357.808 611.412H357.7C356.884 612.084 355.984 612.672 355 613.176C354.04 613.68 353.008 613.932 351.904 613.932ZM352.768 611.556C353.608 611.556 354.4 611.352 355.144 610.944C355.888 610.536 356.68 609.96 357.52 609.216V604.356C354.616 604.716 352.576 605.256 351.4 605.976C350.248 606.696 349.672 607.62 349.672 608.748C349.672 609.732 349.972 610.452 350.572 610.908C351.172 611.34 351.904 611.556 352.768 611.556ZM366.013 613.5V596.004H368.461L368.713 598.524H368.821C369.589 597.684 370.429 596.988 371.341 596.436C372.253 595.86 373.225 595.572 374.257 595.572C375.601 595.572 376.645 595.872 377.389 596.472C378.157 597.048 378.721 597.864 379.081 598.92C379.993 597.936 380.917 597.132 381.853 596.508C382.789 595.884 383.785 595.572 384.841 595.572C386.641 595.572 387.973 596.16 388.837 597.336C389.725 598.488 390.169 600.18 390.169 602.412V613.5H387.217V602.808C387.217 601.176 386.953 599.988 386.425 599.244C385.897 598.5 385.081 598.128 383.977 598.128C382.681 598.128 381.217 599.028 379.585 600.828V613.5H376.633V602.808C376.633 601.176 376.369 599.988 375.841 599.244C375.313 598.5 374.485 598.128 373.357 598.128C372.061 598.128 370.597 599.028 368.965 600.828V613.5H366.013ZM402.952 613.932C401.392 613.932 399.976 613.572 398.704 612.852C397.432 612.108 396.424 611.052 395.68 609.684C394.936 608.316 394.564 606.684 394.564 604.788C394.564 602.868 394.936 601.224 395.68 599.856C396.448 598.488 397.432 597.432 398.632 596.688C399.832 595.944 401.092 595.572 402.412 595.572C404.644 595.572 406.36 596.316 407.56 597.804C408.784 599.292 409.396 601.284 409.396 603.78C409.396 604.092 409.384 604.404 409.36 604.716C409.36 605.004 409.336 605.256 409.288 605.472H397.48C397.6 607.32 398.176 608.796 399.208 609.9C400.264 611.004 401.632 611.556 403.312 611.556C404.152 611.556 404.92 611.436 405.616 611.196C406.336 610.932 407.02 610.596 407.668 610.188L408.712 612.132C407.968 612.612 407.116 613.032 406.156 613.392C405.22 613.752 404.152 613.932 402.952 613.932ZM397.444 603.348H406.804C406.804 601.572 406.42 600.228 405.652 599.316C404.908 598.38 403.852 597.912 402.484 597.912C401.26 597.912 400.156 598.392 399.172 599.352C398.212 600.288 397.636 601.62 397.444 603.348Z" fill="black"/>
<rect y="375" width="202" height="108" rx="12" fill="#FFF6DF"/>
<path d="M82.7595 441.5V417.884H86.3595L90.8955 430.484C91.1835 431.3 91.4595 432.128 91.7235 432.968C92.0115 433.784 92.2995 434.6 92.5875 435.416H92.7315C93.0195 434.6 93.2835 433.784 93.5235 432.968C93.7875 432.128 94.0635 431.3 94.3515 430.484L98.8155 417.884H102.452V441.5H99.6435V428.504C99.6435 427.448 99.6915 426.284 99.7875 425.012C99.8835 423.716 99.9675 422.552 100.04 421.52H99.8955L98.0235 426.884L93.5595 439.124H91.5795L87.1155 426.884L85.2435 421.52H85.0995C85.1715 422.552 85.2435 423.716 85.3155 425.012C85.4115 426.284 85.4595 427.448 85.4595 428.504V441.5H82.7595ZM108.916 449.024C108.532 449.024 108.16 448.988 107.8 448.916C107.464 448.844 107.152 448.76 106.864 448.664L107.44 446.324C107.632 446.372 107.848 446.42 108.088 446.468C108.328 446.54 108.556 446.576 108.772 446.576C109.756 446.576 110.572 446.216 111.22 445.496C111.868 444.8 112.372 443.912 112.732 442.832L113.128 441.536L106.108 424.004H109.168L112.732 433.688C112.996 434.432 113.272 435.236 113.56 436.1C113.872 436.964 114.16 437.804 114.424 438.62H114.568C114.832 437.828 115.084 437 115.324 436.136C115.564 435.272 115.804 434.456 116.044 433.688L119.176 424.004H122.056L115.468 442.94C115.06 444.092 114.568 445.124 113.992 446.036C113.44 446.948 112.744 447.668 111.904 448.196C111.088 448.748 110.092 449.024 108.916 449.024Z" fill="black"/>
<rect y="547" width="202" height="108" rx="12" fill="#FFF6DF"/>
<path d="M82.7595 613.5V589.884H86.3595L90.8955 602.484C91.1835 603.3 91.4595 604.128 91.7235 604.968C92.0115 605.784 92.2995 606.6 92.5875 607.416H92.7315C93.0195 606.6 93.2835 605.784 93.5235 604.968C93.7875 604.128 94.0635 603.3 94.3515 602.484L98.8155 589.884H102.452V613.5H99.6435V600.504C99.6435 599.448 99.6915 598.284 99.7875 597.012C99.8835 595.716 99.9675 594.552 100.04 593.52H99.8955L98.0235 598.884L93.5595 611.124H91.5795L87.1155 598.884L85.2435 593.52H85.0995C85.1715 594.552 85.2435 595.716 85.3155 597.012C85.4115 598.284 85.4595 599.448 85.4595 600.504V613.5H82.7595ZM108.916 621.024C108.532 621.024 108.16 620.988 107.8 620.916C107.464 620.844 107.152 620.76 106.864 620.664L107.44 618.324C107.632 618.372 107.848 618.42 108.088 618.468C108.328 618.54 108.556 618.576 108.772 618.576C109.756 618.576 110.572 618.216 111.22 617.496C111.868 616.8 112.372 615.912 112.732 614.832L113.128 613.536L106.108 596.004H109.168L112.732 605.688C112.996 606.432 113.272 607.236 113.56 608.1C113.872 608.964 114.16 609.804 114.424 610.62H114.568C114.832 609.828 115.084 609 115.324 608.136C115.564 607.272 115.804 606.456 116.044 605.688L119.176 596.004H122.056L115.468 614.94C115.06 616.092 114.568 617.124 113.992 618.036C113.44 618.948 112.744 619.668 111.904 620.196C111.088 620.748 110.092 621.024 108.916 621.024Z" fill="black"/>
<rect x="534" y="375" width="174" height="108" rx="12" fill="#FFF6DF"/>
<path d="M611.981 441.5V424.004H614.933V441.5H611.981ZM613.493 420.404C612.917 420.404 612.437 420.236 612.053 419.9C611.693 419.54 611.513 419.06 611.513 418.46C611.513 417.884 611.693 417.416 612.053 417.056C612.437 416.696 612.917 416.516 613.493 416.516C614.069 416.516 614.537 416.696 614.897 417.056C615.281 417.416 615.473 417.884 615.473 418.46C615.473 419.06 615.281 419.54 614.897 419.9C614.537 420.236 614.069 420.404 613.493 420.404ZM625.413 441.932C624.165 441.932 622.977 441.704 621.849 441.248C620.721 440.768 619.737 440.192 618.897 439.52L620.373 437.54C621.141 438.14 621.933 438.644 622.749 439.052C623.565 439.436 624.489 439.628 625.521 439.628C626.673 439.628 627.537 439.364 628.113 438.836C628.689 438.284 628.977 437.636 628.977 436.892C628.977 436.292 628.773 435.788 628.365 435.38C627.981 434.972 627.477 434.636 626.853 434.372C626.253 434.084 625.629 433.82 624.981 433.58C624.165 433.268 623.361 432.92 622.569 432.536C621.777 432.128 621.129 431.612 620.625 430.988C620.121 430.34 619.869 429.524 619.869 428.54C619.869 427.124 620.397 425.948 621.453 425.012C622.533 424.052 624.021 423.572 625.917 423.572C626.997 423.572 628.005 423.764 628.941 424.148C629.877 424.532 630.681 425 631.353 425.552L629.913 427.424C629.313 426.968 628.689 426.596 628.041 426.308C627.393 426.02 626.685 425.876 625.917 425.876C624.813 425.876 623.997 426.128 623.469 426.632C622.965 427.136 622.713 427.724 622.713 428.396C622.713 428.948 622.893 429.404 623.253 429.764C623.613 430.1 624.081 430.4 624.657 430.664C625.233 430.904 625.845 431.156 626.493 431.42C627.333 431.732 628.161 432.092 628.977 432.5C629.793 432.884 630.465 433.412 630.993 434.084C631.545 434.732 631.821 435.608 631.821 436.712C631.821 437.648 631.569 438.512 631.065 439.304C630.585 440.096 629.865 440.732 628.905 441.212C627.969 441.692 626.805 441.932 625.413 441.932Z" fill="black"/>
<rect x="1535" y="203" width="174" height="108" rx="12" fill="#FFF3EB"/>
<path d="M1612.98 269.5V252.004H1615.93V269.5H1612.98ZM1614.49 248.404C1613.92 248.404 1613.44 248.236 1613.05 247.9C1612.69 247.54 1612.51 247.06 1612.51 246.46C1612.51 245.884 1612.69 245.416 1613.05 245.056C1613.44 244.696 1613.92 244.516 1614.49 244.516C1615.07 244.516 1615.54 244.696 1615.9 245.056C1616.28 245.416 1616.47 245.884 1616.47 246.46C1616.47 247.06 1616.28 247.54 1615.9 247.9C1615.54 248.236 1615.07 248.404 1614.49 248.404ZM1626.41 269.932C1625.16 269.932 1623.98 269.704 1622.85 269.248C1621.72 268.768 1620.74 268.192 1619.9 267.52L1621.37 265.54C1622.14 266.14 1622.93 266.644 1623.75 267.052C1624.56 267.436 1625.49 267.628 1626.52 267.628C1627.67 267.628 1628.54 267.364 1629.11 266.836C1629.69 266.284 1629.98 265.636 1629.98 264.892C1629.98 264.292 1629.77 263.788 1629.36 263.38C1628.98 262.972 1628.48 262.636 1627.85 262.372C1627.25 262.084 1626.63 261.82 1625.98 261.58C1625.16 261.268 1624.36 260.92 1623.57 260.536C1622.78 260.128 1622.13 259.612 1621.62 258.988C1621.12 258.34 1620.87 257.524 1620.87 256.54C1620.87 255.124 1621.4 253.948 1622.45 253.012C1623.53 252.052 1625.02 251.572 1626.92 251.572C1628 251.572 1629 251.764 1629.94 252.148C1630.88 252.532 1631.68 253 1632.35 253.552L1630.91 255.424C1630.31 254.968 1629.69 254.596 1629.04 254.308C1628.39 254.02 1627.68 253.876 1626.92 253.876C1625.81 253.876 1625 254.128 1624.47 254.632C1623.96 255.136 1623.71 255.724 1623.71 256.396C1623.71 256.948 1623.89 257.404 1624.25 257.764C1624.61 258.1 1625.08 258.4 1625.66 258.664C1626.23 258.904 1626.84 259.156 1627.49 259.42C1628.33 259.732 1629.16 260.092 1629.98 260.5C1630.79 260.884 1631.46 261.412 1631.99 262.084C1632.54 262.732 1632.82 263.608 1632.82 264.712C1632.82 265.648 1632.57 266.512 1632.06 267.304C1631.58 268.096 1630.86 268.732 1629.9 269.212C1628.97 269.692 1627.8 269.932 1626.41 269.932Z" fill="black"/>
<rect x="534" y="547" width="174" height="108" rx="12" fill="#FFF6DF"/>
<path d="M611.981 613.5V596.004H614.933V613.5H611.981ZM613.493 592.404C612.917 592.404 612.437 592.236 612.053 591.9C611.693 591.54 611.513 591.06 611.513 590.46C611.513 589.884 611.693 589.416 612.053 589.056C612.437 588.696 612.917 588.516 613.493 588.516C614.069 588.516 614.537 588.696 614.897 589.056C615.281 589.416 615.473 589.884 615.473 590.46C615.473 591.06 615.281 591.54 614.897 591.9C614.537 592.236 614.069 592.404 613.493 592.404ZM625.413 613.932C624.165 613.932 622.977 613.704 621.849 613.248C620.721 612.768 619.737 612.192 618.897 611.52L620.373 609.54C621.141 610.14 621.933 610.644 622.749 611.052C623.565 611.436 624.489 611.628 625.521 611.628C626.673 611.628 627.537 611.364 628.113 610.836C628.689 610.284 628.977 609.636 628.977 608.892C628.977 608.292 628.773 607.788 628.365 607.38C627.981 606.972 627.477 606.636 626.853 606.372C626.253 606.084 625.629 605.82 624.981 605.58C624.165 605.268 623.361 604.92 622.569 604.536C621.777 604.128 621.129 603.612 620.625 602.988C620.121 602.34 619.869 601.524 619.869 600.54C619.869 599.124 620.397 597.948 621.453 597.012C622.533 596.052 624.021 595.572 625.917 595.572C626.997 595.572 628.005 595.764 628.941 596.148C629.877 596.532 630.681 597 631.353 597.552L629.913 599.424C629.313 598.968 628.689 598.596 628.041 598.308C627.393 598.02 626.685 597.876 625.917 597.876C624.813 597.876 623.997 598.128 623.469 598.632C622.965 599.136 622.713 599.724 622.713 600.396C622.713 600.948 622.893 601.404 623.253 601.764C623.613 602.1 624.081 602.4 624.657 602.664C625.233 602.904 625.845 603.156 626.493 603.42C627.333 603.732 628.161 604.092 628.977 604.5C629.793 604.884 630.465 605.412 630.993 606.084C631.545 606.732 631.821 607.608 631.821 608.712C631.821 609.648 631.569 610.512 631.065 611.304C630.585 612.096 629.865 612.732 628.905 613.212C627.969 613.692 626.805 613.932 625.413 613.932Z" fill="black"/>
<rect x="761" y="547" width="260" height="108" rx="12" fill="#FFF6DF"/>
<path d="M846.792 613.932C845.136 613.932 843.6 613.62 842.184 612.996C840.768 612.348 839.544 611.496 838.512 610.44L840.312 608.352C841.152 609.24 842.136 609.96 843.264 610.512C844.416 611.04 845.604 611.304 846.828 611.304C848.388 611.304 849.6 610.956 850.464 610.26C851.328 609.54 851.76 608.604 851.76 607.452C851.76 606.636 851.58 605.988 851.22 605.508C850.884 605.028 850.416 604.62 849.816 604.284C849.24 603.948 848.58 603.612 847.836 603.276L844.452 601.8C843.708 601.488 842.964 601.08 842.22 600.576C841.5 600.072 840.888 599.424 840.384 598.632C839.904 597.84 839.664 596.868 839.664 595.716C839.664 594.516 839.976 593.448 840.6 592.512C841.248 591.552 842.136 590.808 843.264 590.28C844.392 589.728 845.664 589.452 847.08 589.452C848.496 589.452 849.804 589.728 851.004 590.28C852.204 590.808 853.224 591.504 854.064 592.368L852.444 594.312C851.724 593.616 850.92 593.076 850.032 592.692C849.168 592.284 848.184 592.08 847.08 592.08C845.76 592.08 844.692 592.392 843.876 593.016C843.084 593.64 842.688 594.48 842.688 595.536C842.688 596.28 842.88 596.904 843.264 597.408C843.672 597.888 844.176 598.284 844.776 598.596C845.376 598.908 845.988 599.196 846.612 599.46L849.96 600.9C850.872 601.284 851.688 601.752 852.408 602.304C853.152 602.832 853.74 603.492 854.172 604.284C854.604 605.052 854.82 606.024 854.82 607.2C854.82 608.448 854.496 609.588 853.848 610.62C853.2 611.628 852.276 612.432 851.076 613.032C849.876 613.632 848.448 613.932 846.792 613.932ZM859.47 621.024C859.086 621.024 858.714 620.988 858.354 620.916C858.018 620.844 857.706 620.76 857.418 620.664L857.994 618.324C858.186 618.372 858.402 618.42 858.642 618.468C858.882 618.54 859.11 618.576 859.326 618.576C860.31 618.576 861.126 618.216 861.774 617.496C862.422 616.8 862.926 615.912 863.286 614.832L863.682 613.536L856.662 596.004H859.722L863.286 605.688C863.55 606.432 863.826 607.236 864.114 608.1C864.426 608.964 864.714 609.804 864.978 610.62H865.122C865.386 609.828 865.638 609 865.878 608.136C866.118 607.272 866.358 606.456 866.598 605.688L869.73 596.004H872.61L866.022 614.94C865.614 616.092 865.122 617.124 864.546 618.036C863.994 618.948 863.298 619.668 862.458 620.196C861.642 620.748 860.646 621.024 859.47 621.024ZM879.119 613.932C878.015 613.932 877.211 613.596 876.707 612.924C876.227 612.228 875.987 611.244 875.987 609.972V587.868H878.939V610.188C878.939 610.644 879.023 610.98 879.191 611.196C879.359 611.388 879.551 611.484 879.767 611.484C879.863 611.484 879.947 611.484 880.019 611.484C880.115 611.46 880.247 611.436 880.415 611.412L880.811 613.644C880.619 613.74 880.391 613.812 880.127 613.86C879.863 613.908 879.527 613.932 879.119 613.932ZM888.943 613.5L882.643 596.004H885.703L889.015 605.94C889.279 606.804 889.543 607.668 889.807 608.532C890.095 609.396 890.371 610.248 890.635 611.088H890.779C891.043 610.248 891.307 609.396 891.571 608.532C891.859 607.668 892.123 606.804 892.363 605.94L895.675 596.004H898.591L892.399 613.5H888.943ZM905.297 613.932C903.833 613.932 902.609 613.5 901.625 612.636C900.665 611.748 900.185 610.524 900.185 608.964C900.185 607.044 901.037 605.58 902.741 604.572C904.469 603.54 907.193 602.82 910.913 602.412C910.913 601.668 910.805 600.96 910.589 600.288C910.397 599.616 910.037 599.076 909.509 598.668C909.005 598.236 908.273 598.02 907.312 598.02C906.305 598.02 905.357 598.212 904.469 598.596C903.581 598.98 902.789 599.412 902.093 599.892L900.941 597.84C901.757 597.312 902.753 596.808 903.929 596.328C905.129 595.824 906.425 595.572 907.816 595.572C909.953 595.572 911.501 596.232 912.461 597.552C913.421 598.848 913.901 600.588 913.901 602.772V613.5H911.453L911.201 611.412H911.093C910.277 612.084 909.377 612.672 908.393 613.176C907.433 613.68 906.401 613.932 905.297 613.932ZM906.161 611.556C907.001 611.556 907.793 611.352 908.537 610.944C909.281 610.536 910.073 609.96 910.913 609.216V604.356C908.009 604.716 905.969 605.256 904.793 605.976C903.641 606.696 903.064 607.62 903.064 608.748C903.064 609.732 903.365 610.452 903.965 610.908C904.565 611.34 905.297 611.556 906.161 611.556ZM919.405 613.5V596.004H922.357V613.5H919.405ZM920.917 592.404C920.341 592.404 919.861 592.236 919.477 591.9C919.117 591.54 918.937 591.06 918.937 590.46C918.937 589.884 919.117 589.416 919.477 589.056C919.861 588.696 920.341 588.516 920.917 588.516C921.493 588.516 921.961 588.696 922.321 589.056C922.705 589.416 922.897 589.884 922.897 590.46C922.897 591.06 922.705 591.54 922.321 591.9C921.961 592.236 921.493 592.404 920.917 592.404ZM928.265 613.5V596.004H930.713L930.965 598.524H931.073C931.913 597.684 932.801 596.988 933.737 596.436C934.673 595.86 935.741 595.572 936.941 595.572C938.789 595.572 940.133 596.16 940.973 597.336C941.837 598.488 942.269 600.18 942.269 602.412V613.5H939.317V602.808C939.317 601.176 939.053 599.988 938.525 599.244C937.997 598.5 937.157 598.128 936.005 598.128C935.117 598.128 934.313 598.356 933.593 598.812C932.897 599.268 932.105 599.94 931.217 600.828V613.5H928.265Z" fill="black"/>
<rect x="1535" y="375" width="260" height="108" rx="12" fill="#FFF3EB"/>
<path d="M1620.79 441.932C1619.14 441.932 1617.6 441.62 1616.18 440.996C1614.77 440.348 1613.54 439.496 1612.51 438.44L1614.31 436.352C1615.15 437.24 1616.14 437.96 1617.26 438.512C1618.42 439.04 1619.6 439.304 1620.83 439.304C1622.39 439.304 1623.6 438.956 1624.46 438.26C1625.33 437.54 1625.76 436.604 1625.76 435.452C1625.76 434.636 1625.58 433.988 1625.22 433.508C1624.88 433.028 1624.42 432.62 1623.82 432.284C1623.24 431.948 1622.58 431.612 1621.84 431.276L1618.45 429.8C1617.71 429.488 1616.96 429.08 1616.22 428.576C1615.5 428.072 1614.89 427.424 1614.38 426.632C1613.9 425.84 1613.66 424.868 1613.66 423.716C1613.66 422.516 1613.98 421.448 1614.6 420.512C1615.25 419.552 1616.14 418.808 1617.26 418.28C1618.39 417.728 1619.66 417.452 1621.08 417.452C1622.5 417.452 1623.8 417.728 1625 418.28C1626.2 418.808 1627.22 419.504 1628.06 420.368L1626.44 422.312C1625.72 421.616 1624.92 421.076 1624.03 420.692C1623.17 420.284 1622.18 420.08 1621.08 420.08C1619.76 420.08 1618.69 420.392 1617.88 421.016C1617.08 421.64 1616.69 422.48 1616.69 423.536C1616.69 424.28 1616.88 424.904 1617.26 425.408C1617.67 425.888 1618.18 426.284 1618.78 426.596C1619.38 426.908 1619.99 427.196 1620.61 427.46L1623.96 428.9C1624.87 429.284 1625.69 429.752 1626.41 430.304C1627.15 430.832 1627.74 431.492 1628.17 432.284C1628.6 433.052 1628.82 434.024 1628.82 435.2C1628.82 436.448 1628.5 437.588 1627.85 438.62C1627.2 439.628 1626.28 440.432 1625.08 441.032C1623.88 441.632 1622.45 441.932 1620.79 441.932ZM1633.47 449.024C1633.09 449.024 1632.71 448.988 1632.35 448.916C1632.02 448.844 1631.71 448.76 1631.42 448.664L1631.99 446.324C1632.19 446.372 1632.4 446.42 1632.64 446.468C1632.88 446.54 1633.11 446.576 1633.33 446.576C1634.31 446.576 1635.13 446.216 1635.77 445.496C1636.42 444.8 1636.93 443.912 1637.29 442.832L1637.68 441.536L1630.66 424.004H1633.72L1637.29 433.688C1637.55 434.432 1637.83 435.236 1638.11 436.1C1638.43 436.964 1638.71 437.804 1638.98 438.62H1639.12C1639.39 437.828 1639.64 437 1639.88 436.136C1640.12 435.272 1640.36 434.456 1640.6 433.688L1643.73 424.004H1646.61L1640.02 442.94C1639.61 444.092 1639.12 445.124 1638.55 446.036C1637.99 446.948 1637.3 447.668 1636.46 448.196C1635.64 448.748 1634.65 449.024 1633.47 449.024ZM1653.12 441.932C1652.02 441.932 1651.21 441.596 1650.71 440.924C1650.23 440.228 1649.99 439.244 1649.99 437.972V415.868H1652.94V438.188C1652.94 438.644 1653.02 438.98 1653.19 439.196C1653.36 439.388 1653.55 439.484 1653.77 439.484C1653.86 439.484 1653.95 439.484 1654.02 439.484C1654.12 439.46 1654.25 439.436 1654.42 439.412L1654.81 441.644C1654.62 441.74 1654.39 441.812 1654.13 441.86C1653.86 441.908 1653.53 441.932 1653.12 441.932ZM1662.94 441.5L1656.64 424.004H1659.7L1663.01 433.94C1663.28 434.804 1663.54 435.668 1663.81 436.532C1664.09 437.396 1664.37 438.248 1664.63 439.088H1664.78C1665.04 438.248 1665.31 437.396 1665.57 436.532C1665.86 435.668 1666.12 434.804 1666.36 433.94L1669.67 424.004H1672.59L1666.4 441.5H1662.94ZM1679.3 441.932C1677.83 441.932 1676.61 441.5 1675.62 440.636C1674.66 439.748 1674.18 438.524 1674.18 436.964C1674.18 435.044 1675.04 433.58 1676.74 432.572C1678.47 431.54 1681.19 430.82 1684.91 430.412C1684.91 429.668 1684.8 428.96 1684.59 428.288C1684.4 427.616 1684.04 427.076 1683.51 426.668C1683 426.236 1682.27 426.02 1681.31 426.02C1680.3 426.02 1679.36 426.212 1678.47 426.596C1677.58 426.98 1676.79 427.412 1676.09 427.892L1674.94 425.84C1675.76 425.312 1676.75 424.808 1677.93 424.328C1679.13 423.824 1680.42 423.572 1681.82 423.572C1683.95 423.572 1685.5 424.232 1686.46 425.552C1687.42 426.848 1687.9 428.588 1687.9 430.772V441.5H1685.45L1685.2 439.412H1685.09C1684.28 440.084 1683.38 440.672 1682.39 441.176C1681.43 441.68 1680.4 441.932 1679.3 441.932ZM1680.16 439.556C1681 439.556 1681.79 439.352 1682.54 438.944C1683.28 438.536 1684.07 437.96 1684.91 437.216V432.356C1682.01 432.716 1679.97 433.256 1678.79 433.976C1677.64 434.696 1677.06 435.62 1677.06 436.748C1677.06 437.732 1677.36 438.452 1677.96 438.908C1678.56 439.34 1679.3 439.556 1680.16 439.556ZM1693.41 441.5V424.004H1696.36V441.5H1693.41ZM1694.92 420.404C1694.34 420.404 1693.86 420.236 1693.48 419.9C1693.12 419.54 1692.94 419.06 1692.94 418.46C1692.94 417.884 1693.12 417.416 1693.48 417.056C1693.86 416.696 1694.34 416.516 1694.92 416.516C1695.49 416.516 1695.96 416.696 1696.32 417.056C1696.71 417.416 1696.9 417.884 1696.9 418.46C1696.9 419.06 1696.71 419.54 1696.32 419.9C1695.96 420.236 1695.49 420.404 1694.92 420.404ZM1702.26 441.5V424.004H1704.71L1704.96 426.524H1705.07C1705.91 425.684 1706.8 424.988 1707.74 424.436C1708.67 423.86 1709.74 423.572 1710.94 423.572C1712.79 423.572 1714.13 424.16 1714.97 425.336C1715.84 426.488 1716.27 428.18 1716.27 430.412V441.5H1713.32V430.808C1713.32 429.176 1713.05 427.988 1712.52 427.244C1712 426.5 1711.16 426.128 1710 426.128C1709.12 426.128 1708.31 426.356 1707.59 426.812C1706.9 427.268 1706.1 427.94 1705.22 428.828V441.5H1702.26Z" fill="black"/>
<rect x="1535" y="547" width="116" height="108" rx="12" fill="#FFF3EB"/>
<path d="M1593.02 613.932C1592.42 613.932 1591.9 613.728 1591.47 613.32C1591.06 612.888 1590.86 612.348 1590.86 611.7C1590.86 611.004 1591.06 610.452 1591.47 610.044C1591.9 609.612 1592.42 609.396 1593.02 609.396C1593.59 609.396 1594.09 609.612 1594.49 610.044C1594.93 610.452 1595.14 611.004 1595.14 611.7C1595.14 612.348 1594.93 612.888 1594.49 613.32C1594.09 613.728 1593.59 613.932 1593.02 613.932Z" fill="black"/>
<path d="M1417.06 602.061C1417.65 601.475 1417.65 600.525 1417.06 599.939L1407.51 590.393C1406.93 589.808 1405.98 589.808 1405.39 590.393C1404.81 590.979 1404.81 591.929 1405.39 592.515L1413.88 601L1405.39 609.485C1404.81 610.071 1404.81 611.021 1405.39 611.607C1405.98 612.192 1406.93 612.192 1407.51 611.607L1417.06 602.061ZM1274 602.5H1416V599.5H1274V602.5Z" fill="#B4B4B4"/>
<path d="M1417.06 430.061C1417.65 429.475 1417.65 428.525 1417.06 427.939L1407.51 418.393C1406.93 417.808 1405.98 417.808 1405.39 418.393C1404.81 418.979 1404.81 419.929 1405.39 420.515L1413.88 429L1405.39 437.485C1404.81 438.071 1404.81 439.021 1405.39 439.607C1405.98 440.192 1406.93 440.192 1407.51 439.607L1417.06 430.061ZM1274 430.5H1416V427.5H1274V430.5Z" fill="#B4B4B4"/>
<path d="M1417.06 258.061C1417.65 257.475 1417.65 256.525 1417.06 255.939L1407.51 246.393C1406.93 245.808 1405.98 245.808 1405.39 246.393C1404.81 246.979 1404.81 247.929 1405.39 248.515L1413.88 257L1405.39 265.485C1404.81 266.071 1404.81 267.021 1405.39 267.607C1405.98 268.192 1406.93 268.192 1407.51 267.607L1417.06 258.061ZM1274 258.5H1416V255.5H1274V258.5Z" fill="#B4B4B4"/>
<path d="M1417.06 86.0607C1417.65 85.4749 1417.65 84.5251 1417.06 83.9393L1407.51 74.3934C1406.93 73.8076 1405.98 73.8076 1405.39 74.3934C1404.81 74.9792 1404.81 75.9289 1405.39 76.5147L1413.88 85L1405.39 93.4853C1404.81 94.0711 1404.81 95.0208 1405.39 95.6066C1405.98 96.1924 1406.93 96.1924 1407.51 95.6066L1417.06 86.0607ZM1274 86.5H1416V83.5H1274V86.5Z" fill="#B4B4B4"/>
</g>
<defs>
<clipPath id="clip0_255_317">
<rect width="1790" height="686" fill="white"/>
</clipPath>
</defs>
</svg>
