<svg width="1790" height="505" viewBox="0 0 1790 505" fill="none" xmlns="http://www.w3.org/2000/svg">
<g clip-path="url(#clip0_255_356)">
<rect width="1790" height="505" fill="white"/>
<rect x="253" y="99" width="226" height="108" rx="12" fill="#FFF3EB"/>
<path d="M315.577 170.972V140.012H322.021V141.704H317.809V169.28H322.021V170.972H315.577ZM326.332 165.5V141.884H329.932L334.468 154.484C334.756 155.3 335.032 156.128 335.296 156.968C335.584 157.784 335.872 158.6 336.16 159.416H336.304C336.592 158.6 336.856 157.784 337.096 156.968C337.36 156.128 337.636 155.3 337.924 154.484L342.388 141.884H346.024V165.5H343.216V152.504C343.216 151.448 343.264 150.284 343.36 149.012C343.456 147.716 343.54 146.552 343.612 145.52H343.468L341.596 150.884L337.132 163.124H335.152L330.688 150.884L328.816 145.52H328.672C328.744 146.552 328.816 147.716 328.888 149.012C328.984 150.284 329.032 151.448 329.032 152.504V165.5H326.332ZM356.556 152.288L355.44 155.888H362.532L361.416 152.288C360.984 150.968 360.576 149.66 360.192 148.364C359.808 147.044 359.424 145.7 359.04 144.332H358.896C358.536 145.7 358.164 147.044 357.78 148.364C357.396 149.66 356.988 150.968 356.556 152.288ZM349.356 165.5L357.348 141.884H360.732L368.724 165.5H365.52L363.288 158.3H354.684L352.416 165.5H349.356ZM378.622 165.932C376.966 165.932 375.43 165.62 374.014 164.996C372.598 164.348 371.374 163.496 370.342 162.44L372.142 160.352C372.982 161.24 373.966 161.96 375.094 162.512C376.246 163.04 377.434 163.304 378.658 163.304C380.218 163.304 381.43 162.956 382.294 162.26C383.158 161.54 383.59 160.604 383.59 159.452C383.59 158.636 383.41 157.988 383.05 157.508C382.714 157.028 382.246 156.62 381.646 156.284C381.07 155.948 380.41 155.612 379.666 155.276L376.282 153.8C375.538 153.488 374.794 153.08 374.05 152.576C373.33 152.072 372.718 151.424 372.214 150.632C371.734 149.84 371.494 148.868 371.494 147.716C371.494 146.516 371.806 145.448 372.43 144.512C373.078 143.552 373.966 142.808 375.094 142.28C376.222 141.728 377.494 141.452 378.91 141.452C380.326 141.452 381.634 141.728 382.834 142.28C384.034 142.808 385.054 143.504 385.894 144.368L384.274 146.312C383.554 145.616 382.75 145.076 381.862 144.692C380.998 144.284 380.014 144.08 378.91 144.08C377.59 144.08 376.522 144.392 375.706 145.016C374.914 145.64 374.518 146.48 374.518 147.536C374.518 148.28 374.71 148.904 375.094 149.408C375.502 149.888 376.006 150.284 376.606 150.596C377.206 150.908 377.818 151.196 378.442 151.46L381.79 152.9C382.702 153.284 383.518 153.752 384.238 154.304C384.982 154.832 385.57 155.492 386.002 156.284C386.434 157.052 386.65 158.024 386.65 159.2C386.65 160.448 386.326 161.588 385.678 162.62C385.03 163.628 384.106 164.432 382.906 165.032C381.706 165.632 380.278 165.932 378.622 165.932ZM391.301 165.5V141.884H394.289V153.728H394.397L404.225 141.884H407.609L400.229 150.884L408.761 165.5H405.413L398.357 153.224L394.289 158.012V165.5H391.301ZM410.024 170.972V169.28H414.2V141.704H410.024V140.012H416.432V170.972H410.024Z" fill="black"/>
<rect x="-2" y="99" width="202" height="108" rx="12" fill="#FFF6DF"/>
<path d="M80.7595 165.5V141.884H84.3595L88.8955 154.484C89.1835 155.3 89.4595 156.128 89.7235 156.968C90.0115 157.784 90.2995 158.6 90.5875 159.416H90.7315C91.0195 158.6 91.2835 157.784 91.5235 156.968C91.7875 156.128 92.0635 155.3 92.3515 154.484L96.8155 141.884H100.452V165.5H97.6435V152.504C97.6435 151.448 97.6915 150.284 97.7875 149.012C97.8835 147.716 97.9675 146.552 98.0395 145.52H97.8955L96.0235 150.884L91.5595 163.124H89.5795L85.1155 150.884L83.2435 145.52H83.0995C83.1715 146.552 83.2435 147.716 83.3155 149.012C83.4115 150.284 83.4595 151.448 83.4595 152.504V165.5H80.7595ZM106.916 173.024C106.532 173.024 106.16 172.988 105.8 172.916C105.464 172.844 105.152 172.76 104.864 172.664L105.44 170.324C105.632 170.372 105.848 170.42 106.088 170.468C106.328 170.54 106.556 170.576 106.772 170.576C107.756 170.576 108.572 170.216 109.22 169.496C109.868 168.8 110.372 167.912 110.732 166.832L111.128 165.536L104.108 148.004H107.168L110.732 157.688C110.996 158.432 111.272 159.236 111.56 160.1C111.872 160.964 112.16 161.804 112.424 162.62H112.568C112.832 161.828 113.084 161 113.324 160.136C113.564 159.272 113.804 158.456 114.044 157.688L117.176 148.004H120.056L113.468 166.94C113.06 168.092 112.568 169.124 111.992 170.036C111.44 170.948 110.744 171.668 109.904 172.196C109.088 172.748 108.092 173.024 106.916 173.024Z" fill="black"/>
<rect x="532" y="99" width="174" height="108" rx="12" fill="#FFF6DF"/>
<path d="M609.981 165.5V148.004H612.933V165.5H609.981ZM611.493 144.404C610.917 144.404 610.437 144.236 610.053 143.9C609.693 143.54 609.513 143.06 609.513 142.46C609.513 141.884 609.693 141.416 610.053 141.056C610.437 140.696 610.917 140.516 611.493 140.516C612.069 140.516 612.537 140.696 612.897 141.056C613.281 141.416 613.473 141.884 613.473 142.46C613.473 143.06 613.281 143.54 612.897 143.9C612.537 144.236 612.069 144.404 611.493 144.404ZM623.413 165.932C622.165 165.932 620.977 165.704 619.849 165.248C618.721 164.768 617.737 164.192 616.897 163.52L618.373 161.54C619.141 162.14 619.933 162.644 620.749 163.052C621.565 163.436 622.489 163.628 623.521 163.628C624.673 163.628 625.537 163.364 626.113 162.836C626.689 162.284 626.977 161.636 626.977 160.892C626.977 160.292 626.773 159.788 626.365 159.38C625.981 158.972 625.477 158.636 624.853 158.372C624.253 158.084 623.629 157.82 622.981 157.58C622.165 157.268 621.361 156.92 620.569 156.536C619.777 156.128 619.129 155.612 618.625 154.988C618.121 154.34 617.869 153.524 617.869 152.54C617.869 151.124 618.397 149.948 619.453 149.012C620.533 148.052 622.021 147.572 623.917 147.572C624.997 147.572 626.005 147.764 626.941 148.148C627.877 148.532 628.681 149 629.353 149.552L627.913 151.424C627.313 150.968 626.689 150.596 626.041 150.308C625.393 150.02 624.685 149.876 623.917 149.876C622.813 149.876 621.997 150.128 621.469 150.632C620.965 151.136 620.713 151.724 620.713 152.396C620.713 152.948 620.893 153.404 621.253 153.764C621.613 154.1 622.081 154.4 622.657 154.664C623.233 154.904 623.845 155.156 624.493 155.42C625.333 155.732 626.161 156.092 626.977 156.5C627.793 156.884 628.465 157.412 628.993 158.084C629.545 158.732 629.821 159.608 629.821 160.712C629.821 161.648 629.569 162.512 629.065 163.304C628.585 164.096 627.865 164.732 626.905 165.212C625.969 165.692 624.805 165.932 623.413 165.932Z" fill="black"/>
<rect x="759" y="99" width="260" height="108" rx="12" fill="#FFF6DF"/>
<path d="M844.792 165.932C843.136 165.932 841.6 165.62 840.184 164.996C838.768 164.348 837.544 163.496 836.512 162.44L838.312 160.352C839.152 161.24 840.136 161.96 841.264 162.512C842.416 163.04 843.604 163.304 844.828 163.304C846.388 163.304 847.6 162.956 848.464 162.26C849.328 161.54 849.76 160.604 849.76 159.452C849.76 158.636 849.58 157.988 849.22 157.508C848.884 157.028 848.416 156.62 847.816 156.284C847.24 155.948 846.58 155.612 845.836 155.276L842.452 153.8C841.708 153.488 840.964 153.08 840.22 152.576C839.5 152.072 838.888 151.424 838.384 150.632C837.904 149.84 837.664 148.868 837.664 147.716C837.664 146.516 837.976 145.448 838.6 144.512C839.248 143.552 840.136 142.808 841.264 142.28C842.392 141.728 843.664 141.452 845.08 141.452C846.496 141.452 847.804 141.728 849.004 142.28C850.204 142.808 851.224 143.504 852.064 144.368L850.444 146.312C849.724 145.616 848.92 145.076 848.032 144.692C847.168 144.284 846.184 144.08 845.08 144.08C843.76 144.08 842.692 144.392 841.876 145.016C841.084 145.64 840.688 146.48 840.688 147.536C840.688 148.28 840.88 148.904 841.264 149.408C841.672 149.888 842.176 150.284 842.776 150.596C843.376 150.908 843.988 151.196 844.612 151.46L847.96 152.9C848.872 153.284 849.688 153.752 850.408 154.304C851.152 154.832 851.74 155.492 852.172 156.284C852.604 157.052 852.82 158.024 852.82 159.2C852.82 160.448 852.496 161.588 851.848 162.62C851.2 163.628 850.276 164.432 849.076 165.032C847.876 165.632 846.448 165.932 844.792 165.932ZM857.47 173.024C857.086 173.024 856.714 172.988 856.354 172.916C856.018 172.844 855.706 172.76 855.418 172.664L855.994 170.324C856.186 170.372 856.402 170.42 856.642 170.468C856.882 170.54 857.11 170.576 857.326 170.576C858.31 170.576 859.126 170.216 859.774 169.496C860.422 168.8 860.926 167.912 861.286 166.832L861.682 165.536L854.662 148.004H857.722L861.286 157.688C861.55 158.432 861.826 159.236 862.114 160.1C862.426 160.964 862.714 161.804 862.978 162.62H863.122C863.386 161.828 863.638 161 863.878 160.136C864.118 159.272 864.358 158.456 864.598 157.688L867.73 148.004H870.61L864.022 166.94C863.614 168.092 863.122 169.124 862.546 170.036C861.994 170.948 861.298 171.668 860.458 172.196C859.642 172.748 858.646 173.024 857.47 173.024ZM877.119 165.932C876.015 165.932 875.211 165.596 874.707 164.924C874.227 164.228 873.987 163.244 873.987 161.972V139.868H876.939V162.188C876.939 162.644 877.023 162.98 877.191 163.196C877.359 163.388 877.551 163.484 877.767 163.484C877.863 163.484 877.947 163.484 878.019 163.484C878.115 163.46 878.247 163.436 878.415 163.412L878.811 165.644C878.619 165.74 878.391 165.812 878.127 165.86C877.863 165.908 877.527 165.932 877.119 165.932ZM886.943 165.5L880.643 148.004H883.703L887.015 157.94C887.279 158.804 887.543 159.668 887.807 160.532C888.095 161.396 888.371 162.248 888.635 163.088H888.779C889.043 162.248 889.307 161.396 889.571 160.532C889.859 159.668 890.123 158.804 890.363 157.94L893.675 148.004H896.591L890.399 165.5H886.943ZM903.297 165.932C901.833 165.932 900.609 165.5 899.625 164.636C898.665 163.748 898.185 162.524 898.185 160.964C898.185 159.044 899.037 157.58 900.741 156.572C902.469 155.54 905.193 154.82 908.913 154.412C908.913 153.668 908.805 152.96 908.589 152.288C908.397 151.616 908.037 151.076 907.509 150.668C907.005 150.236 906.273 150.02 905.312 150.02C904.305 150.02 903.357 150.212 902.469 150.596C901.581 150.98 900.789 151.412 900.093 151.892L898.941 149.84C899.757 149.312 900.753 148.808 901.929 148.328C903.129 147.824 904.425 147.572 905.816 147.572C907.953 147.572 909.501 148.232 910.461 149.552C911.421 150.848 911.901 152.588 911.901 154.772V165.5H909.453L909.201 163.412H909.093C908.277 164.084 907.377 164.672 906.393 165.176C905.433 165.68 904.401 165.932 903.297 165.932ZM904.161 163.556C905.001 163.556 905.793 163.352 906.537 162.944C907.281 162.536 908.073 161.96 908.913 161.216V156.356C906.009 156.716 903.969 157.256 902.793 157.976C901.641 158.696 901.064 159.62 901.064 160.748C901.064 161.732 901.365 162.452 901.965 162.908C902.565 163.34 903.297 163.556 904.161 163.556ZM917.405 165.5V148.004H920.357V165.5H917.405ZM918.917 144.404C918.341 144.404 917.861 144.236 917.477 143.9C917.117 143.54 916.937 143.06 916.937 142.46C916.937 141.884 917.117 141.416 917.477 141.056C917.861 140.696 918.341 140.516 918.917 140.516C919.493 140.516 919.961 140.696 920.321 141.056C920.705 141.416 920.897 141.884 920.897 142.46C920.897 143.06 920.705 143.54 920.321 143.9C919.961 144.236 919.493 144.404 918.917 144.404ZM926.265 165.5V148.004H928.713L928.965 150.524H929.073C929.913 149.684 930.801 148.988 931.737 148.436C932.673 147.86 933.741 147.572 934.941 147.572C936.789 147.572 938.133 148.16 938.973 149.336C939.837 150.488 940.269 152.18 940.269 154.412V165.5H937.317V154.808C937.317 153.176 937.053 151.988 936.525 151.244C935.997 150.5 935.157 150.128 934.005 150.128C933.117 150.128 932.313 150.356 931.593 150.812C930.897 151.268 930.105 151.94 929.217 152.828V165.5H926.265Z" fill="black"/>
<rect x="1072" y="99" width="116" height="108" rx="12" fill="#FFF6DF"/>
<path d="M1130.02 165.932C1129.42 165.932 1128.9 165.728 1128.47 165.32C1128.06 164.888 1127.86 164.348 1127.86 163.7C1127.86 163.004 1128.06 162.452 1128.47 162.044C1128.9 161.612 1129.42 161.396 1130.02 161.396C1130.59 161.396 1131.09 161.612 1131.49 162.044C1131.93 162.452 1132.14 163.004 1132.14 163.7C1132.14 164.348 1131.93 164.888 1131.49 165.32C1131.09 165.728 1130.59 165.932 1130.02 165.932Z" fill="black"/>
<rect x="253" y="329" width="226" height="108" rx="12" fill="#FFF6DF"/>
<path d="M326.184 395.5V378.004H328.632L328.884 380.524H328.992C329.832 379.684 330.72 378.988 331.656 378.436C332.592 377.86 333.66 377.572 334.86 377.572C336.708 377.572 338.052 378.16 338.892 379.336C339.756 380.488 340.188 382.18 340.188 384.412V395.5H337.236V384.808C337.236 383.176 336.972 381.988 336.444 381.244C335.916 380.5 335.076 380.128 333.924 380.128C333.036 380.128 332.232 380.356 331.512 380.812C330.816 381.268 330.024 381.94 329.136 382.828V395.5H326.184ZM349.904 395.932C348.44 395.932 347.216 395.5 346.232 394.636C345.272 393.748 344.792 392.524 344.792 390.964C344.792 389.044 345.644 387.58 347.348 386.572C349.076 385.54 351.8 384.82 355.52 384.412C355.52 383.668 355.412 382.96 355.196 382.288C355.004 381.616 354.644 381.076 354.116 380.668C353.612 380.236 352.88 380.02 351.92 380.02C350.912 380.02 349.964 380.212 349.076 380.596C348.188 380.98 347.396 381.412 346.7 381.892L345.548 379.84C346.364 379.312 347.36 378.808 348.536 378.328C349.736 377.824 351.032 377.572 352.424 377.572C354.56 377.572 356.108 378.232 357.068 379.552C358.028 380.848 358.508 382.588 358.508 384.772V395.5H356.06L355.808 393.412H355.7C354.884 394.084 353.984 394.672 353 395.176C352.04 395.68 351.008 395.932 349.904 395.932ZM350.768 393.556C351.608 393.556 352.4 393.352 353.144 392.944C353.888 392.536 354.68 391.96 355.52 391.216V386.356C352.616 386.716 350.576 387.256 349.4 387.976C348.248 388.696 347.672 389.62 347.672 390.748C347.672 391.732 347.972 392.452 348.572 392.908C349.172 393.34 349.904 393.556 350.768 393.556ZM364.013 395.5V378.004H366.461L366.713 380.524H366.821C367.589 379.684 368.429 378.988 369.341 378.436C370.253 377.86 371.225 377.572 372.257 377.572C373.601 377.572 374.645 377.872 375.389 378.472C376.157 379.048 376.721 379.864 377.081 380.92C377.993 379.936 378.917 379.132 379.853 378.508C380.789 377.884 381.785 377.572 382.841 377.572C384.641 377.572 385.973 378.16 386.837 379.336C387.725 380.488 388.169 382.18 388.169 384.412V395.5H385.217V384.808C385.217 383.176 384.953 381.988 384.425 381.244C383.897 380.5 383.081 380.128 381.977 380.128C380.681 380.128 379.217 381.028 377.585 382.828V395.5H374.633V384.808C374.633 383.176 374.369 381.988 373.841 381.244C373.313 380.5 372.485 380.128 371.357 380.128C370.061 380.128 368.597 381.028 366.965 382.828V395.5H364.013ZM400.952 395.932C399.392 395.932 397.976 395.572 396.704 394.852C395.432 394.108 394.424 393.052 393.68 391.684C392.936 390.316 392.564 388.684 392.564 386.788C392.564 384.868 392.936 383.224 393.68 381.856C394.448 380.488 395.432 379.432 396.632 378.688C397.832 377.944 399.092 377.572 400.412 377.572C402.644 377.572 404.36 378.316 405.56 379.804C406.784 381.292 407.396 383.284 407.396 385.78C407.396 386.092 407.384 386.404 407.36 386.716C407.36 387.004 407.336 387.256 407.288 387.472H395.48C395.6 389.32 396.176 390.796 397.208 391.9C398.264 393.004 399.632 393.556 401.312 393.556C402.152 393.556 402.92 393.436 403.616 393.196C404.336 392.932 405.02 392.596 405.668 392.188L406.712 394.132C405.968 394.612 405.116 395.032 404.156 395.392C403.22 395.752 402.152 395.932 400.952 395.932ZM395.444 385.348H404.804C404.804 383.572 404.42 382.228 403.652 381.316C402.908 380.38 401.852 379.912 400.484 379.912C399.26 379.912 398.156 380.392 397.172 381.352C396.212 382.288 395.636 383.62 395.444 385.348Z" fill="black"/>
<path d="M364.939 302.061C365.525 302.646 366.475 302.646 367.061 302.061L376.607 292.515C377.192 291.929 377.192 290.979 376.607 290.393C376.021 289.808 375.071 289.808 374.485 290.393L366 298.879L357.515 290.393C356.929 289.808 355.979 289.808 355.393 290.393C354.808 290.979 354.808 291.929 355.393 292.515L364.939 302.061ZM364.5 235L364.5 301L367.5 301L367.5 235L364.5 235Z" fill="#B4B4B4"/>
</g>
<defs>
<clipPath id="clip0_255_356">
<rect width="1790" height="505" fill="white"/>
</clipPath>
</defs>
</svg>
