<svg width="1816" height="501" viewBox="0 0 1816 501" fill="none" xmlns="http://www.w3.org/2000/svg">
<rect width="1816" height="501" fill="white"/>
<rect y="3" width="380" height="495" rx="40" fill="#F6F3FF"/>
<path d="M95.9242 264.5V238.26H103.724C105.511 238.26 107.071 238.473 108.404 238.9C109.764 239.327 110.818 240.007 111.564 240.94C112.338 241.873 112.724 243.113 112.724 244.66C112.724 245.967 112.391 247.153 111.724 248.22C111.084 249.26 110.138 249.98 108.884 250.38V250.54C110.458 250.833 111.738 251.5 112.724 252.54C113.738 253.58 114.244 255.007 114.244 256.82C114.244 258.527 113.818 259.953 112.964 261.1C112.138 262.247 110.978 263.1 109.484 263.66C107.991 264.22 106.258 264.5 104.284 264.5H95.9242ZM99.2442 249.42H103.124C105.364 249.42 106.978 249.033 107.964 248.26C108.951 247.487 109.444 246.433 109.444 245.1C109.444 243.58 108.924 242.5 107.884 241.86C106.871 241.22 105.338 240.9 103.284 240.9H99.2442V249.42ZM99.2442 261.86H103.804C106.071 261.86 107.831 261.447 109.084 260.62C110.338 259.767 110.964 258.46 110.964 256.7C110.964 255.073 110.338 253.887 109.084 253.14C107.858 252.367 106.098 251.98 103.804 251.98H99.2442V261.86ZM123.6 264.98C121.973 264.98 120.613 264.5 119.52 263.54C118.453 262.553 117.92 261.193 117.92 259.46C117.92 257.327 118.867 255.7 120.76 254.58C122.68 253.433 125.707 252.633 129.84 252.18C129.84 251.353 129.72 250.567 129.48 249.82C129.267 249.073 128.867 248.473 128.28 248.02C127.72 247.54 126.907 247.3 125.84 247.3C124.72 247.3 123.667 247.513 122.68 247.94C121.693 248.367 120.813 248.847 120.04 249.38L118.76 247.1C119.667 246.513 120.773 245.953 122.08 245.42C123.413 244.86 124.853 244.58 126.4 244.58C128.773 244.58 130.493 245.313 131.56 246.78C132.627 248.22 133.16 250.153 133.16 252.58V264.5H130.44L130.16 262.18H130.04C129.133 262.927 128.133 263.58 127.04 264.14C125.973 264.7 124.827 264.98 123.6 264.98ZM124.56 262.34C125.493 262.34 126.373 262.113 127.2 261.66C128.027 261.207 128.907 260.567 129.84 259.74V254.34C126.613 254.74 124.347 255.34 123.04 256.14C121.76 256.94 121.12 257.967 121.12 259.22C121.12 260.313 121.453 261.113 122.12 261.62C122.787 262.1 123.6 262.34 124.56 262.34ZM144.356 264.98C142.969 264.98 141.649 264.727 140.396 264.22C139.143 263.687 138.049 263.047 137.116 262.3L138.756 260.1C139.609 260.767 140.489 261.327 141.396 261.78C142.303 262.207 143.329 262.42 144.476 262.42C145.756 262.42 146.716 262.127 147.356 261.54C147.996 260.927 148.316 260.207 148.316 259.38C148.316 258.713 148.089 258.153 147.636 257.7C147.209 257.247 146.649 256.873 145.956 256.58C145.289 256.26 144.596 255.967 143.876 255.7C142.969 255.353 142.076 254.967 141.196 254.54C140.316 254.087 139.596 253.513 139.036 252.82C138.476 252.1 138.196 251.193 138.196 250.1C138.196 248.527 138.783 247.22 139.956 246.18C141.156 245.113 142.809 244.58 144.916 244.58C146.116 244.58 147.236 244.793 148.276 245.22C149.316 245.647 150.209 246.167 150.956 246.78L149.356 248.86C148.689 248.353 147.996 247.94 147.276 247.62C146.556 247.3 145.769 247.14 144.916 247.14C143.689 247.14 142.783 247.42 142.196 247.98C141.636 248.54 141.356 249.193 141.356 249.94C141.356 250.553 141.556 251.06 141.956 251.46C142.356 251.833 142.876 252.167 143.516 252.46C144.156 252.727 144.836 253.007 145.556 253.3C146.489 253.647 147.409 254.047 148.316 254.5C149.223 254.927 149.969 255.513 150.556 256.26C151.169 256.98 151.476 257.953 151.476 259.18C151.476 260.22 151.196 261.18 150.636 262.06C150.103 262.94 149.303 263.647 148.236 264.18C147.196 264.713 145.903 264.98 144.356 264.98ZM163.914 264.98C162.181 264.98 160.607 264.58 159.194 263.78C157.781 262.953 156.661 261.78 155.834 260.26C155.007 258.74 154.594 256.927 154.594 254.82C154.594 252.687 155.007 250.86 155.834 249.34C156.687 247.82 157.781 246.647 159.114 245.82C160.447 244.993 161.847 244.58 163.314 244.58C165.794 244.58 167.701 245.407 169.034 247.06C170.394 248.713 171.074 250.927 171.074 253.7C171.074 254.047 171.061 254.393 171.034 254.74C171.034 255.06 171.007 255.34 170.954 255.58H157.834C157.967 257.633 158.607 259.273 159.754 260.5C160.927 261.727 162.447 262.34 164.314 262.34C165.247 262.34 166.101 262.207 166.874 261.94C167.674 261.647 168.434 261.273 169.154 260.82L170.314 262.98C169.487 263.513 168.541 263.98 167.474 264.38C166.434 264.78 165.247 264.98 163.914 264.98ZM157.794 253.22H168.194C168.194 251.247 167.767 249.753 166.914 248.74C166.087 247.7 164.914 247.18 163.394 247.18C162.034 247.18 160.807 247.713 159.714 248.78C158.647 249.82 158.007 251.3 157.794 253.22ZM183.885 264.5V245.06H186.605L186.885 247.86H187.005C187.859 246.927 188.792 246.153 189.805 245.54C190.819 244.9 191.899 244.58 193.045 244.58C194.539 244.58 195.699 244.913 196.525 245.58C197.379 246.22 198.005 247.127 198.405 248.3C199.419 247.207 200.445 246.313 201.485 245.62C202.525 244.927 203.632 244.58 204.805 244.58C206.805 244.58 208.285 245.233 209.245 246.54C210.232 247.82 210.725 249.7 210.725 252.18V264.5H207.445V252.62C207.445 250.807 207.152 249.487 206.565 248.66C205.979 247.833 205.072 247.42 203.845 247.42C202.405 247.42 200.779 248.42 198.965 250.42V264.5H195.685V252.62C195.685 250.807 195.392 249.487 194.805 248.66C194.219 247.833 193.299 247.42 192.045 247.42C190.605 247.42 188.979 248.42 187.165 250.42V264.5H183.885ZM224.61 264.98C223.036 264.98 221.556 264.58 220.17 263.78C218.81 262.98 217.703 261.82 216.85 260.3C216.023 258.78 215.61 256.953 215.61 254.82C215.61 252.633 216.023 250.78 216.85 249.26C217.703 247.74 218.81 246.58 220.17 245.78C221.556 244.98 223.036 244.58 224.61 244.58C226.21 244.58 227.69 244.98 229.05 245.78C230.41 246.58 231.503 247.74 232.33 249.26C233.183 250.78 233.61 252.633 233.61 254.82C233.61 256.953 233.183 258.78 232.33 260.3C231.503 261.82 230.41 262.98 229.05 263.78C227.69 264.58 226.21 264.98 224.61 264.98ZM224.61 262.26C226.29 262.26 227.636 261.58 228.65 260.22C229.69 258.833 230.21 257.033 230.21 254.82C230.21 252.58 229.69 250.767 228.65 249.38C227.636 247.993 226.29 247.3 224.61 247.3C222.956 247.3 221.61 247.993 220.57 249.38C219.53 250.767 219.01 252.58 219.01 254.82C219.01 257.033 219.53 258.833 220.57 260.22C221.61 261.58 222.956 262.26 224.61 262.26ZM245.369 264.98C242.943 264.98 240.996 264.1 239.529 262.34C238.063 260.553 237.329 258.047 237.329 254.82C237.329 252.713 237.716 250.9 238.489 249.38C239.289 247.833 240.329 246.647 241.609 245.82C242.916 244.993 244.303 244.58 245.769 244.58C246.889 244.58 247.863 244.78 248.689 245.18C249.516 245.58 250.356 246.127 251.209 246.82L251.049 243.5V236.02H254.369V264.5H251.649L251.369 262.22H251.249C250.503 262.967 249.623 263.62 248.609 264.18C247.596 264.713 246.516 264.98 245.369 264.98ZM246.089 262.22C247.796 262.22 249.449 261.327 251.049 259.54V249.38C250.223 248.633 249.423 248.113 248.649 247.82C247.903 247.5 247.129 247.34 246.329 247.34C245.289 247.34 244.343 247.66 243.489 248.3C242.663 248.913 241.996 249.78 241.489 250.9C240.983 251.993 240.729 253.287 240.729 254.78C240.729 257.1 241.196 258.927 242.129 260.26C243.063 261.567 244.383 262.22 246.089 262.22ZM268.797 264.98C267.063 264.98 265.49 264.58 264.077 263.78C262.663 262.953 261.543 261.78 260.717 260.26C259.89 258.74 259.477 256.927 259.477 254.82C259.477 252.687 259.89 250.86 260.717 249.34C261.57 247.82 262.663 246.647 263.997 245.82C265.33 244.993 266.73 244.58 268.197 244.58C270.677 244.58 272.583 245.407 273.917 247.06C275.277 248.713 275.957 250.927 275.957 253.7C275.957 254.047 275.943 254.393 275.917 254.74C275.917 255.06 275.89 255.34 275.837 255.58H262.717C262.85 257.633 263.49 259.273 264.637 260.5C265.81 261.727 267.33 262.34 269.197 262.34C270.13 262.34 270.983 262.207 271.757 261.94C272.557 261.647 273.317 261.273 274.037 260.82L275.197 262.98C274.37 263.513 273.423 263.98 272.357 264.38C271.317 264.78 270.13 264.98 268.797 264.98ZM262.677 253.22H273.077C273.077 251.247 272.65 249.753 271.797 248.74C270.97 247.7 269.797 247.18 268.277 247.18C266.917 247.18 265.69 247.713 264.597 248.78C263.53 249.82 262.89 251.3 262.677 253.22ZM284.24 264.98C283.014 264.98 282.12 264.607 281.56 263.86C281.027 263.087 280.76 261.993 280.76 260.58V236.02H284.04V260.82C284.04 261.327 284.134 261.7 284.32 261.94C284.507 262.153 284.72 262.26 284.96 262.26C285.067 262.26 285.16 262.26 285.24 262.26C285.347 262.233 285.494 262.207 285.68 262.18L286.12 264.66C285.907 264.767 285.654 264.847 285.36 264.9C285.067 264.953 284.694 264.98 284.24 264.98Z" fill="black"/>
<rect x="1435" y="3" width="380" height="495" rx="40" fill="#FFF6DF"/>
<path d="M1540.65 239.5V213.26H1548.13C1550.1 213.26 1551.82 213.5 1553.29 213.98C1554.76 214.46 1555.9 215.273 1556.73 216.42C1557.56 217.54 1557.97 219.06 1557.97 220.98C1557.97 223.727 1557.08 225.767 1555.29 227.1C1553.5 228.433 1551.17 229.1 1548.29 229.1H1543.97V239.5H1540.65ZM1543.97 226.38H1547.89C1550.18 226.38 1551.88 225.953 1552.97 225.1C1554.09 224.22 1554.65 222.847 1554.65 220.98C1554.65 219.087 1554.06 217.78 1552.89 217.06C1551.74 216.313 1550.02 215.94 1547.73 215.94H1543.97V226.38ZM1562.99 239.5V220.06H1565.71L1565.99 223.58H1566.11C1566.77 222.353 1567.59 221.38 1568.55 220.66C1569.51 219.94 1570.53 219.58 1571.63 219.58C1572.4 219.58 1573.09 219.713 1573.71 219.98L1573.07 222.86C1572.75 222.753 1572.45 222.673 1572.19 222.62C1571.92 222.567 1571.59 222.54 1571.19 222.54C1570.36 222.54 1569.49 222.873 1568.59 223.54C1567.71 224.207 1566.93 225.367 1566.27 227.02V239.5H1562.99ZM1584.34 239.98C1582.61 239.98 1581.04 239.58 1579.62 238.78C1578.21 237.953 1577.09 236.78 1576.26 235.26C1575.44 233.74 1575.02 231.927 1575.02 229.82C1575.02 227.687 1575.44 225.86 1576.26 224.34C1577.12 222.82 1578.21 221.647 1579.54 220.82C1580.88 219.993 1582.28 219.58 1583.74 219.58C1586.22 219.58 1588.13 220.407 1589.46 222.06C1590.82 223.713 1591.5 225.927 1591.5 228.7C1591.5 229.047 1591.49 229.393 1591.46 229.74C1591.46 230.06 1591.44 230.34 1591.38 230.58H1578.26C1578.4 232.633 1579.04 234.273 1580.18 235.5C1581.36 236.727 1582.88 237.34 1584.74 237.34C1585.68 237.34 1586.53 237.207 1587.3 236.94C1588.1 236.647 1588.86 236.273 1589.58 235.82L1590.74 237.98C1589.92 238.513 1588.97 238.98 1587.9 239.38C1586.86 239.78 1585.68 239.98 1584.34 239.98ZM1578.22 228.22H1588.62C1588.62 226.247 1588.2 224.753 1587.34 223.74C1586.52 222.7 1585.34 222.18 1583.82 222.18C1582.46 222.18 1581.24 222.713 1580.14 223.78C1579.08 224.82 1578.44 226.3 1578.22 228.22ZM1602.04 239.98C1599.96 239.98 1598.5 239.38 1597.68 238.18C1596.88 236.98 1596.48 235.42 1596.48 233.5V222.74H1593.6V220.26L1596.64 220.06L1597.04 214.62H1599.8V220.06H1605.04V222.74H1599.8V233.54C1599.8 234.74 1600.01 235.673 1600.44 236.34C1600.89 236.98 1601.68 237.3 1602.8 237.3C1603.14 237.3 1603.52 237.247 1603.92 237.14C1604.32 237.007 1604.68 236.887 1605 236.78L1605.64 239.26C1605.1 239.447 1604.52 239.607 1603.88 239.74C1603.26 239.9 1602.65 239.98 1602.04 239.98ZM1609.43 239.5V220.06H1612.15L1612.43 223.58H1612.55C1613.22 222.353 1614.03 221.38 1614.99 220.66C1615.95 219.94 1616.98 219.58 1618.07 219.58C1618.85 219.58 1619.54 219.713 1620.15 219.98L1619.51 222.86C1619.19 222.753 1618.9 222.673 1618.63 222.62C1618.37 222.567 1618.03 222.54 1617.63 222.54C1616.81 222.54 1615.94 222.873 1615.03 223.54C1614.15 224.207 1613.38 225.367 1612.71 227.02V239.5H1609.43ZM1626.8 239.98C1625.18 239.98 1623.82 239.5 1622.72 238.54C1621.66 237.553 1621.12 236.193 1621.12 234.46C1621.12 232.327 1622.07 230.7 1623.96 229.58C1625.88 228.433 1628.91 227.633 1633.04 227.18C1633.04 226.353 1632.92 225.567 1632.68 224.82C1632.47 224.073 1632.07 223.473 1631.48 223.02C1630.92 222.54 1630.11 222.3 1629.04 222.3C1627.92 222.3 1626.87 222.513 1625.88 222.94C1624.9 223.367 1624.02 223.847 1623.24 224.38L1621.96 222.1C1622.87 221.513 1623.98 220.953 1625.28 220.42C1626.62 219.86 1628.06 219.58 1629.6 219.58C1631.98 219.58 1633.7 220.313 1634.76 221.78C1635.83 223.22 1636.36 225.153 1636.36 227.58V239.5H1633.64L1633.36 237.18H1633.24C1632.34 237.927 1631.34 238.58 1630.24 239.14C1629.18 239.7 1628.03 239.98 1626.8 239.98ZM1627.76 237.34C1628.7 237.34 1629.58 237.113 1630.4 236.66C1631.23 236.207 1632.11 235.567 1633.04 234.74V229.34C1629.82 229.74 1627.55 230.34 1626.24 231.14C1624.96 231.94 1624.32 232.967 1624.32 234.22C1624.32 235.313 1624.66 236.113 1625.32 236.62C1625.99 237.1 1626.8 237.34 1627.76 237.34ZM1642.48 239.5V220.06H1645.76V239.5H1642.48ZM1644.16 216.06C1643.52 216.06 1642.99 215.873 1642.56 215.5C1642.16 215.1 1641.96 214.567 1641.96 213.9C1641.96 213.26 1642.16 212.74 1642.56 212.34C1642.99 211.94 1643.52 211.74 1644.16 211.74C1644.8 211.74 1645.32 211.94 1645.72 212.34C1646.15 212.74 1646.36 213.26 1646.36 213.9C1646.36 214.567 1646.15 215.1 1645.72 215.5C1645.32 215.873 1644.8 216.06 1644.16 216.06ZM1652.32 239.5V220.06H1655.04L1655.32 222.86H1655.44C1656.38 221.927 1657.36 221.153 1658.4 220.54C1659.44 219.9 1660.63 219.58 1661.96 219.58C1664.02 219.58 1665.51 220.233 1666.44 221.54C1667.4 222.82 1667.88 224.7 1667.88 227.18V239.5H1664.6V227.62C1664.6 225.807 1664.31 224.487 1663.72 223.66C1663.14 222.833 1662.2 222.42 1660.92 222.42C1659.94 222.42 1659.04 222.673 1658.24 223.18C1657.47 223.687 1656.59 224.433 1655.6 225.42V239.5H1652.32ZM1682.08 239.98C1680.34 239.98 1678.77 239.58 1677.36 238.78C1675.94 237.953 1674.82 236.78 1674 235.26C1673.17 233.74 1672.76 231.927 1672.76 229.82C1672.76 227.687 1673.17 225.86 1674 224.34C1674.85 222.82 1675.94 221.647 1677.28 220.82C1678.61 219.993 1680.01 219.58 1681.48 219.58C1683.96 219.58 1685.86 220.407 1687.2 222.06C1688.56 223.713 1689.24 225.927 1689.24 228.7C1689.24 229.047 1689.22 229.393 1689.2 229.74C1689.2 230.06 1689.17 230.34 1689.12 230.58H1676C1676.13 232.633 1676.77 234.273 1677.92 235.5C1679.09 236.727 1680.61 237.34 1682.48 237.34C1683.41 237.34 1684.26 237.207 1685.04 236.94C1685.84 236.647 1686.6 236.273 1687.32 235.82L1688.48 237.98C1687.65 238.513 1686.7 238.98 1685.64 239.38C1684.6 239.78 1683.41 239.98 1682.08 239.98ZM1675.96 228.22H1686.36C1686.36 226.247 1685.93 224.753 1685.08 223.74C1684.25 222.7 1683.08 222.18 1681.56 222.18C1680.2 222.18 1678.97 222.713 1677.88 223.78C1676.81 224.82 1676.17 226.3 1675.96 228.22ZM1700.68 239.98C1698.26 239.98 1696.31 239.1 1694.84 237.34C1693.38 235.553 1692.64 233.047 1692.64 229.82C1692.64 227.713 1693.03 225.9 1693.8 224.38C1694.6 222.833 1695.64 221.647 1696.92 220.82C1698.23 219.993 1699.62 219.58 1701.08 219.58C1702.2 219.58 1703.18 219.78 1704 220.18C1704.83 220.58 1705.67 221.127 1706.52 221.82L1706.36 218.5V211.02H1709.68V239.5H1706.96L1706.68 237.22H1706.56C1705.82 237.967 1704.94 238.62 1703.92 239.18C1702.91 239.713 1701.83 239.98 1700.68 239.98ZM1701.4 237.22C1703.11 237.22 1704.76 236.327 1706.36 234.54V224.38C1705.54 223.633 1704.74 223.113 1703.96 222.82C1703.22 222.5 1702.44 222.34 1701.64 222.34C1700.6 222.34 1699.66 222.66 1698.8 223.3C1697.98 223.913 1697.31 224.78 1696.8 225.9C1696.3 226.993 1696.04 228.287 1696.04 229.78C1696.04 232.1 1696.51 233.927 1697.44 235.26C1698.38 236.567 1699.7 237.22 1701.4 237.22ZM1497.35 289.98C1496.12 289.98 1495.23 289.607 1494.67 288.86C1494.13 288.087 1493.87 286.993 1493.87 285.58V261.02H1497.15V285.82C1497.15 286.327 1497.24 286.7 1497.43 286.94C1497.61 287.153 1497.83 287.26 1498.07 287.26C1498.17 287.26 1498.27 287.26 1498.35 287.26C1498.45 287.233 1498.6 287.207 1498.79 287.18L1499.23 289.66C1499.01 289.767 1498.76 289.847 1498.47 289.9C1498.17 289.953 1497.8 289.98 1497.35 289.98ZM1508.54 289.98C1506.91 289.98 1505.55 289.5 1504.46 288.54C1503.39 287.553 1502.86 286.193 1502.86 284.46C1502.86 282.327 1503.81 280.7 1505.7 279.58C1507.62 278.433 1510.65 277.633 1514.78 277.18C1514.78 276.353 1514.66 275.567 1514.42 274.82C1514.21 274.073 1513.81 273.473 1513.22 273.02C1512.66 272.54 1511.85 272.3 1510.78 272.3C1509.66 272.3 1508.61 272.513 1507.62 272.94C1506.63 273.367 1505.75 273.847 1504.98 274.38L1503.7 272.1C1504.61 271.513 1505.71 270.953 1507.02 270.42C1508.35 269.86 1509.79 269.58 1511.34 269.58C1513.71 269.58 1515.43 270.313 1516.5 271.78C1517.57 273.22 1518.1 275.153 1518.1 277.58V289.5H1515.38L1515.1 287.18H1514.98C1514.07 287.927 1513.07 288.58 1511.98 289.14C1510.91 289.7 1509.77 289.98 1508.54 289.98ZM1509.5 287.34C1510.43 287.34 1511.31 287.113 1512.14 286.66C1512.97 286.207 1513.85 285.567 1514.78 284.74V279.34C1511.55 279.74 1509.29 280.34 1507.98 281.14C1506.7 281.94 1506.06 282.967 1506.06 284.22C1506.06 285.313 1506.39 286.113 1507.06 286.62C1507.73 287.1 1508.54 287.34 1509.5 287.34ZM1524.22 289.5V270.06H1526.94L1527.22 272.86H1527.34C1528.27 271.927 1529.26 271.153 1530.3 270.54C1531.34 269.9 1532.52 269.58 1533.86 269.58C1535.91 269.58 1537.4 270.233 1538.34 271.54C1539.3 272.82 1539.78 274.7 1539.78 277.18V289.5H1536.5V277.62C1536.5 275.807 1536.2 274.487 1535.62 273.66C1535.03 272.833 1534.1 272.42 1532.82 272.42C1531.83 272.42 1530.94 272.673 1530.14 273.18C1529.36 273.687 1528.48 274.433 1527.5 275.42V289.5H1524.22ZM1552.65 298.46C1550.28 298.46 1548.35 298.007 1546.85 297.1C1545.36 296.193 1544.61 294.9 1544.61 293.22C1544.61 292.393 1544.87 291.593 1545.37 290.82C1545.88 290.073 1546.57 289.407 1547.45 288.82V288.66C1546.97 288.367 1546.56 287.953 1546.21 287.42C1545.89 286.887 1545.73 286.247 1545.73 285.5C1545.73 284.673 1545.96 283.953 1546.41 283.34C1546.87 282.727 1547.35 282.247 1547.85 281.9V281.74C1547.21 281.207 1546.63 280.487 1546.09 279.58C1545.59 278.673 1545.33 277.647 1545.33 276.5C1545.33 275.087 1545.67 273.86 1546.33 272.82C1547 271.78 1547.89 270.98 1549.01 270.42C1550.13 269.86 1551.35 269.58 1552.65 269.58C1553.19 269.58 1553.69 269.633 1554.17 269.74C1554.65 269.82 1555.07 269.927 1555.41 270.06H1562.17V272.58H1558.17C1558.63 273.007 1559 273.58 1559.29 274.3C1559.61 274.993 1559.77 275.753 1559.77 276.58C1559.77 277.967 1559.45 279.167 1558.81 280.18C1558.17 281.193 1557.32 281.98 1556.25 282.54C1555.19 283.073 1553.99 283.34 1552.65 283.34C1551.61 283.34 1550.64 283.113 1549.73 282.66C1549.39 282.953 1549.09 283.287 1548.85 283.66C1548.61 284.007 1548.49 284.447 1548.49 284.98C1548.49 285.593 1548.73 286.1 1549.21 286.5C1549.72 286.9 1550.63 287.1 1551.93 287.1H1555.69C1557.96 287.1 1559.65 287.473 1560.77 288.22C1561.92 288.94 1562.49 290.113 1562.49 291.74C1562.49 292.94 1562.09 294.047 1561.29 295.06C1560.49 296.073 1559.36 296.887 1557.89 297.5C1556.43 298.14 1554.68 298.46 1552.65 298.46ZM1552.65 281.14C1553.77 281.14 1554.73 280.727 1555.53 279.9C1556.36 279.047 1556.77 277.913 1556.77 276.5C1556.77 275.087 1556.37 273.98 1555.57 273.18C1554.77 272.38 1553.8 271.98 1552.65 271.98C1551.51 271.98 1550.53 272.38 1549.73 273.18C1548.93 273.98 1548.53 275.087 1548.53 276.5C1548.53 277.913 1548.93 279.047 1549.73 279.9C1550.56 280.727 1551.53 281.14 1552.65 281.14ZM1553.13 296.18C1555 296.18 1556.49 295.767 1557.61 294.94C1558.73 294.14 1559.29 293.233 1559.29 292.22C1559.29 291.313 1558.95 290.687 1558.25 290.34C1557.59 289.993 1556.63 289.82 1555.37 289.82H1552.01C1551.64 289.82 1551.23 289.793 1550.77 289.74C1550.35 289.687 1549.92 289.607 1549.49 289.5C1548.8 290.007 1548.29 290.54 1547.97 291.1C1547.65 291.66 1547.49 292.22 1547.49 292.78C1547.49 293.82 1547.99 294.647 1548.97 295.26C1549.99 295.873 1551.37 296.18 1553.13 296.18ZM1571.93 289.98C1569.88 289.98 1568.37 289.34 1567.41 288.06C1566.45 286.753 1565.97 284.86 1565.97 282.38V270.06H1569.29V281.94C1569.29 283.753 1569.57 285.073 1570.13 285.9C1570.72 286.727 1571.65 287.14 1572.93 287.14C1573.94 287.14 1574.84 286.887 1575.61 286.38C1576.41 285.847 1577.26 285.007 1578.17 283.86V270.06H1581.45V289.5H1578.73L1578.45 286.46H1578.33C1577.42 287.527 1576.46 288.38 1575.45 289.02C1574.44 289.66 1573.26 289.98 1571.93 289.98ZM1592.49 289.98C1590.86 289.98 1589.5 289.5 1588.41 288.54C1587.34 287.553 1586.81 286.193 1586.81 284.46C1586.81 282.327 1587.75 280.7 1589.65 279.58C1591.57 278.433 1594.59 277.633 1598.73 277.18C1598.73 276.353 1598.61 275.567 1598.37 274.82C1598.15 274.073 1597.75 273.473 1597.17 273.02C1596.61 272.54 1595.79 272.3 1594.73 272.3C1593.61 272.3 1592.55 272.513 1591.57 272.94C1590.58 273.367 1589.7 273.847 1588.93 274.38L1587.65 272.1C1588.55 271.513 1589.66 270.953 1590.97 270.42C1592.3 269.86 1593.74 269.58 1595.29 269.58C1597.66 269.58 1599.38 270.313 1600.45 271.78C1601.51 273.22 1602.05 275.153 1602.05 277.58V289.5H1599.33L1599.05 287.18H1598.93C1598.02 287.927 1597.02 288.58 1595.93 289.14C1594.86 289.7 1593.71 289.98 1592.49 289.98ZM1593.45 287.34C1594.38 287.34 1595.26 287.113 1596.09 286.66C1596.91 286.207 1597.79 285.567 1598.73 284.74V279.34C1595.5 279.74 1593.23 280.34 1591.93 281.14C1590.65 281.94 1590.01 282.967 1590.01 284.22C1590.01 285.313 1590.34 286.113 1591.01 286.62C1591.67 287.1 1592.49 287.34 1593.45 287.34ZM1614.72 298.46C1612.35 298.46 1610.42 298.007 1608.92 297.1C1607.43 296.193 1606.68 294.9 1606.68 293.22C1606.68 292.393 1606.94 291.593 1607.44 290.82C1607.95 290.073 1608.64 289.407 1609.52 288.82V288.66C1609.04 288.367 1608.63 287.953 1608.28 287.42C1607.96 286.887 1607.8 286.247 1607.8 285.5C1607.8 284.673 1608.03 283.953 1608.48 283.34C1608.94 282.727 1609.42 282.247 1609.92 281.9V281.74C1609.28 281.207 1608.7 280.487 1608.16 279.58C1607.66 278.673 1607.4 277.647 1607.4 276.5C1607.4 275.087 1607.74 273.86 1608.4 272.82C1609.07 271.78 1609.96 270.98 1611.08 270.42C1612.2 269.86 1613.42 269.58 1614.72 269.58C1615.26 269.58 1615.76 269.633 1616.24 269.74C1616.72 269.82 1617.14 269.927 1617.48 270.06H1624.24V272.58H1620.24C1620.7 273.007 1621.07 273.58 1621.36 274.3C1621.68 274.993 1621.84 275.753 1621.84 276.58C1621.84 277.967 1621.52 279.167 1620.88 280.18C1620.24 281.193 1619.39 281.98 1618.32 282.54C1617.26 283.073 1616.06 283.34 1614.72 283.34C1613.68 283.34 1612.71 283.113 1611.8 282.66C1611.46 282.953 1611.16 283.287 1610.92 283.66C1610.68 284.007 1610.56 284.447 1610.56 284.98C1610.56 285.593 1610.8 286.1 1611.28 286.5C1611.79 286.9 1612.7 287.1 1614 287.1H1617.76C1620.03 287.1 1621.72 287.473 1622.84 288.22C1623.99 288.94 1624.56 290.113 1624.56 291.74C1624.56 292.94 1624.16 294.047 1623.36 295.06C1622.56 296.073 1621.43 296.887 1619.96 297.5C1618.5 298.14 1616.75 298.46 1614.72 298.46ZM1614.72 281.14C1615.84 281.14 1616.8 280.727 1617.6 279.9C1618.43 279.047 1618.84 277.913 1618.84 276.5C1618.84 275.087 1618.44 273.98 1617.64 273.18C1616.84 272.38 1615.87 271.98 1614.72 271.98C1613.58 271.98 1612.6 272.38 1611.8 273.18C1611 273.98 1610.6 275.087 1610.6 276.5C1610.6 277.913 1611 279.047 1611.8 279.9C1612.63 280.727 1613.6 281.14 1614.72 281.14ZM1615.2 296.18C1617.07 296.18 1618.56 295.767 1619.68 294.94C1620.8 294.14 1621.36 293.233 1621.36 292.22C1621.36 291.313 1621.02 290.687 1620.32 290.34C1619.66 289.993 1618.7 289.82 1617.44 289.82H1614.08C1613.71 289.82 1613.3 289.793 1612.84 289.74C1612.42 289.687 1611.99 289.607 1611.56 289.5C1610.87 290.007 1610.36 290.54 1610.04 291.1C1609.72 291.66 1609.56 292.22 1609.56 292.78C1609.56 293.82 1610.06 294.647 1611.04 295.26C1612.06 295.873 1613.44 296.18 1615.2 296.18ZM1635.65 289.98C1633.92 289.98 1632.35 289.58 1630.93 288.78C1629.52 287.953 1628.4 286.78 1627.57 285.26C1626.75 283.74 1626.33 281.927 1626.33 279.82C1626.33 277.687 1626.75 275.86 1627.57 274.34C1628.43 272.82 1629.52 271.647 1630.85 270.82C1632.19 269.993 1633.59 269.58 1635.05 269.58C1637.53 269.58 1639.44 270.407 1640.77 272.06C1642.13 273.713 1642.81 275.927 1642.81 278.7C1642.81 279.047 1642.8 279.393 1642.77 279.74C1642.77 280.06 1642.75 280.34 1642.69 280.58H1629.57C1629.71 282.633 1630.35 284.273 1631.49 285.5C1632.67 286.727 1634.19 287.34 1636.05 287.34C1636.99 287.34 1637.84 287.207 1638.61 286.94C1639.41 286.647 1640.17 286.273 1640.89 285.82L1642.05 287.98C1641.23 288.513 1640.28 288.98 1639.21 289.38C1638.17 289.78 1636.99 289.98 1635.65 289.98ZM1629.53 278.22H1639.93C1639.93 276.247 1639.51 274.753 1638.65 273.74C1637.83 272.7 1636.65 272.18 1635.13 272.18C1633.77 272.18 1632.55 272.713 1631.45 273.78C1630.39 274.82 1629.75 276.3 1629.53 278.22ZM1655.62 289.5V270.06H1658.34L1658.62 272.86H1658.74C1659.6 271.927 1660.53 271.153 1661.54 270.54C1662.56 269.9 1663.64 269.58 1664.78 269.58C1666.28 269.58 1667.44 269.913 1668.26 270.58C1669.12 271.22 1669.74 272.127 1670.14 273.3C1671.16 272.207 1672.18 271.313 1673.22 270.62C1674.26 269.927 1675.37 269.58 1676.54 269.58C1678.54 269.58 1680.02 270.233 1680.98 271.54C1681.97 272.82 1682.46 274.7 1682.46 277.18V289.5H1679.18V277.62C1679.18 275.807 1678.89 274.487 1678.3 273.66C1677.72 272.833 1676.81 272.42 1675.58 272.42C1674.14 272.42 1672.52 273.42 1670.7 275.42V289.5H1667.42V277.62C1667.42 275.807 1667.13 274.487 1666.54 273.66C1665.96 272.833 1665.04 272.42 1663.78 272.42C1662.34 272.42 1660.72 273.42 1658.9 275.42V289.5H1655.62ZM1696.35 289.98C1694.77 289.98 1693.29 289.58 1691.91 288.78C1690.55 287.98 1689.44 286.82 1688.59 285.3C1687.76 283.78 1687.35 281.953 1687.35 279.82C1687.35 277.633 1687.76 275.78 1688.59 274.26C1689.44 272.74 1690.55 271.58 1691.91 270.78C1693.29 269.98 1694.77 269.58 1696.35 269.58C1697.95 269.58 1699.43 269.98 1700.79 270.78C1702.15 271.58 1703.24 272.74 1704.07 274.26C1704.92 275.78 1705.35 277.633 1705.35 279.82C1705.35 281.953 1704.92 283.78 1704.07 285.3C1703.24 286.82 1702.15 287.98 1700.79 288.78C1699.43 289.58 1697.95 289.98 1696.35 289.98ZM1696.35 287.26C1698.03 287.26 1699.37 286.58 1700.39 285.22C1701.43 283.833 1701.95 282.033 1701.95 279.82C1701.95 277.58 1701.43 275.767 1700.39 274.38C1699.37 272.993 1698.03 272.3 1696.35 272.3C1694.69 272.3 1693.35 272.993 1692.31 274.38C1691.27 275.767 1690.75 277.58 1690.75 279.82C1690.75 282.033 1691.27 283.833 1692.31 285.22C1693.35 286.58 1694.69 287.26 1696.35 287.26ZM1717.11 289.98C1714.68 289.98 1712.73 289.1 1711.27 287.34C1709.8 285.553 1709.07 283.047 1709.07 279.82C1709.07 277.713 1709.45 275.9 1710.23 274.38C1711.03 272.833 1712.07 271.647 1713.35 270.82C1714.65 269.993 1716.04 269.58 1717.51 269.58C1718.63 269.58 1719.6 269.78 1720.43 270.18C1721.25 270.58 1722.09 271.127 1722.95 271.82L1722.79 268.5V261.02H1726.11V289.5H1723.39L1723.11 287.22H1722.99C1722.24 287.967 1721.36 288.62 1720.35 289.18C1719.33 289.713 1718.25 289.98 1717.11 289.98ZM1717.83 287.22C1719.53 287.22 1721.19 286.327 1722.79 284.54V274.38C1721.96 273.633 1721.16 273.113 1720.39 272.82C1719.64 272.5 1718.87 272.34 1718.07 272.34C1717.03 272.34 1716.08 272.66 1715.23 273.3C1714.4 273.913 1713.73 274.78 1713.23 275.9C1712.72 276.993 1712.47 278.287 1712.47 279.78C1712.47 282.1 1712.93 283.927 1713.87 285.26C1714.8 286.567 1716.12 287.22 1717.83 287.22ZM1740.54 289.98C1738.8 289.98 1737.23 289.58 1735.82 288.78C1734.4 287.953 1733.28 286.78 1732.46 285.26C1731.63 283.74 1731.22 281.927 1731.22 279.82C1731.22 277.687 1731.63 275.86 1732.46 274.34C1733.31 272.82 1734.4 271.647 1735.74 270.82C1737.07 269.993 1738.47 269.58 1739.93 269.58C1742.42 269.58 1744.32 270.407 1745.66 272.06C1747.02 273.713 1747.7 275.927 1747.7 278.7C1747.7 279.047 1747.68 279.393 1747.66 279.74C1747.66 280.06 1747.63 280.34 1747.58 280.58H1734.46C1734.59 282.633 1735.23 284.273 1736.38 285.5C1737.55 286.727 1739.07 287.34 1740.94 287.34C1741.87 287.34 1742.72 287.207 1743.5 286.94C1744.3 286.647 1745.06 286.273 1745.78 285.82L1746.94 287.98C1746.11 288.513 1745.16 288.98 1744.1 289.38C1743.06 289.78 1741.87 289.98 1740.54 289.98ZM1734.42 278.22H1744.82C1744.82 276.247 1744.39 274.753 1743.54 273.74C1742.71 272.7 1741.54 272.18 1740.02 272.18C1738.66 272.18 1737.43 272.713 1736.34 273.78C1735.27 274.82 1734.63 276.3 1734.42 278.22ZM1755.98 289.98C1754.75 289.98 1753.86 289.607 1753.3 288.86C1752.77 288.087 1752.5 286.993 1752.5 285.58V261.02H1755.78V285.82C1755.78 286.327 1755.87 286.7 1756.06 286.94C1756.25 287.153 1756.46 287.26 1756.7 287.26C1756.81 287.26 1756.9 287.26 1756.98 287.26C1757.09 287.233 1757.23 287.207 1757.42 287.18L1757.86 289.66C1757.65 289.767 1757.39 289.847 1757.1 289.9C1756.81 289.953 1756.43 289.98 1755.98 289.98Z" fill="black"/>
<path d="M1436.06 251.061C1436.65 250.475 1436.65 249.525 1436.06 248.939L1426.51 239.393C1425.93 238.808 1424.98 238.808 1424.39 239.393C1423.81 239.979 1423.81 240.929 1424.39 241.515L1432.88 250L1424.39 258.485C1423.81 259.071 1423.81 260.021 1424.39 260.607C1424.98 261.192 1425.93 261.192 1426.51 260.607L1436.06 251.061ZM380 251.5L1435 251.5L1435 248.5L380 248.5L380 251.5Z" fill="#B4B4B4"/>
<rect x="762.5" y="3.5" width="289" height="85" rx="11.5" fill="#FFF3EB"/>
<path d="M805.592 62.24V58.874C804.504 58.7607 803.45 58.466 802.43 57.99C801.41 57.4913 800.537 56.9133 799.812 56.256L801.104 54.318C801.829 54.9527 802.623 55.4967 803.484 55.95C804.368 56.3807 805.331 56.596 806.374 56.596C807.643 56.596 808.584 56.2787 809.196 55.644C809.831 54.9867 810.148 54.1367 810.148 53.094C810.148 52.1647 809.921 51.4053 809.468 50.816C809.015 50.2267 808.425 49.7167 807.7 49.286C806.975 48.8553 806.204 48.4473 805.388 48.062C804.595 47.654 803.835 47.212 803.11 46.736C802.385 46.2373 801.795 45.6253 801.342 44.9C800.889 44.1747 800.662 43.2567 800.662 42.146C800.662 40.6273 801.115 39.3693 802.022 38.372C802.929 37.352 804.119 36.7287 805.592 36.502V33.068H807.632V36.434C808.72 36.5473 809.638 36.842 810.386 37.318C811.157 37.794 811.848 38.3607 812.46 39.018L810.964 40.684C810.329 40.072 809.706 39.596 809.094 39.256C808.505 38.916 807.745 38.746 806.816 38.746C805.773 38.746 804.946 39.0407 804.334 39.63C803.722 40.2193 803.416 41.0127 803.416 42.01C803.416 42.826 803.643 43.506 804.096 44.05C804.549 44.5713 805.139 45.0247 805.864 45.41C806.589 45.7953 807.349 46.1807 808.142 46.566C808.958 46.9513 809.729 47.4047 810.454 47.926C811.179 48.4247 811.769 49.0707 812.222 49.864C812.675 50.6573 812.902 51.666 812.902 52.89C812.902 54.4993 812.426 55.8367 811.474 56.902C810.522 57.9447 809.241 58.5793 807.632 58.806V62.24H805.592ZM822.492 62.24V58.874C821.404 58.7607 820.35 58.466 819.33 57.99C818.31 57.4913 817.438 56.9133 816.712 56.256L818.004 54.318C818.73 54.9527 819.523 55.4967 820.384 55.95C821.268 56.3807 822.232 56.596 823.274 56.596C824.544 56.596 825.484 56.2787 826.096 55.644C826.731 54.9867 827.048 54.1367 827.048 53.094C827.048 52.1647 826.822 51.4053 826.368 50.816C825.915 50.2267 825.326 49.7167 824.6 49.286C823.875 48.8553 823.104 48.4473 822.288 48.062C821.495 47.654 820.736 47.212 820.01 46.736C819.285 46.2373 818.696 45.6253 818.242 44.9C817.789 44.1747 817.562 43.2567 817.562 42.146C817.562 40.6273 818.016 39.3693 818.922 38.372C819.829 37.352 821.019 36.7287 822.492 36.502V33.068H824.532V36.434C825.62 36.5473 826.538 36.842 827.286 37.318C828.057 37.794 828.748 38.3607 829.36 39.018L827.864 40.684C827.23 40.072 826.606 39.596 825.994 39.256C825.405 38.916 824.646 38.746 823.716 38.746C822.674 38.746 821.846 39.0407 821.234 39.63C820.622 40.2193 820.316 41.0127 820.316 42.01C820.316 42.826 820.543 43.506 820.996 44.05C821.45 44.5713 822.039 45.0247 822.764 45.41C823.49 45.7953 824.249 46.1807 825.042 46.566C825.858 46.9513 826.629 47.4047 827.354 47.926C828.08 48.4247 828.669 49.0707 829.122 49.864C829.576 50.6573 829.802 51.666 829.802 52.89C829.802 54.4993 829.326 55.8367 828.374 56.902C827.422 57.9447 826.142 58.5793 824.532 58.806V62.24H822.492ZM839.393 62.24V58.874C838.305 58.7607 837.251 58.466 836.231 57.99C835.211 57.4913 834.338 56.9133 833.613 56.256L834.905 54.318C835.63 54.9527 836.423 55.4967 837.285 55.95C838.169 56.3807 839.132 56.596 840.175 56.596C841.444 56.596 842.385 56.2787 842.997 55.644C843.631 54.9867 843.949 54.1367 843.949 53.094C843.949 52.1647 843.722 51.4053 843.269 50.816C842.815 50.2267 842.226 49.7167 841.501 49.286C840.775 48.8553 840.005 48.4473 839.189 48.062C838.395 47.654 837.636 47.212 836.911 46.736C836.185 46.2373 835.596 45.6253 835.143 44.9C834.689 44.1747 834.463 43.2567 834.463 42.146C834.463 40.6273 834.916 39.3693 835.823 38.372C836.729 37.352 837.919 36.7287 839.393 36.502V33.068H841.433V36.434C842.521 36.5473 843.439 36.842 844.187 37.318C844.957 37.794 845.649 38.3607 846.261 39.018L844.765 40.684C844.13 40.072 843.507 39.596 842.895 39.256C842.305 38.916 841.546 38.746 840.617 38.746C839.574 38.746 838.747 39.0407 838.135 39.63C837.523 40.2193 837.217 41.0127 837.217 42.01C837.217 42.826 837.443 43.506 837.897 44.05C838.35 44.5713 838.939 45.0247 839.665 45.41C840.39 45.7953 841.149 46.1807 841.943 46.566C842.759 46.9513 843.529 47.4047 844.255 47.926C844.98 48.4247 845.569 49.0707 846.023 49.864C846.476 50.6573 846.703 51.666 846.703 52.89C846.703 54.4993 846.227 55.8367 845.275 56.902C844.323 57.9447 843.042 58.5793 841.433 58.806V62.24H839.393ZM858.34 58.5V41.976H861.128V58.5H858.34ZM859.768 38.576C859.224 38.576 858.77 38.4173 858.408 38.1C858.068 37.76 857.898 37.3067 857.898 36.74C857.898 36.196 858.068 35.754 858.408 35.414C858.77 35.074 859.224 34.904 859.768 34.904C860.312 34.904 860.754 35.074 861.094 35.414C861.456 35.754 861.638 36.196 861.638 36.74C861.638 37.3067 861.456 37.76 861.094 38.1C860.754 38.4173 860.312 38.576 859.768 38.576ZM866.707 58.5V41.976H869.019L869.257 44.356H869.359C870.152 43.5627 870.991 42.9053 871.875 42.384C872.759 41.84 873.768 41.568 874.901 41.568C876.646 41.568 877.916 42.1233 878.709 43.234C879.525 44.322 879.933 45.92 879.933 48.028V58.5H877.145V48.402C877.145 46.8607 876.896 45.7387 876.397 45.036C875.898 44.3333 875.105 43.982 874.017 43.982C873.178 43.982 872.419 44.1973 871.739 44.628C871.082 45.0587 870.334 45.6933 869.495 46.532V58.5H866.707ZM898.635 58.908C897.185 58.908 895.87 58.568 894.691 57.888C893.513 57.208 892.583 56.222 891.903 54.93C891.223 53.638 890.883 52.0853 890.883 50.272C890.883 48.4133 891.246 46.838 891.971 45.546C892.719 44.254 893.694 43.268 894.895 42.588C896.119 41.908 897.434 41.568 898.839 41.568C899.927 41.568 900.857 41.7607 901.627 42.146C902.421 42.5313 903.101 42.9847 903.667 43.506L902.239 45.342C901.763 44.9113 901.253 44.56 900.709 44.288C900.188 44.016 899.599 43.88 898.941 43.88C897.944 43.88 897.049 44.152 896.255 44.696C895.485 45.2173 894.873 45.9653 894.419 46.94C893.989 47.892 893.773 49.0027 893.773 50.272C893.773 52.1533 894.238 53.6833 895.167 54.862C896.119 56.018 897.355 56.596 898.873 56.596C899.644 56.596 900.358 56.4373 901.015 56.12C901.673 55.78 902.251 55.3833 902.749 54.93L903.973 56.8C903.225 57.4573 902.398 57.9787 901.491 58.364C900.585 58.7267 899.633 58.908 898.635 58.908ZM913.309 58.908C911.971 58.908 910.713 58.568 909.535 57.888C908.379 57.208 907.438 56.222 906.713 54.93C906.01 53.638 905.659 52.0853 905.659 50.272C905.659 48.4133 906.01 46.838 906.713 45.546C907.438 44.254 908.379 43.268 909.535 42.588C910.713 41.908 911.971 41.568 913.309 41.568C914.669 41.568 915.927 41.908 917.083 42.588C918.239 43.268 919.168 44.254 919.871 45.546C920.596 46.838 920.959 48.4133 920.959 50.272C920.959 52.0853 920.596 53.638 919.871 54.93C919.168 56.222 918.239 57.208 917.083 57.888C915.927 58.568 914.669 58.908 913.309 58.908ZM913.309 56.596C914.737 56.596 915.881 56.018 916.743 54.862C917.627 53.6833 918.069 52.1533 918.069 50.272C918.069 48.368 917.627 46.8267 916.743 45.648C915.881 44.4693 914.737 43.88 913.309 43.88C911.903 43.88 910.759 44.4693 909.875 45.648C908.991 46.8267 908.549 48.368 908.549 50.272C908.549 52.1533 908.991 53.6833 909.875 54.862C910.759 56.018 911.903 56.596 913.309 56.596ZM925.31 58.5V41.976H927.622L927.86 44.356H927.962C928.688 43.5627 929.481 42.9053 930.342 42.384C931.204 41.84 932.122 41.568 933.096 41.568C934.366 41.568 935.352 41.8513 936.054 42.418C936.78 42.962 937.312 43.7327 937.652 44.73C938.514 43.8007 939.386 43.0413 940.27 42.452C941.154 41.8627 942.095 41.568 943.092 41.568C944.792 41.568 946.05 42.1233 946.866 43.234C947.705 44.322 948.124 45.92 948.124 48.028V58.5H945.336V48.402C945.336 46.8607 945.087 45.7387 944.588 45.036C944.09 44.3333 943.319 43.982 942.276 43.982C941.052 43.982 939.67 44.832 938.128 46.532V58.5H935.34V48.402C935.34 46.8607 935.091 45.7387 934.592 45.036C934.094 44.3333 933.312 43.982 932.246 43.982C931.022 43.982 929.64 44.832 928.098 46.532V58.5H925.31ZM953.5 65.47V41.976H955.812L956.05 43.88H956.152C956.9 43.2453 957.716 42.7013 958.6 42.248C959.507 41.7947 960.447 41.568 961.422 41.568C963.553 41.568 965.173 42.3387 966.284 43.88C967.395 45.3987 967.95 47.4387 967.95 50C967.95 51.8587 967.61 53.4567 966.93 54.794C966.273 56.1313 965.4 57.1513 964.312 57.854C963.247 58.5567 962.079 58.908 960.81 58.908C960.039 58.908 959.269 58.738 958.498 58.398C957.75 58.058 956.991 57.5933 956.22 57.004L956.288 59.894V65.47H953.5ZM960.334 56.562C961.694 56.562 962.816 55.984 963.7 54.828C964.607 53.6493 965.06 52.04 965.06 50C965.06 48.1867 964.72 46.7247 964.04 45.614C963.383 44.4807 962.272 43.914 960.708 43.914C960.005 43.914 959.291 44.1067 958.566 44.492C957.863 44.8773 957.104 45.4327 956.288 46.158V54.828C957.036 55.4627 957.761 55.916 958.464 56.188C959.167 56.4373 959.79 56.562 960.334 56.562ZM977.187 58.908C975.442 58.908 974.161 58.364 973.345 57.276C972.529 56.1653 972.121 54.556 972.121 52.448V41.976H974.943V52.074C974.943 53.6153 975.181 54.7373 975.657 55.44C976.156 56.1427 976.949 56.494 978.037 56.494C978.899 56.494 979.658 56.2787 980.315 55.848C980.995 55.3947 981.721 54.6807 982.491 53.706V41.976H985.279V58.5H982.967L982.729 55.916H982.627C981.857 56.8227 981.041 57.548 980.179 58.092C979.318 58.636 978.321 58.908 977.187 58.908ZM996.055 58.908C994.287 58.908 993.052 58.398 992.349 57.378C991.669 56.358 991.329 55.032 991.329 53.4V44.254H988.881V42.146L991.465 41.976L991.805 37.352H994.151V41.976H998.605V44.254H994.151V53.434C994.151 54.454 994.333 55.2473 994.695 55.814C995.081 56.358 995.749 56.63 996.701 56.63C996.996 56.63 997.313 56.5847 997.653 56.494C997.993 56.3807 998.299 56.2787 998.571 56.188L999.115 58.296C998.662 58.4547 998.163 58.5907 997.619 58.704C997.098 58.84 996.577 58.908 996.055 58.908ZM1008.57 58.908C1007.1 58.908 1005.76 58.568 1004.56 57.888C1003.36 57.1853 1002.41 56.188 1001.71 54.896C1001 53.604 1000.65 52.0627 1000.65 50.272C1000.65 48.4587 1001 46.906 1001.71 45.614C1002.43 44.322 1003.36 43.3247 1004.49 42.622C1005.63 41.9193 1006.82 41.568 1008.06 41.568C1010.17 41.568 1011.79 42.2707 1012.93 43.676C1014.08 45.0813 1014.66 46.9627 1014.66 49.32C1014.66 49.6147 1014.65 49.9093 1014.63 50.204C1014.63 50.476 1014.6 50.714 1014.56 50.918H1003.41C1003.52 52.6633 1004.06 54.0573 1005.04 55.1C1006.04 56.1427 1007.33 56.664 1008.91 56.664C1009.71 56.664 1010.43 56.5507 1011.09 56.324C1011.77 56.0747 1012.42 55.7573 1013.03 55.372L1014.01 57.208C1013.31 57.6613 1012.51 58.058 1011.6 58.398C1010.72 58.738 1009.71 58.908 1008.57 58.908ZM1003.37 48.912H1012.21C1012.21 47.2347 1011.85 45.9653 1011.12 45.104C1010.42 44.22 1009.42 43.778 1008.13 43.778C1006.98 43.778 1005.93 44.2313 1005 45.138C1004.1 46.022 1003.55 47.28 1003.37 48.912Z" fill="black"/>
<rect x="762.5" y="3.5" width="289" height="85" rx="11.5" stroke="#FFDFCA"/>
<path d="M905.939 240.061C906.525 240.646 907.475 240.646 908.061 240.061L917.607 230.515C918.192 229.929 918.192 228.979 917.607 228.393C917.021 227.808 916.071 227.808 915.485 228.393L907 236.879L898.515 228.393C897.929 227.808 896.979 227.808 896.393 228.393C895.808 228.979 895.808 229.929 896.393 230.515L905.939 240.061ZM905.5 93L905.5 239L908.5 239L908.5 93L905.5 93Z" fill="#B4B4B4"/>
<rect x="500.5" y="374.5" width="379" height="123" rx="11.5" fill="#FFF3EB"/>
<path d="M575.451 448.5L568.311 426.196H571.337L574.907 438.232C575.315 439.547 575.666 440.782 575.961 441.938C576.278 443.071 576.652 444.295 577.083 445.61H577.219C577.627 444.295 577.989 443.071 578.307 441.938C578.624 440.782 578.975 439.547 579.361 438.232L582.931 426.196H585.821L578.749 448.5H575.451ZM594.797 448.908C593.323 448.908 591.986 448.568 590.785 447.888C589.583 447.185 588.631 446.188 587.929 444.896C587.226 443.604 586.875 442.063 586.875 440.272C586.875 438.459 587.226 436.906 587.929 435.614C588.654 434.322 589.583 433.325 590.717 432.622C591.85 431.919 593.04 431.568 594.287 431.568C596.395 431.568 598.015 432.271 599.149 433.676C600.305 435.081 600.883 436.963 600.883 439.32C600.883 439.615 600.871 439.909 600.849 440.204C600.849 440.476 600.826 440.714 600.781 440.918H589.629C589.742 442.663 590.286 444.057 591.261 445.1C592.258 446.143 593.55 446.664 595.137 446.664C595.93 446.664 596.655 446.551 597.313 446.324C597.993 446.075 598.639 445.757 599.251 445.372L600.237 447.208C599.534 447.661 598.729 448.058 597.823 448.398C596.939 448.738 595.93 448.908 594.797 448.908ZM589.595 438.912H598.435C598.435 437.235 598.072 435.965 597.347 435.104C596.644 434.22 595.647 433.778 594.355 433.778C593.199 433.778 592.156 434.231 591.227 435.138C590.32 436.022 589.776 437.28 589.595 438.912ZM604.966 448.5V431.976H607.278L607.516 434.968H607.618C608.184 433.925 608.876 433.098 609.692 432.486C610.508 431.874 611.38 431.568 612.31 431.568C612.967 431.568 613.556 431.681 614.078 431.908L613.534 434.356C613.262 434.265 613.012 434.197 612.786 434.152C612.559 434.107 612.276 434.084 611.936 434.084C611.233 434.084 610.496 434.367 609.726 434.934C608.978 435.501 608.32 436.487 607.754 437.892V448.5H604.966ZM617.888 455.606C617.525 455.606 617.174 455.572 616.834 455.504C616.517 455.436 616.222 455.357 615.95 455.266L616.494 453.056C616.675 453.101 616.879 453.147 617.106 453.192C617.333 453.26 617.548 453.294 617.752 453.294C618.681 453.294 619.452 452.954 620.064 452.274C620.676 451.617 621.152 450.778 621.492 449.758L621.866 448.534L615.236 431.976H618.126L621.492 441.122C621.741 441.825 622.002 442.584 622.274 443.4C622.569 444.216 622.841 445.009 623.09 445.78H623.226C623.475 445.032 623.713 444.25 623.94 443.434C624.167 442.618 624.393 441.847 624.62 441.122L627.578 431.976H630.298L624.076 449.86C623.691 450.948 623.226 451.923 622.682 452.784C622.161 453.645 621.503 454.325 620.71 454.824C619.939 455.345 618.999 455.606 617.888 455.606ZM643.252 448.908C642.209 448.908 641.45 448.591 640.974 447.956C640.521 447.299 640.294 446.369 640.294 445.168V424.292H643.082V445.372C643.082 445.803 643.161 446.12 643.32 446.324C643.479 446.505 643.66 446.596 643.864 446.596C643.955 446.596 644.034 446.596 644.102 446.596C644.193 446.573 644.317 446.551 644.476 446.528L644.85 448.636C644.669 448.727 644.453 448.795 644.204 448.84C643.955 448.885 643.637 448.908 643.252 448.908ZM652.768 448.908C651.385 448.908 650.229 448.5 649.3 447.684C648.393 446.845 647.94 445.689 647.94 444.216C647.94 442.403 648.745 441.02 650.354 440.068C651.986 439.093 654.559 438.413 658.072 438.028C658.072 437.325 657.97 436.657 657.766 436.022C657.585 435.387 657.245 434.877 656.746 434.492C656.27 434.084 655.579 433.88 654.672 433.88C653.72 433.88 652.825 434.061 651.986 434.424C651.147 434.787 650.399 435.195 649.742 435.648L648.654 433.71C649.425 433.211 650.365 432.735 651.476 432.282C652.609 431.806 653.833 431.568 655.148 431.568C657.165 431.568 658.627 432.191 659.534 433.438C660.441 434.662 660.894 436.305 660.894 438.368V448.5H658.582L658.344 446.528H658.242C657.471 447.163 656.621 447.718 655.692 448.194C654.785 448.67 653.811 448.908 652.768 448.908ZM653.584 446.664C654.377 446.664 655.125 446.471 655.828 446.086C656.531 445.701 657.279 445.157 658.072 444.454V439.864C655.329 440.204 653.403 440.714 652.292 441.394C651.204 442.074 650.66 442.947 650.66 444.012C650.66 444.941 650.943 445.621 651.51 446.052C652.077 446.46 652.768 446.664 653.584 446.664ZM666.093 448.5V431.976H668.405L668.643 434.968H668.745C669.311 433.925 670.003 433.098 670.819 432.486C671.635 431.874 672.507 431.568 673.437 431.568C674.094 431.568 674.683 431.681 675.205 431.908L674.661 434.356C674.389 434.265 674.139 434.197 673.913 434.152C673.686 434.107 673.403 434.084 673.063 434.084C672.36 434.084 671.623 434.367 670.853 434.934C670.105 435.501 669.447 436.487 668.881 437.892V448.5H666.093ZM683.124 456.116C681.106 456.116 679.463 455.731 678.194 454.96C676.924 454.189 676.29 453.09 676.29 451.662C676.29 450.959 676.505 450.279 676.936 449.622C677.366 448.987 677.956 448.421 678.704 447.922V447.786C678.296 447.537 677.944 447.185 677.65 446.732C677.378 446.279 677.242 445.735 677.242 445.1C677.242 444.397 677.434 443.785 677.82 443.264C678.205 442.743 678.613 442.335 679.044 442.04V441.904C678.5 441.451 678.001 440.839 677.548 440.068C677.117 439.297 676.902 438.425 676.902 437.45C676.902 436.249 677.185 435.206 677.752 434.322C678.318 433.438 679.078 432.758 680.03 432.282C680.982 431.806 682.013 431.568 683.124 431.568C683.577 431.568 684.008 431.613 684.416 431.704C684.824 431.772 685.175 431.863 685.47 431.976H691.216V434.118H687.816C688.201 434.481 688.518 434.968 688.768 435.58C689.04 436.169 689.176 436.815 689.176 437.518C689.176 438.697 688.904 439.717 688.36 440.578C687.816 441.439 687.09 442.108 686.184 442.584C685.277 443.037 684.257 443.264 683.124 443.264C682.24 443.264 681.412 443.071 680.642 442.686C680.347 442.935 680.098 443.219 679.894 443.536C679.69 443.831 679.588 444.205 679.588 444.658C679.588 445.179 679.792 445.61 680.2 445.95C680.63 446.29 681.401 446.46 682.512 446.46H685.708C687.634 446.46 689.074 446.777 690.026 447.412C691 448.024 691.488 449.021 691.488 450.404C691.488 451.424 691.148 452.365 690.468 453.226C689.788 454.087 688.824 454.779 687.578 455.3C686.331 455.844 684.846 456.116 683.124 456.116ZM683.124 441.394C684.076 441.394 684.892 441.043 685.572 440.34C686.274 439.615 686.626 438.651 686.626 437.45C686.626 436.249 686.286 435.308 685.606 434.628C684.926 433.948 684.098 433.608 683.124 433.608C682.149 433.608 681.322 433.948 680.642 434.628C679.962 435.308 679.622 436.249 679.622 437.45C679.622 438.651 679.962 439.615 680.642 440.34C681.344 441.043 682.172 441.394 683.124 441.394ZM683.532 454.178C685.118 454.178 686.388 453.827 687.34 453.124C688.292 452.444 688.768 451.673 688.768 450.812C688.768 450.041 688.473 449.509 687.884 449.214C687.317 448.919 686.501 448.772 685.436 448.772H682.58C682.262 448.772 681.911 448.749 681.526 448.704C681.163 448.659 680.8 448.591 680.438 448.5C679.848 448.931 679.418 449.384 679.146 449.86C678.874 450.336 678.738 450.812 678.738 451.288C678.738 452.172 679.157 452.875 679.996 453.396C680.857 453.917 682.036 454.178 683.532 454.178ZM700.914 448.908C699.44 448.908 698.103 448.568 696.902 447.888C695.7 447.185 694.748 446.188 694.046 444.896C693.343 443.604 692.992 442.063 692.992 440.272C692.992 438.459 693.343 436.906 694.046 435.614C694.771 434.322 695.7 433.325 696.834 432.622C697.967 431.919 699.157 431.568 700.404 431.568C702.512 431.568 704.132 432.271 705.266 433.676C706.422 435.081 707 436.963 707 439.32C707 439.615 706.988 439.909 706.966 440.204C706.966 440.476 706.943 440.714 706.898 440.918H695.746C695.859 442.663 696.403 444.057 697.378 445.1C698.375 446.143 699.667 446.664 701.254 446.664C702.047 446.664 702.772 446.551 703.43 446.324C704.11 446.075 704.756 445.757 705.368 445.372L706.354 447.208C705.651 447.661 704.846 448.058 703.94 448.398C703.056 448.738 702.047 448.908 700.914 448.908ZM695.712 438.912H704.552C704.552 437.235 704.189 435.965 703.464 435.104C702.761 434.22 701.764 433.778 700.472 433.778C699.316 433.778 698.273 434.231 697.344 435.138C696.437 436.022 695.893 437.28 695.712 438.912ZM724.418 448.908C722.967 448.908 721.652 448.568 720.474 447.888C719.295 447.208 718.366 446.222 717.686 444.93C717.006 443.638 716.666 442.085 716.666 440.272C716.666 438.413 717.028 436.838 717.754 435.546C718.502 434.254 719.476 433.268 720.678 432.588C721.902 431.908 723.216 431.568 724.622 431.568C725.71 431.568 726.639 431.761 727.41 432.146C728.203 432.531 728.883 432.985 729.45 433.506L728.022 435.342C727.546 434.911 727.036 434.56 726.492 434.288C725.97 434.016 725.381 433.88 724.724 433.88C723.726 433.88 722.831 434.152 722.038 434.696C721.267 435.217 720.655 435.965 720.202 436.94C719.771 437.892 719.556 439.003 719.556 440.272C719.556 442.153 720.02 443.683 720.95 444.862C721.902 446.018 723.137 446.596 724.656 446.596C725.426 446.596 726.14 446.437 726.798 446.12C727.455 445.78 728.033 445.383 728.532 444.93L729.756 446.8C729.008 447.457 728.18 447.979 727.274 448.364C726.367 448.727 725.415 448.908 724.418 448.908ZM739.091 448.908C737.754 448.908 736.496 448.568 735.317 447.888C734.161 447.208 733.22 446.222 732.495 444.93C731.792 443.638 731.441 442.085 731.441 440.272C731.441 438.413 731.792 436.838 732.495 435.546C733.22 434.254 734.161 433.268 735.317 432.588C736.496 431.908 737.754 431.568 739.091 431.568C740.451 431.568 741.709 431.908 742.865 432.588C744.021 433.268 744.95 434.254 745.653 435.546C746.378 436.838 746.741 438.413 746.741 440.272C746.741 442.085 746.378 443.638 745.653 444.93C744.95 446.222 744.021 447.208 742.865 447.888C741.709 448.568 740.451 448.908 739.091 448.908ZM739.091 446.596C740.519 446.596 741.664 446.018 742.525 444.862C743.409 443.683 743.851 442.153 743.851 440.272C743.851 438.368 743.409 436.827 742.525 435.648C741.664 434.469 740.519 433.88 739.091 433.88C737.686 433.88 736.541 434.469 735.657 435.648C734.773 436.827 734.331 438.368 734.331 440.272C734.331 442.153 734.773 443.683 735.657 444.862C736.541 446.018 737.686 446.596 739.091 446.596ZM751.093 448.5V431.976H753.405L753.643 434.968H753.745C754.311 433.925 755.003 433.098 755.819 432.486C756.635 431.874 757.507 431.568 758.437 431.568C759.094 431.568 759.683 431.681 760.205 431.908L759.661 434.356C759.389 434.265 759.139 434.197 758.913 434.152C758.686 434.107 758.403 434.084 758.063 434.084C757.36 434.084 756.623 434.367 755.853 434.934C755.105 435.501 754.447 436.487 753.881 437.892V448.5H751.093ZM762.88 455.47V431.976H765.192L765.43 433.88H765.532C766.28 433.245 767.096 432.701 767.98 432.248C768.886 431.795 769.827 431.568 770.802 431.568C772.932 431.568 774.553 432.339 775.664 433.88C776.774 435.399 777.33 437.439 777.33 440C777.33 441.859 776.99 443.457 776.31 444.794C775.652 446.131 774.78 447.151 773.692 447.854C772.626 448.557 771.459 448.908 770.19 448.908C769.419 448.908 768.648 448.738 767.878 448.398C767.13 448.058 766.37 447.593 765.6 447.004L765.668 449.894V455.47H762.88ZM769.714 446.562C771.074 446.562 772.196 445.984 773.08 444.828C773.986 443.649 774.44 442.04 774.44 440C774.44 438.187 774.1 436.725 773.42 435.614C772.762 434.481 771.652 433.914 770.088 433.914C769.385 433.914 768.671 434.107 767.946 434.492C767.243 434.877 766.484 435.433 765.668 436.158V444.828C766.416 445.463 767.141 445.916 767.844 446.188C768.546 446.437 769.17 446.562 769.714 446.562ZM786.567 448.908C784.822 448.908 783.541 448.364 782.725 447.276C781.909 446.165 781.501 444.556 781.501 442.448V431.976H784.323V442.074C784.323 443.615 784.561 444.737 785.037 445.44C785.536 446.143 786.329 446.494 787.417 446.494C788.279 446.494 789.038 446.279 789.695 445.848C790.375 445.395 791.101 444.681 791.871 443.706V431.976H794.659V448.5H792.347L792.109 445.916H792.007C791.237 446.823 790.421 447.548 789.559 448.092C788.698 448.636 787.701 448.908 786.567 448.908ZM804.551 448.908C803.373 448.908 802.251 448.693 801.185 448.262C800.12 447.809 799.191 447.265 798.397 446.63L799.791 444.76C800.517 445.327 801.265 445.803 802.035 446.188C802.806 446.551 803.679 446.732 804.653 446.732C805.741 446.732 806.557 446.483 807.101 445.984C807.645 445.463 807.917 444.851 807.917 444.148C807.917 443.581 807.725 443.105 807.339 442.72C806.977 442.335 806.501 442.017 805.911 441.768C805.345 441.496 804.755 441.247 804.143 441.02C803.373 440.725 802.613 440.397 801.865 440.034C801.117 439.649 800.505 439.161 800.029 438.572C799.553 437.96 799.315 437.189 799.315 436.26C799.315 434.923 799.814 433.812 800.811 432.928C801.831 432.021 803.237 431.568 805.027 431.568C806.047 431.568 806.999 431.749 807.883 432.112C808.767 432.475 809.527 432.917 810.161 433.438L808.801 435.206C808.235 434.775 807.645 434.424 807.033 434.152C806.421 433.88 805.753 433.744 805.027 433.744C803.985 433.744 803.214 433.982 802.715 434.458C802.239 434.934 802.001 435.489 802.001 436.124C802.001 436.645 802.171 437.076 802.511 437.416C802.851 437.733 803.293 438.017 803.837 438.266C804.381 438.493 804.959 438.731 805.571 438.98C806.365 439.275 807.147 439.615 807.917 440C808.688 440.363 809.323 440.861 809.821 441.496C810.343 442.108 810.603 442.935 810.603 443.978C810.603 444.862 810.365 445.678 809.889 446.426C809.436 447.174 808.756 447.775 807.849 448.228C806.965 448.681 805.866 448.908 804.551 448.908Z" fill="black"/>
<rect x="500.5" y="374.5" width="379" height="123" rx="11.5" stroke="#FFDFCA"/>
<rect x="934.5" y="374.5" width="379" height="123" rx="11.5" fill="#FFF3EB"/>
<path d="M1016.68 448.5V426.196H1022.25C1025.7 426.196 1028.32 427.159 1030.11 429.086C1031.9 430.99 1032.79 433.71 1032.79 437.246C1032.79 440.805 1031.9 443.57 1030.11 445.542C1028.34 447.514 1025.77 448.5 1022.39 448.5H1016.68ZM1019.5 446.188H1022.05C1024.65 446.188 1026.6 445.406 1027.9 443.842C1029.21 442.255 1029.87 440.057 1029.87 437.246C1029.87 434.435 1029.21 432.282 1027.9 430.786C1026.6 429.267 1024.65 428.508 1022.05 428.508H1019.5V446.188ZM1041.13 448.908C1039.75 448.908 1038.59 448.5 1037.66 447.684C1036.76 446.845 1036.3 445.689 1036.3 444.216C1036.3 442.403 1037.11 441.02 1038.72 440.068C1040.35 439.093 1042.92 438.413 1046.43 438.028C1046.43 437.325 1046.33 436.657 1046.13 436.022C1045.95 435.387 1045.61 434.877 1045.11 434.492C1044.63 434.084 1043.94 433.88 1043.03 433.88C1042.08 433.88 1041.19 434.061 1040.35 434.424C1039.51 434.787 1038.76 435.195 1038.1 435.648L1037.02 433.71C1037.79 433.211 1038.73 432.735 1039.84 432.282C1040.97 431.806 1042.2 431.568 1043.51 431.568C1045.53 431.568 1046.99 432.191 1047.9 433.438C1048.8 434.662 1049.26 436.305 1049.26 438.368V448.5H1046.94L1046.71 446.528H1046.6C1045.83 447.163 1044.98 447.718 1044.05 448.194C1043.15 448.67 1042.17 448.908 1041.13 448.908ZM1041.95 446.664C1042.74 446.664 1043.49 446.471 1044.19 446.086C1044.89 445.701 1045.64 445.157 1046.43 444.454V439.864C1043.69 440.204 1041.76 440.714 1040.65 441.394C1039.57 442.074 1039.02 442.947 1039.02 444.012C1039.02 444.941 1039.31 445.621 1039.87 446.052C1040.44 446.46 1041.13 446.664 1041.95 446.664ZM1054.73 455.606C1054.36 455.606 1054.01 455.572 1053.67 455.504C1053.36 455.436 1053.06 455.357 1052.79 455.266L1053.33 453.056C1053.51 453.101 1053.72 453.147 1053.94 453.192C1054.17 453.26 1054.39 453.294 1054.59 453.294C1055.52 453.294 1056.29 452.954 1056.9 452.274C1057.51 451.617 1057.99 450.778 1058.33 449.758L1058.7 448.534L1052.07 431.976H1054.96L1058.33 441.122C1058.58 441.825 1058.84 442.584 1059.11 443.4C1059.41 444.216 1059.68 445.009 1059.93 445.78H1060.06C1060.31 445.032 1060.55 444.25 1060.78 443.434C1061.01 442.618 1061.23 441.847 1061.46 441.122L1064.42 431.976H1067.14L1060.91 449.86C1060.53 450.948 1060.06 451.923 1059.52 452.784C1059 453.645 1058.34 454.325 1057.55 454.824C1056.78 455.345 1055.84 455.606 1054.73 455.606ZM1074.64 448.908C1073.47 448.908 1072.34 448.693 1071.28 448.262C1070.21 447.809 1069.28 447.265 1068.49 446.63L1069.88 444.76C1070.61 445.327 1071.36 445.803 1072.13 446.188C1072.9 446.551 1073.77 446.732 1074.75 446.732C1075.83 446.732 1076.65 446.483 1077.19 445.984C1077.74 445.463 1078.01 444.851 1078.01 444.148C1078.01 443.581 1077.82 443.105 1077.43 442.72C1077.07 442.335 1076.59 442.017 1076 441.768C1075.44 441.496 1074.85 441.247 1074.24 441.02C1073.47 440.725 1072.71 440.397 1071.96 440.034C1071.21 439.649 1070.6 439.161 1070.12 438.572C1069.65 437.96 1069.41 437.189 1069.41 436.26C1069.41 434.923 1069.91 433.812 1070.9 432.928C1071.92 432.021 1073.33 431.568 1075.12 431.568C1076.14 431.568 1077.09 431.749 1077.98 432.112C1078.86 432.475 1079.62 432.917 1080.25 433.438L1078.89 435.206C1078.33 434.775 1077.74 434.424 1077.13 434.152C1076.51 433.88 1075.85 433.744 1075.12 433.744C1074.08 433.744 1073.31 433.982 1072.81 434.458C1072.33 434.934 1072.09 435.489 1072.09 436.124C1072.09 436.645 1072.26 437.076 1072.6 437.416C1072.94 437.733 1073.39 438.017 1073.93 438.266C1074.47 438.493 1075.05 438.731 1075.66 438.98C1076.46 439.275 1077.24 439.615 1078.01 440C1078.78 440.363 1079.42 440.861 1079.91 441.496C1080.44 442.108 1080.7 442.935 1080.7 443.978C1080.7 444.862 1080.46 445.678 1079.98 446.426C1079.53 447.174 1078.85 447.775 1077.94 448.228C1077.06 448.681 1075.96 448.908 1074.64 448.908ZM1097.8 448.908C1096.47 448.908 1095.21 448.568 1094.03 447.888C1092.87 447.208 1091.93 446.222 1091.21 444.93C1090.5 443.638 1090.15 442.085 1090.15 440.272C1090.15 438.413 1090.5 436.838 1091.21 435.546C1091.93 434.254 1092.87 433.268 1094.03 432.588C1095.21 431.908 1096.47 431.568 1097.8 431.568C1099.16 431.568 1100.42 431.908 1101.58 432.588C1102.73 433.268 1103.66 434.254 1104.36 435.546C1105.09 436.838 1105.45 438.413 1105.45 440.272C1105.45 442.085 1105.09 443.638 1104.36 444.93C1103.66 446.222 1102.73 447.208 1101.58 447.888C1100.42 448.568 1099.16 448.908 1097.8 448.908ZM1097.8 446.596C1099.23 446.596 1100.38 446.018 1101.24 444.862C1102.12 443.683 1102.56 442.153 1102.56 440.272C1102.56 438.368 1102.12 436.827 1101.24 435.648C1100.38 434.469 1099.23 433.88 1097.8 433.88C1096.4 433.88 1095.25 434.469 1094.37 435.648C1093.48 436.827 1093.04 438.368 1093.04 440.272C1093.04 442.153 1093.48 443.683 1094.37 444.862C1095.25 446.018 1096.4 446.596 1097.8 446.596ZM1110.28 448.5V434.254H1108.04V432.146L1110.28 431.976V429.358C1110.28 427.681 1110.67 426.355 1111.44 425.38C1112.23 424.383 1113.45 423.884 1115.11 423.884C1115.63 423.884 1116.13 423.941 1116.6 424.054C1117.08 424.145 1117.5 424.269 1117.86 424.428L1117.25 426.57C1116.64 426.298 1116.02 426.162 1115.38 426.162C1113.84 426.162 1113.07 427.227 1113.07 429.358V431.976H1116.57V434.254H1113.07V448.5H1110.28ZM1131.74 448.908C1129.97 448.908 1128.74 448.398 1128.03 447.378C1127.35 446.358 1127.01 445.032 1127.01 443.4V434.254H1124.57V432.146L1127.15 431.976L1127.49 427.352H1129.84V431.976H1134.29V434.254H1129.84V443.434C1129.84 444.454 1130.02 445.247 1130.38 445.814C1130.77 446.358 1131.43 446.63 1132.39 446.63C1132.68 446.63 1133 446.585 1133.34 446.494C1133.68 446.381 1133.98 446.279 1134.26 446.188L1134.8 448.296C1134.35 448.455 1133.85 448.591 1133.3 448.704C1132.78 448.84 1132.26 448.908 1131.74 448.908ZM1138.03 448.5V431.976H1140.34L1140.58 434.968H1140.68C1141.25 433.925 1141.94 433.098 1142.75 432.486C1143.57 431.874 1144.44 431.568 1145.37 431.568C1146.03 431.568 1146.62 431.681 1147.14 431.908L1146.6 434.356C1146.32 434.265 1146.07 434.197 1145.85 434.152C1145.62 434.107 1145.34 434.084 1145 434.084C1144.29 434.084 1143.56 434.367 1142.79 434.934C1142.04 435.501 1141.38 436.487 1140.82 437.892V448.5H1138.03ZM1152.79 448.908C1151.41 448.908 1150.25 448.5 1149.32 447.684C1148.42 446.845 1147.96 445.689 1147.96 444.216C1147.96 442.403 1148.77 441.02 1150.38 440.068C1152.01 439.093 1154.58 438.413 1158.1 438.028C1158.1 437.325 1157.99 436.657 1157.79 436.022C1157.61 435.387 1157.27 434.877 1156.77 434.492C1156.29 434.084 1155.6 433.88 1154.7 433.88C1153.74 433.88 1152.85 434.061 1152.01 434.424C1151.17 434.787 1150.42 435.195 1149.77 435.648L1148.68 433.71C1149.45 433.211 1150.39 432.735 1151.5 432.282C1152.63 431.806 1153.86 431.568 1155.17 431.568C1157.19 431.568 1158.65 432.191 1159.56 433.438C1160.46 434.662 1160.92 436.305 1160.92 438.368V448.5H1158.61L1158.37 446.528H1158.27C1157.5 447.163 1156.65 447.718 1155.72 448.194C1154.81 448.67 1153.83 448.908 1152.79 448.908ZM1153.61 446.664C1154.4 446.664 1155.15 446.471 1155.85 446.086C1156.55 445.701 1157.3 445.157 1158.1 444.454V439.864C1155.35 440.204 1153.43 440.714 1152.32 441.394C1151.23 442.074 1150.68 442.947 1150.68 444.012C1150.68 444.941 1150.97 445.621 1151.53 446.052C1152.1 446.46 1152.79 446.664 1153.61 446.664ZM1166.12 448.5V431.976H1168.91V448.5H1166.12ZM1167.55 428.576C1167 428.576 1166.55 428.417 1166.19 428.1C1165.85 427.76 1165.68 427.307 1165.68 426.74C1165.68 426.196 1165.85 425.754 1166.19 425.414C1166.55 425.074 1167 424.904 1167.55 424.904C1168.09 424.904 1168.53 425.074 1168.87 425.414C1169.23 425.754 1169.42 426.196 1169.42 426.74C1169.42 427.307 1169.23 427.76 1168.87 428.1C1168.53 428.417 1168.09 428.576 1167.55 428.576ZM1174.48 448.5V431.976H1176.8L1177.03 434.356H1177.14C1177.93 433.563 1178.77 432.905 1179.65 432.384C1180.54 431.84 1181.54 431.568 1182.68 431.568C1184.42 431.568 1185.69 432.123 1186.49 433.234C1187.3 434.322 1187.71 435.92 1187.71 438.028V448.5H1184.92V438.402C1184.92 436.861 1184.67 435.739 1184.17 435.036C1183.68 434.333 1182.88 433.982 1181.79 433.982C1180.96 433.982 1180.2 434.197 1179.52 434.628C1178.86 435.059 1178.11 435.693 1177.27 436.532V448.5H1174.48ZM1193.08 448.5V431.976H1195.87V448.5H1193.08ZM1194.51 428.576C1193.96 428.576 1193.51 428.417 1193.15 428.1C1192.81 427.76 1192.64 427.307 1192.64 426.74C1192.64 426.196 1192.81 425.754 1193.15 425.414C1193.51 425.074 1193.96 424.904 1194.51 424.904C1195.05 424.904 1195.49 425.074 1195.83 425.414C1196.19 425.754 1196.38 426.196 1196.38 426.74C1196.38 427.307 1196.19 427.76 1195.83 428.1C1195.49 428.417 1195.05 428.576 1194.51 428.576ZM1201.45 448.5V431.976H1203.76L1204 434.356H1204.1C1204.89 433.563 1205.73 432.905 1206.61 432.384C1207.5 431.84 1208.51 431.568 1209.64 431.568C1211.38 431.568 1212.65 432.123 1213.45 433.234C1214.26 434.322 1214.67 435.92 1214.67 438.028V448.5H1211.88V438.402C1211.88 436.861 1211.63 435.739 1211.14 435.036C1210.64 434.333 1209.84 433.982 1208.76 433.982C1207.92 433.982 1207.16 434.197 1206.48 434.628C1205.82 435.059 1205.07 435.693 1204.23 436.532V448.5H1201.45ZM1225.61 456.116C1223.6 456.116 1221.95 455.731 1220.68 454.96C1219.42 454.189 1218.78 453.09 1218.78 451.662C1218.78 450.959 1219 450.279 1219.43 449.622C1219.86 448.987 1220.45 448.421 1221.19 447.922V447.786C1220.79 447.537 1220.44 447.185 1220.14 446.732C1219.87 446.279 1219.73 445.735 1219.73 445.1C1219.73 444.397 1219.93 443.785 1220.31 443.264C1220.7 442.743 1221.1 442.335 1221.53 442.04V441.904C1220.99 441.451 1220.49 440.839 1220.04 440.068C1219.61 439.297 1219.39 438.425 1219.39 437.45C1219.39 436.249 1219.68 435.206 1220.24 434.322C1220.81 433.438 1221.57 432.758 1222.52 432.282C1223.47 431.806 1224.5 431.568 1225.61 431.568C1226.07 431.568 1226.5 431.613 1226.91 431.704C1227.31 431.772 1227.67 431.863 1227.96 431.976H1233.71V434.118H1230.31C1230.69 434.481 1231.01 434.968 1231.26 435.58C1231.53 436.169 1231.67 436.815 1231.67 437.518C1231.67 438.697 1231.39 439.717 1230.85 440.578C1230.31 441.439 1229.58 442.108 1228.67 442.584C1227.77 443.037 1226.75 443.264 1225.61 443.264C1224.73 443.264 1223.9 443.071 1223.13 442.686C1222.84 442.935 1222.59 443.219 1222.38 443.536C1222.18 443.831 1222.08 444.205 1222.08 444.658C1222.08 445.179 1222.28 445.61 1222.69 445.95C1223.12 446.29 1223.89 446.46 1225 446.46H1228.2C1230.13 446.46 1231.56 446.777 1232.52 447.412C1233.49 448.024 1233.98 449.021 1233.98 450.404C1233.98 451.424 1233.64 452.365 1232.96 453.226C1232.28 454.087 1231.32 454.779 1230.07 455.3C1228.82 455.844 1227.34 456.116 1225.61 456.116ZM1225.61 441.394C1226.57 441.394 1227.38 441.043 1228.06 440.34C1228.77 439.615 1229.12 438.651 1229.12 437.45C1229.12 436.249 1228.78 435.308 1228.1 434.628C1227.42 433.948 1226.59 433.608 1225.61 433.608C1224.64 433.608 1223.81 433.948 1223.13 434.628C1222.45 435.308 1222.11 436.249 1222.11 437.45C1222.11 438.651 1222.45 439.615 1223.13 440.34C1223.84 441.043 1224.66 441.394 1225.61 441.394ZM1226.02 454.178C1227.61 454.178 1228.88 453.827 1229.83 453.124C1230.78 452.444 1231.26 451.673 1231.26 450.812C1231.26 450.041 1230.96 449.509 1230.37 449.214C1229.81 448.919 1228.99 448.772 1227.93 448.772H1225.07C1224.75 448.772 1224.4 448.749 1224.02 448.704C1223.65 448.659 1223.29 448.591 1222.93 448.5C1222.34 448.931 1221.91 449.384 1221.64 449.86C1221.36 450.336 1221.23 450.812 1221.23 451.288C1221.23 452.172 1221.65 452.875 1222.49 453.396C1223.35 453.917 1224.53 454.178 1226.02 454.178Z" fill="black"/>
<rect x="934.5" y="374.5" width="379" height="123" rx="11.5" stroke="#FFDFCA"/>
<path d="M691.061 259.939C690.475 259.354 689.525 259.354 688.939 259.939L679.393 269.485C678.808 270.071 678.808 271.021 679.393 271.607C679.979 272.192 680.929 272.192 681.515 271.607L690 263.121L698.485 271.607C699.071 272.192 700.021 272.192 700.607 271.607C701.192 271.021 701.192 270.071 700.607 269.485L691.061 259.939ZM691.5 360L691.5 261L688.5 261L688.5 360L691.5 360Z" fill="#B4B4B4"/>
<path d="M1125.06 259.939C1124.47 259.354 1123.53 259.354 1122.94 259.939L1113.39 269.485C1112.81 270.071 1112.81 271.021 1113.39 271.607C1113.98 272.192 1114.93 272.192 1115.51 271.607L1124 263.121L1132.49 271.607C1133.07 272.192 1134.02 272.192 1134.61 271.607C1135.19 271.021 1135.19 270.071 1134.61 269.485L1125.06 259.939ZM1125.5 360L1125.5 261L1122.5 261L1122.5 360L1125.5 360Z" fill="#B4B4B4"/>
</svg>
