<svg width="1816" height="1135" viewBox="0 0 1816 1135" fill="none" xmlns="http://www.w3.org/2000/svg">
<rect width="1816" height="1135" fill="white"/>
<rect x="584" y="426" width="296" height="550" rx="40" fill="#FFF6DF"/>
<path d="M666.635 715V688.76H681.755V691.56H669.955V699.8H679.915V702.64H669.955V712.16H682.155V715H666.635ZM687.409 715V695.56H690.129L690.409 698.36H690.529C691.462 697.427 692.449 696.653 693.489 696.04C694.529 695.4 695.716 695.08 697.049 695.08C699.102 695.08 700.596 695.733 701.529 697.04C702.489 698.32 702.969 700.2 702.969 702.68V715H699.689V703.12C699.689 701.307 699.396 699.987 698.809 699.16C698.222 698.333 697.289 697.92 696.009 697.92C695.022 697.92 694.129 698.173 693.329 698.68C692.556 699.187 691.676 699.933 690.689 700.92V715H687.409ZM716.964 715.48C715.257 715.48 713.711 715.08 712.324 714.28C710.937 713.48 709.844 712.32 709.044 710.8C708.244 709.28 707.844 707.453 707.844 705.32C707.844 703.133 708.271 701.28 709.124 699.76C710.004 698.24 711.151 697.08 712.564 696.28C714.004 695.48 715.551 695.08 717.204 695.08C718.484 695.08 719.577 695.307 720.484 695.76C721.417 696.213 722.217 696.747 722.884 697.36L721.204 699.52C720.644 699.013 720.044 698.6 719.404 698.28C718.791 697.96 718.097 697.8 717.324 697.8C716.151 697.8 715.097 698.12 714.164 698.76C713.257 699.373 712.537 700.253 712.004 701.4C711.497 702.52 711.244 703.827 711.244 705.32C711.244 707.533 711.791 709.333 712.884 710.72C714.004 712.08 715.457 712.76 717.244 712.76C718.151 712.76 718.991 712.573 719.764 712.2C720.537 711.8 721.217 711.333 721.804 710.8L723.244 713C722.364 713.773 721.391 714.387 720.324 714.84C719.257 715.267 718.137 715.48 716.964 715.48ZM734.227 715.48C732.653 715.48 731.173 715.08 729.787 714.28C728.427 713.48 727.32 712.32 726.467 710.8C725.64 709.28 725.227 707.453 725.227 705.32C725.227 703.133 725.64 701.28 726.467 699.76C727.32 698.24 728.427 697.08 729.787 696.28C731.173 695.48 732.653 695.08 734.227 695.08C735.827 695.08 737.307 695.48 738.667 696.28C740.027 697.08 741.12 698.24 741.947 699.76C742.8 701.28 743.227 703.133 743.227 705.32C743.227 707.453 742.8 709.28 741.947 710.8C741.12 712.32 740.027 713.48 738.667 714.28C737.307 715.08 735.827 715.48 734.227 715.48ZM734.227 712.76C735.907 712.76 737.253 712.08 738.267 710.72C739.307 709.333 739.827 707.533 739.827 705.32C739.827 703.08 739.307 701.267 738.267 699.88C737.253 698.493 735.907 697.8 734.227 697.8C732.573 697.8 731.227 698.493 730.187 699.88C729.147 701.267 728.627 703.08 728.627 705.32C728.627 707.533 729.147 709.333 730.187 710.72C731.227 712.08 732.573 712.76 734.227 712.76ZM754.986 715.48C752.56 715.48 750.613 714.6 749.146 712.84C747.68 711.053 746.946 708.547 746.946 705.32C746.946 703.213 747.333 701.4 748.106 699.88C748.906 698.333 749.946 697.147 751.226 696.32C752.533 695.493 753.92 695.08 755.386 695.08C756.506 695.08 757.48 695.28 758.306 695.68C759.133 696.08 759.973 696.627 760.826 697.32L760.666 694V686.52H763.986V715H761.266L760.986 712.72H760.866C760.12 713.467 759.24 714.12 758.226 714.68C757.213 715.213 756.133 715.48 754.986 715.48ZM755.706 712.72C757.413 712.72 759.066 711.827 760.666 710.04V699.88C759.84 699.133 759.04 698.613 758.266 698.32C757.52 698 756.746 697.84 755.946 697.84C754.906 697.84 753.96 698.16 753.106 698.8C752.28 699.413 751.613 700.28 751.106 701.4C750.6 702.493 750.346 703.787 750.346 705.28C750.346 707.6 750.813 709.427 751.746 710.76C752.68 712.067 754 712.72 755.706 712.72ZM778.414 715.48C776.681 715.48 775.107 715.08 773.694 714.28C772.281 713.453 771.161 712.28 770.334 710.76C769.507 709.24 769.094 707.427 769.094 705.32C769.094 703.187 769.507 701.36 770.334 699.84C771.187 698.32 772.281 697.147 773.614 696.32C774.947 695.493 776.347 695.08 777.814 695.08C780.294 695.08 782.201 695.907 783.534 697.56C784.894 699.213 785.574 701.427 785.574 704.2C785.574 704.547 785.561 704.893 785.534 705.24C785.534 705.56 785.507 705.84 785.454 706.08H772.334C772.467 708.133 773.107 709.773 774.254 711C775.427 712.227 776.947 712.84 778.814 712.84C779.747 712.84 780.601 712.707 781.374 712.44C782.174 712.147 782.934 711.773 783.654 711.32L784.814 713.48C783.987 714.013 783.041 714.48 781.974 714.88C780.934 715.28 779.747 715.48 778.414 715.48ZM772.294 703.72H782.694C782.694 701.747 782.267 700.253 781.414 699.24C780.587 698.2 779.414 697.68 777.894 697.68C776.534 697.68 775.307 698.213 774.214 699.28C773.147 700.32 772.507 701.8 772.294 703.72ZM790.378 715V695.56H793.098L793.378 699.08H793.498C794.164 697.853 794.978 696.88 795.938 696.16C796.898 695.44 797.924 695.08 799.018 695.08C799.791 695.08 800.484 695.213 801.098 695.48L800.458 698.36C800.138 698.253 799.844 698.173 799.578 698.12C799.311 698.067 798.978 698.04 798.578 698.04C797.751 698.04 796.884 698.373 795.978 699.04C795.098 699.707 794.324 700.867 793.658 702.52V715H790.378Z" fill="black"/>
<path d="M732.707 997.293C732.317 996.902 731.683 996.902 731.293 997.293L724.929 1003.66C724.538 1004.05 724.538 1004.68 724.929 1005.07C725.319 1005.46 725.953 1005.46 726.343 1005.07L732 999.414L737.657 1005.07C738.047 1005.46 738.681 1005.46 739.071 1005.07C739.462 1004.68 739.462 1004.05 739.071 1003.66L732.707 997.293ZM733 1028L733 998L731 998L731 1028L733 1028Z" fill="black"/>
<path d="M696.846 1064V1045.63H699.17V1064H696.846ZM703.978 1064V1050.39H705.882L706.078 1052.35H706.162C706.815 1051.7 707.506 1051.16 708.234 1050.73C708.962 1050.28 709.792 1050.06 710.726 1050.06C712.163 1050.06 713.208 1050.51 713.862 1051.43C714.534 1052.32 714.87 1053.64 714.87 1055.38V1064H712.574V1055.68C712.574 1054.41 712.368 1053.49 711.958 1052.91C711.547 1052.33 710.894 1052.04 709.998 1052.04C709.307 1052.04 708.682 1052.22 708.122 1052.58C707.58 1052.93 706.964 1053.45 706.274 1054.14V1064H703.978ZM719.29 1069.74V1050.39H721.194L721.39 1051.96H721.474C722.09 1051.44 722.762 1050.99 723.49 1050.62C724.237 1050.24 725.011 1050.06 725.814 1050.06C727.569 1050.06 728.903 1050.69 729.818 1051.96C730.733 1053.21 731.19 1054.89 731.19 1057C731.19 1058.53 730.91 1059.85 730.35 1060.95C729.809 1062.05 729.09 1062.89 728.194 1063.47C727.317 1064.05 726.355 1064.34 725.31 1064.34C724.675 1064.34 724.041 1064.2 723.406 1063.92C722.79 1063.64 722.165 1063.25 721.53 1062.77L721.586 1065.15V1069.74H719.29ZM724.918 1062.4C726.038 1062.4 726.962 1061.93 727.69 1060.98C728.437 1060.01 728.81 1058.68 728.81 1057C728.81 1055.51 728.53 1054.3 727.97 1053.39C727.429 1052.45 726.514 1051.99 725.226 1051.99C724.647 1051.99 724.059 1052.15 723.462 1052.46C722.883 1052.78 722.258 1053.24 721.586 1053.84V1060.98C722.202 1061.5 722.799 1061.87 723.378 1062.1C723.957 1062.3 724.47 1062.4 724.918 1062.4ZM738.797 1064.34C737.36 1064.34 736.305 1063.89 735.633 1062.99C734.961 1062.08 734.625 1060.75 734.625 1059.02V1050.39H736.949V1058.71C736.949 1059.98 737.145 1060.9 737.537 1061.48C737.948 1062.06 738.601 1062.35 739.497 1062.35C740.207 1062.35 740.832 1062.17 741.373 1061.82C741.933 1061.44 742.531 1060.85 743.165 1060.05V1050.39H745.461V1064H743.557L743.361 1061.87H743.277C742.643 1062.62 741.971 1063.22 741.261 1063.66C740.552 1064.11 739.731 1064.34 738.797 1064.34ZM754.336 1064.34C752.88 1064.34 751.863 1063.92 751.284 1063.08C750.724 1062.24 750.444 1061.14 750.444 1059.8V1052.27H748.428V1050.53L750.556 1050.39L750.836 1046.58H752.768V1050.39H756.436V1052.27H752.768V1059.83C752.768 1060.67 752.917 1061.32 753.216 1061.79C753.533 1062.24 754.084 1062.46 754.868 1062.46C755.111 1062.46 755.372 1062.42 755.652 1062.35C755.932 1062.25 756.184 1062.17 756.408 1062.1L756.856 1063.83C756.483 1063.96 756.072 1064.07 755.624 1064.17C755.195 1064.28 754.765 1064.34 754.336 1064.34ZM762.795 1064.34C761.825 1064.34 760.901 1064.16 760.023 1063.8C759.146 1063.43 758.381 1062.98 757.727 1062.46L758.875 1060.92C759.473 1061.39 760.089 1061.78 760.723 1062.1C761.358 1062.39 762.077 1062.54 762.879 1062.54C763.775 1062.54 764.447 1062.34 764.895 1061.93C765.343 1061.5 765.567 1060.99 765.567 1060.42C765.567 1059.95 765.409 1059.56 765.091 1059.24C764.793 1058.92 764.401 1058.66 763.915 1058.46C763.449 1058.23 762.963 1058.03 762.459 1057.84C761.825 1057.6 761.199 1057.33 760.583 1057.03C759.967 1056.71 759.463 1056.31 759.071 1055.82C758.679 1055.32 758.483 1054.69 758.483 1053.92C758.483 1052.82 758.894 1051.9 759.715 1051.18C760.555 1050.43 761.713 1050.06 763.187 1050.06C764.027 1050.06 764.811 1050.21 765.539 1050.5C766.267 1050.8 766.893 1051.17 767.415 1051.6L766.295 1053.05C765.829 1052.7 765.343 1052.41 764.839 1052.18C764.335 1051.96 763.785 1051.85 763.187 1051.85C762.329 1051.85 761.694 1052.04 761.283 1052.44C760.891 1052.83 760.695 1053.29 760.695 1053.81C760.695 1054.24 760.835 1054.59 761.115 1054.87C761.395 1055.13 761.759 1055.37 762.207 1055.57C762.655 1055.76 763.131 1055.95 763.635 1056.16C764.289 1056.4 764.933 1056.68 765.567 1057C766.202 1057.3 766.725 1057.71 767.135 1058.23C767.565 1058.74 767.779 1059.42 767.779 1060.28C767.779 1061 767.583 1061.68 767.191 1062.29C766.818 1062.91 766.258 1063.4 765.511 1063.78C764.783 1064.15 763.878 1064.34 762.795 1064.34Z" fill="black"/>
<rect x="936" y="123" width="296" height="853" rx="40" fill="#FFF6DF"/>
<path d="M1017.89 563.5V537.26H1024.45C1028.51 537.26 1031.59 538.393 1033.69 540.66C1035.8 542.9 1036.85 546.1 1036.85 550.26C1036.85 554.447 1035.8 557.7 1033.69 560.02C1031.61 562.34 1028.59 563.5 1024.61 563.5H1017.89ZM1021.21 560.78H1024.21C1027.28 560.78 1029.57 559.86 1031.09 558.02C1032.64 556.153 1033.41 553.567 1033.41 550.26C1033.41 546.953 1032.64 544.42 1031.09 542.66C1029.57 540.873 1027.28 539.98 1024.21 539.98H1021.21V560.78ZM1050.06 563.98C1048.33 563.98 1046.76 563.58 1045.34 562.78C1043.93 561.953 1042.81 560.78 1041.98 559.26C1041.16 557.74 1040.74 555.927 1040.74 553.82C1040.74 551.687 1041.16 549.86 1041.98 548.34C1042.84 546.82 1043.93 545.647 1045.26 544.82C1046.6 543.993 1048 543.58 1049.46 543.58C1051.94 543.58 1053.85 544.407 1055.18 546.06C1056.54 547.713 1057.22 549.927 1057.22 552.7C1057.22 553.047 1057.21 553.393 1057.18 553.74C1057.18 554.06 1057.16 554.34 1057.1 554.58H1043.98C1044.12 556.633 1044.76 558.273 1045.9 559.5C1047.08 560.727 1048.6 561.34 1050.46 561.34C1051.4 561.34 1052.25 561.207 1053.02 560.94C1053.82 560.647 1054.58 560.273 1055.3 559.82L1056.46 561.98C1055.64 562.513 1054.69 562.98 1053.62 563.38C1052.58 563.78 1051.4 563.98 1050.06 563.98ZM1043.94 552.22H1054.34C1054.34 550.247 1053.92 548.753 1053.06 547.74C1052.24 546.7 1051.06 546.18 1049.54 546.18C1048.18 546.18 1046.96 546.713 1045.86 547.78C1044.8 548.82 1044.16 550.3 1043.94 552.22ZM1069.71 563.98C1068 563.98 1066.45 563.58 1065.07 562.78C1063.68 561.98 1062.59 560.82 1061.79 559.3C1060.99 557.78 1060.59 555.953 1060.59 553.82C1060.59 551.633 1061.01 549.78 1061.87 548.26C1062.75 546.74 1063.89 545.58 1065.31 544.78C1066.75 543.98 1068.29 543.58 1069.95 543.58C1071.23 543.58 1072.32 543.807 1073.23 544.26C1074.16 544.713 1074.96 545.247 1075.63 545.86L1073.95 548.02C1073.39 547.513 1072.79 547.1 1072.15 546.78C1071.53 546.46 1070.84 546.3 1070.07 546.3C1068.89 546.3 1067.84 546.62 1066.91 547.26C1066 547.873 1065.28 548.753 1064.75 549.9C1064.24 551.02 1063.99 552.327 1063.99 553.82C1063.99 556.033 1064.53 557.833 1065.63 559.22C1066.75 560.58 1068.2 561.26 1069.99 561.26C1070.89 561.26 1071.73 561.073 1072.51 560.7C1073.28 560.3 1073.96 559.833 1074.55 559.3L1075.99 561.5C1075.11 562.273 1074.13 562.887 1073.07 563.34C1072 563.767 1070.88 563.98 1069.71 563.98ZM1086.97 563.98C1085.4 563.98 1083.92 563.58 1082.53 562.78C1081.17 561.98 1080.06 560.82 1079.21 559.3C1078.38 557.78 1077.97 555.953 1077.97 553.82C1077.97 551.633 1078.38 549.78 1079.21 548.26C1080.06 546.74 1081.17 545.58 1082.53 544.78C1083.92 543.98 1085.4 543.58 1086.97 543.58C1088.57 543.58 1090.05 543.98 1091.41 544.78C1092.77 545.58 1093.86 546.74 1094.69 548.26C1095.54 549.78 1095.97 551.633 1095.97 553.82C1095.97 555.953 1095.54 557.78 1094.69 559.3C1093.86 560.82 1092.77 561.98 1091.41 562.78C1090.05 563.58 1088.57 563.98 1086.97 563.98ZM1086.97 561.26C1088.65 561.26 1090 560.58 1091.01 559.22C1092.05 557.833 1092.57 556.033 1092.57 553.82C1092.57 551.58 1092.05 549.767 1091.01 548.38C1090 546.993 1088.65 546.3 1086.97 546.3C1085.32 546.3 1083.97 546.993 1082.93 548.38C1081.89 549.767 1081.37 551.58 1081.37 553.82C1081.37 556.033 1081.89 557.833 1082.93 559.22C1083.97 560.58 1085.32 561.26 1086.97 561.26ZM1107.73 563.98C1105.3 563.98 1103.36 563.1 1101.89 561.34C1100.42 559.553 1099.69 557.047 1099.69 553.82C1099.69 551.713 1100.08 549.9 1100.85 548.38C1101.65 546.833 1102.69 545.647 1103.97 544.82C1105.28 543.993 1106.66 543.58 1108.13 543.58C1109.25 543.58 1110.22 543.78 1111.05 544.18C1111.88 544.58 1112.72 545.127 1113.57 545.82L1113.41 542.5V535.02H1116.73V563.5H1114.01L1113.73 561.22H1113.61C1112.86 561.967 1111.98 562.62 1110.97 563.18C1109.96 563.713 1108.88 563.98 1107.73 563.98ZM1108.45 561.22C1110.16 561.22 1111.81 560.327 1113.41 558.54V548.38C1112.58 547.633 1111.78 547.113 1111.01 546.82C1110.26 546.5 1109.49 546.34 1108.69 546.34C1107.65 546.34 1106.7 546.66 1105.85 547.3C1105.02 547.913 1104.36 548.78 1103.85 549.9C1103.34 550.993 1103.09 552.287 1103.09 553.78C1103.09 556.1 1103.56 557.927 1104.49 559.26C1105.42 560.567 1106.74 561.22 1108.45 561.22ZM1131.16 563.98C1129.42 563.98 1127.85 563.58 1126.44 562.78C1125.02 561.953 1123.9 560.78 1123.08 559.26C1122.25 557.74 1121.84 555.927 1121.84 553.82C1121.84 551.687 1122.25 549.86 1123.08 548.34C1123.93 546.82 1125.02 545.647 1126.36 544.82C1127.69 543.993 1129.09 543.58 1130.56 543.58C1133.04 543.58 1134.94 544.407 1136.28 546.06C1137.64 547.713 1138.32 549.927 1138.32 552.7C1138.32 553.047 1138.3 553.393 1138.28 553.74C1138.28 554.06 1138.25 554.34 1138.2 554.58H1125.08C1125.21 556.633 1125.85 558.273 1127 559.5C1128.17 560.727 1129.69 561.34 1131.56 561.34C1132.49 561.34 1133.34 561.207 1134.12 560.94C1134.92 560.647 1135.68 560.273 1136.4 559.82L1137.56 561.98C1136.73 562.513 1135.78 562.98 1134.72 563.38C1133.68 563.78 1132.49 563.98 1131.16 563.98ZM1125.04 552.22H1135.44C1135.44 550.247 1135.01 548.753 1134.16 547.74C1133.33 546.7 1132.16 546.18 1130.64 546.18C1129.28 546.18 1128.05 546.713 1126.96 547.78C1125.89 548.82 1125.25 550.3 1125.04 552.22ZM1143.12 563.5V544.06H1145.84L1146.12 547.58H1146.24C1146.91 546.353 1147.72 545.38 1148.68 544.66C1149.64 543.94 1150.67 543.58 1151.76 543.58C1152.53 543.58 1153.23 543.713 1153.84 543.98L1153.2 546.86C1152.88 546.753 1152.59 546.673 1152.32 546.62C1152.05 546.567 1151.72 546.54 1151.32 546.54C1150.49 546.54 1149.63 546.873 1148.72 547.54C1147.84 548.207 1147.07 549.367 1146.4 551.02V563.5H1143.12Z" fill="black"/>
<path d="M1084.71 997.293C1084.32 996.902 1083.68 996.902 1083.29 997.293L1076.93 1003.66C1076.54 1004.05 1076.54 1004.68 1076.93 1005.07C1077.32 1005.46 1077.95 1005.46 1078.34 1005.07L1084 999.414L1089.66 1005.07C1090.05 1005.46 1090.68 1005.46 1091.07 1005.07C1091.46 1004.68 1091.46 1004.05 1091.07 1003.66L1084.71 997.293ZM1085 1028L1085 998L1083 998L1083 1028L1085 1028Z" fill="black"/>
<path d="M1047.24 1064.34C1045.71 1064.34 1044.35 1063.94 1043.15 1063.16C1041.98 1062.38 1041.05 1061.27 1040.38 1059.83C1039.73 1058.39 1039.4 1056.69 1039.4 1054.73C1039.4 1052.77 1039.73 1051.09 1040.38 1049.69C1041.05 1048.27 1041.98 1047.19 1043.15 1046.44C1044.35 1045.68 1045.71 1045.3 1047.24 1045.3C1048.79 1045.3 1050.15 1045.68 1051.33 1046.44C1052.51 1047.19 1053.43 1048.27 1054.1 1049.69C1054.77 1051.09 1055.11 1052.77 1055.11 1054.73C1055.11 1056.69 1054.77 1058.39 1054.1 1059.83C1053.43 1061.27 1052.51 1062.38 1051.33 1063.16C1050.15 1063.94 1048.79 1064.34 1047.24 1064.34ZM1047.24 1062.29C1048.34 1062.29 1049.29 1061.98 1050.1 1061.37C1050.92 1060.73 1051.55 1059.86 1052 1058.74C1052.45 1057.6 1052.67 1056.26 1052.67 1054.73C1052.67 1052.45 1052.18 1050.65 1051.19 1049.33C1050.2 1048 1048.88 1047.34 1047.24 1047.34C1045.6 1047.34 1044.28 1048 1043.29 1049.33C1042.3 1050.65 1041.81 1052.45 1041.81 1054.73C1041.81 1056.26 1042.03 1057.6 1042.48 1058.74C1042.93 1059.86 1043.56 1060.73 1044.39 1061.37C1045.21 1061.98 1046.16 1062.29 1047.24 1062.29ZM1062.81 1064.34C1061.37 1064.34 1060.32 1063.89 1059.65 1062.99C1058.98 1062.08 1058.64 1060.75 1058.64 1059.02V1050.39H1060.96V1058.71C1060.96 1059.98 1061.16 1060.9 1061.55 1061.48C1061.96 1062.06 1062.62 1062.35 1063.51 1062.35C1064.22 1062.35 1064.85 1062.17 1065.39 1061.82C1065.95 1061.44 1066.54 1060.85 1067.18 1060.05V1050.39H1069.48V1064H1067.57L1067.38 1061.87H1067.29C1066.66 1062.62 1065.98 1063.22 1065.28 1063.66C1064.57 1064.11 1063.74 1064.34 1062.81 1064.34ZM1074.07 1069.74V1050.39H1075.97L1076.17 1051.96H1076.25C1076.87 1051.44 1077.54 1050.99 1078.27 1050.62C1079.01 1050.24 1079.79 1050.06 1080.59 1050.06C1082.34 1050.06 1083.68 1050.69 1084.59 1051.96C1085.51 1053.21 1085.97 1054.89 1085.97 1057C1085.97 1058.53 1085.69 1059.85 1085.13 1060.95C1084.58 1062.05 1083.87 1062.89 1082.97 1063.47C1082.09 1064.05 1081.13 1064.34 1080.09 1064.34C1079.45 1064.34 1078.82 1064.2 1078.18 1063.92C1077.57 1063.64 1076.94 1063.25 1076.31 1062.77L1076.36 1065.15V1069.74H1074.07ZM1079.69 1062.4C1080.81 1062.4 1081.74 1061.93 1082.47 1060.98C1083.21 1060.01 1083.59 1058.68 1083.59 1057C1083.59 1055.51 1083.31 1054.3 1082.75 1053.39C1082.2 1052.45 1081.29 1051.99 1080 1051.99C1079.42 1051.99 1078.83 1052.15 1078.24 1052.46C1077.66 1052.78 1077.03 1053.24 1076.36 1053.84V1060.98C1076.98 1061.5 1077.57 1061.87 1078.15 1062.1C1078.73 1062.3 1079.25 1062.4 1079.69 1062.4ZM1093.57 1064.34C1092.14 1064.34 1091.08 1063.89 1090.41 1062.99C1089.74 1062.08 1089.4 1060.75 1089.4 1059.02V1050.39H1091.72V1058.71C1091.72 1059.98 1091.92 1060.9 1092.31 1061.48C1092.72 1062.06 1093.38 1062.35 1094.27 1062.35C1094.98 1062.35 1095.61 1062.17 1096.15 1061.82C1096.71 1061.44 1097.31 1060.85 1097.94 1060.05V1050.39H1100.24V1064H1098.33L1098.14 1061.87H1098.05C1097.42 1062.62 1096.75 1063.22 1096.04 1063.66C1095.33 1064.11 1094.51 1064.34 1093.57 1064.34ZM1109.11 1064.34C1107.66 1064.34 1106.64 1063.92 1106.06 1063.08C1105.5 1062.24 1105.22 1061.14 1105.22 1059.8V1052.27H1103.2V1050.53L1105.33 1050.39L1105.61 1046.58H1107.54V1050.39H1111.21V1052.27H1107.54V1059.83C1107.54 1060.67 1107.69 1061.32 1107.99 1061.79C1108.31 1062.24 1108.86 1062.46 1109.64 1062.46C1109.89 1062.46 1110.15 1062.42 1110.43 1062.35C1110.71 1062.25 1110.96 1062.17 1111.18 1062.1L1111.63 1063.83C1111.26 1063.96 1110.85 1064.07 1110.4 1064.17C1109.97 1064.28 1109.54 1064.34 1109.11 1064.34ZM1117.57 1064.34C1116.6 1064.34 1115.68 1064.16 1114.8 1063.8C1113.92 1063.43 1113.16 1062.98 1112.5 1062.46L1113.65 1060.92C1114.25 1061.39 1114.86 1061.78 1115.5 1062.1C1116.13 1062.39 1116.85 1062.54 1117.65 1062.54C1118.55 1062.54 1119.22 1062.34 1119.67 1061.93C1120.12 1061.5 1120.34 1060.99 1120.34 1060.42C1120.34 1059.95 1120.18 1059.56 1119.87 1059.24C1119.57 1058.92 1119.18 1058.66 1118.69 1058.46C1118.22 1058.23 1117.74 1058.03 1117.23 1057.84C1116.6 1057.6 1115.97 1057.33 1115.36 1057.03C1114.74 1056.71 1114.24 1056.31 1113.85 1055.82C1113.45 1055.32 1113.26 1054.69 1113.26 1053.92C1113.26 1052.82 1113.67 1051.9 1114.49 1051.18C1115.33 1050.43 1116.49 1050.06 1117.96 1050.06C1118.8 1050.06 1119.59 1050.21 1120.31 1050.5C1121.04 1050.8 1121.67 1051.17 1122.19 1051.6L1121.07 1053.05C1120.6 1052.7 1120.12 1052.41 1119.61 1052.18C1119.11 1051.96 1118.56 1051.85 1117.96 1051.85C1117.1 1051.85 1116.47 1052.04 1116.06 1052.44C1115.67 1052.83 1115.47 1053.29 1115.47 1053.81C1115.47 1054.24 1115.61 1054.59 1115.89 1054.87C1116.17 1055.13 1116.53 1055.37 1116.98 1055.57C1117.43 1055.76 1117.91 1055.95 1118.41 1056.16C1119.06 1056.4 1119.71 1056.68 1120.34 1057C1120.98 1057.3 1121.5 1057.71 1121.91 1058.23C1122.34 1058.74 1122.55 1059.42 1122.55 1060.28C1122.55 1061 1122.36 1061.68 1121.97 1062.29C1121.59 1062.91 1121.03 1063.4 1120.29 1063.78C1119.56 1064.15 1118.65 1064.34 1117.57 1064.34ZM1009.14 1103.93C1007.99 1102.04 1007.08 1100.07 1006.43 1098.02C1005.77 1095.95 1005.45 1093.68 1005.45 1091.22C1005.45 1088.75 1005.77 1086.48 1006.43 1084.41C1007.08 1082.34 1007.99 1080.37 1009.14 1078.5L1010.57 1079.18C1009.49 1080.95 1008.68 1082.87 1008.13 1084.94C1007.61 1087 1007.35 1089.09 1007.35 1091.22C1007.35 1093.34 1007.61 1095.44 1008.13 1097.52C1008.68 1099.57 1009.49 1101.48 1010.57 1103.26L1009.14 1103.93ZM1019.24 1099.34C1017.95 1099.34 1016.76 1099.09 1015.66 1098.61C1014.56 1098.1 1013.61 1097.44 1012.8 1096.62L1014.2 1095C1014.86 1095.69 1015.62 1096.25 1016.5 1096.68C1017.39 1097.09 1018.32 1097.29 1019.27 1097.29C1020.48 1097.29 1021.43 1097.02 1022.1 1096.48C1022.77 1095.92 1023.11 1095.19 1023.11 1094.3C1023.11 1093.66 1022.97 1093.16 1022.69 1092.78C1022.43 1092.41 1022.06 1092.09 1021.59 1091.83C1021.15 1091.57 1020.63 1091.31 1020.05 1091.05L1017.42 1089.9C1016.84 1089.66 1016.27 1089.34 1015.69 1088.95C1015.13 1088.56 1014.65 1088.05 1014.26 1087.44C1013.89 1086.82 1013.7 1086.06 1013.7 1085.17C1013.7 1084.23 1013.94 1083.4 1014.43 1082.68C1014.93 1081.93 1015.62 1081.35 1016.5 1080.94C1017.38 1080.51 1018.37 1080.3 1019.47 1080.3C1020.57 1080.3 1021.59 1080.51 1022.52 1080.94C1023.45 1081.35 1024.25 1081.89 1024.9 1082.56L1023.64 1084.08C1023.08 1083.53 1022.45 1083.11 1021.76 1082.82C1021.09 1082.5 1020.33 1082.34 1019.47 1082.34C1018.44 1082.34 1017.61 1082.58 1016.97 1083.07C1016.36 1083.55 1016.05 1084.21 1016.05 1085.03C1016.05 1085.61 1016.2 1086.09 1016.5 1086.48C1016.82 1086.86 1017.21 1087.17 1017.67 1087.41C1018.14 1087.65 1018.62 1087.87 1019.1 1088.08L1021.71 1089.2C1022.42 1089.5 1023.05 1089.86 1023.61 1090.29C1024.19 1090.7 1024.65 1091.22 1024.98 1091.83C1025.32 1092.43 1025.49 1093.19 1025.49 1094.1C1025.49 1095.07 1025.23 1095.96 1024.73 1096.76C1024.23 1097.54 1023.51 1098.17 1022.57 1098.64C1021.64 1099.1 1020.53 1099.34 1019.24 1099.34ZM1028.88 1099V1079.06H1031.18V1084.5L1031.09 1087.3C1031.75 1086.68 1032.43 1086.16 1033.14 1085.73C1033.86 1085.28 1034.69 1085.06 1035.63 1085.06C1037.07 1085.06 1038.11 1085.51 1038.76 1086.43C1039.44 1087.32 1039.77 1088.64 1039.77 1090.38V1099H1037.48V1090.68C1037.48 1089.41 1037.27 1088.49 1036.86 1087.91C1036.45 1087.33 1035.8 1087.04 1034.9 1087.04C1034.21 1087.04 1033.58 1087.22 1033.02 1087.58C1032.48 1087.93 1031.87 1088.45 1031.18 1089.14V1099H1028.88ZM1044.11 1099V1085.39H1046.41V1099H1044.11ZM1045.29 1082.59C1044.84 1082.59 1044.47 1082.46 1044.17 1082.2C1043.89 1081.92 1043.75 1081.55 1043.75 1081.08C1043.75 1080.63 1043.89 1080.27 1044.17 1079.99C1044.47 1079.71 1044.84 1079.57 1045.29 1079.57C1045.73 1079.57 1046.1 1079.71 1046.38 1079.99C1046.68 1080.27 1046.83 1080.63 1046.83 1081.08C1046.83 1081.55 1046.68 1081.92 1046.38 1082.2C1046.1 1082.46 1045.73 1082.59 1045.29 1082.59ZM1051.39 1099V1087.27H1049.55V1085.53L1051.39 1085.39V1083.24C1051.39 1081.85 1051.71 1080.76 1052.35 1079.96C1053 1079.14 1054.01 1078.73 1055.37 1078.73C1055.8 1078.73 1056.21 1078.77 1056.6 1078.87C1056.99 1078.94 1057.34 1079.05 1057.64 1079.18L1057.13 1080.94C1056.63 1080.72 1056.12 1080.6 1055.59 1080.6C1054.32 1080.6 1053.69 1081.48 1053.69 1083.24V1085.39H1058.67L1058.95 1081.58H1060.86V1085.39H1064.55V1087.27H1060.86V1094.83C1060.86 1095.67 1061.02 1096.32 1061.33 1096.79C1061.65 1097.24 1062.2 1097.46 1062.99 1097.46C1063.23 1097.46 1063.49 1097.42 1063.77 1097.35C1064.05 1097.25 1064.3 1097.17 1064.53 1097.1L1064.97 1098.83C1064.6 1098.96 1064.19 1099.07 1063.74 1099.17C1063.31 1099.28 1062.88 1099.34 1062.45 1099.34C1061 1099.34 1059.98 1098.92 1059.4 1098.08C1058.84 1097.24 1058.56 1096.14 1058.56 1094.8V1087.27H1053.69V1099H1051.39ZM1072.76 1099.34C1071.55 1099.34 1070.44 1099.06 1069.46 1098.5C1068.47 1097.92 1067.68 1097.1 1067.1 1096.03C1066.52 1094.97 1066.24 1093.7 1066.24 1092.22C1066.24 1090.73 1066.52 1089.45 1067.1 1088.39C1067.7 1087.32 1068.47 1086.5 1069.4 1085.92C1070.33 1085.35 1071.31 1085.06 1072.34 1085.06C1074.08 1085.06 1075.41 1085.63 1076.34 1086.79C1077.3 1087.95 1077.77 1089.5 1077.77 1091.44C1077.77 1091.68 1077.76 1091.93 1077.74 1092.17C1077.74 1092.39 1077.72 1092.59 1077.69 1092.76H1068.5C1068.6 1094.19 1069.04 1095.34 1069.85 1096.2C1070.67 1097.06 1071.73 1097.49 1073.04 1097.49C1073.69 1097.49 1074.29 1097.39 1074.83 1097.21C1075.39 1097 1075.92 1096.74 1076.43 1096.42L1077.24 1097.94C1076.66 1098.31 1076 1098.64 1075.25 1098.92C1074.52 1099.2 1073.69 1099.34 1072.76 1099.34ZM1068.48 1091.1H1075.76C1075.76 1089.72 1075.46 1088.68 1074.86 1087.97C1074.28 1087.24 1073.46 1086.88 1072.4 1086.88C1071.44 1086.88 1070.58 1087.25 1069.82 1088C1069.07 1088.72 1068.62 1089.76 1068.48 1091.1ZM1085.78 1099.34C1084.08 1099.34 1082.72 1098.72 1081.69 1097.49C1080.67 1096.24 1080.15 1094.48 1080.15 1092.22C1080.15 1090.75 1080.42 1089.48 1080.97 1088.42C1081.53 1087.33 1082.25 1086.5 1083.15 1085.92C1084.06 1085.35 1085.04 1085.06 1086.06 1085.06C1086.85 1085.06 1087.53 1085.2 1088.11 1085.48C1088.68 1085.76 1089.27 1086.14 1089.87 1086.62L1089.76 1084.3V1079.06H1092.08V1099H1090.18L1089.98 1097.4H1089.9C1089.38 1097.93 1088.76 1098.38 1088.05 1098.78C1087.34 1099.15 1086.58 1099.34 1085.78 1099.34ZM1086.29 1097.4C1087.48 1097.4 1088.64 1096.78 1089.76 1095.53V1088.42C1089.18 1087.89 1088.62 1087.53 1088.08 1087.32C1087.56 1087.1 1087.01 1086.99 1086.45 1086.99C1085.73 1086.99 1085.06 1087.21 1084.47 1087.66C1083.89 1088.09 1083.42 1088.7 1083.07 1089.48C1082.71 1090.25 1082.53 1091.15 1082.53 1092.2C1082.53 1093.82 1082.86 1095.1 1083.51 1096.03C1084.17 1096.95 1085.09 1097.4 1086.29 1097.4ZM1102.27 1099V1085.39H1104.17L1104.37 1087.86H1104.45C1104.92 1087 1105.49 1086.32 1106.16 1085.81C1106.83 1085.31 1107.55 1085.06 1108.32 1085.06C1108.86 1085.06 1109.35 1085.15 1109.77 1085.34L1109.33 1087.35C1109.1 1087.28 1108.9 1087.22 1108.71 1087.18C1108.52 1087.15 1108.29 1087.13 1108.01 1087.13C1107.43 1087.13 1106.83 1087.36 1106.19 1087.83C1105.57 1088.29 1105.03 1089.11 1104.57 1090.26V1099H1102.27ZM1111.98 1099V1085.39H1114.27V1099H1111.98ZM1113.15 1082.59C1112.71 1082.59 1112.33 1082.46 1112.03 1082.2C1111.75 1081.92 1111.61 1081.55 1111.61 1081.08C1111.61 1080.63 1111.75 1080.27 1112.03 1079.99C1112.33 1079.71 1112.71 1079.57 1113.15 1079.57C1113.6 1079.57 1113.97 1079.71 1114.25 1079.99C1114.54 1080.27 1114.69 1080.63 1114.69 1081.08C1114.69 1081.55 1114.54 1081.92 1114.25 1082.2C1113.97 1082.46 1113.6 1082.59 1113.15 1082.59ZM1123.46 1105.27C1121.8 1105.27 1120.45 1104.95 1119.4 1104.32C1118.35 1103.69 1117.83 1102.78 1117.83 1101.6C1117.83 1101.03 1118.01 1100.47 1118.36 1099.92C1118.72 1099.4 1119.2 1098.93 1119.82 1098.52V1098.41C1119.48 1098.21 1119.19 1097.92 1118.95 1097.54C1118.73 1097.17 1118.62 1096.72 1118.62 1096.2C1118.62 1095.62 1118.77 1095.12 1119.09 1094.69C1119.41 1094.26 1119.75 1093.92 1120.1 1093.68V1093.57C1119.65 1093.19 1119.24 1092.69 1118.87 1092.06C1118.51 1091.42 1118.34 1090.7 1118.34 1089.9C1118.34 1088.91 1118.57 1088.05 1119.04 1087.32C1119.5 1086.6 1120.13 1086.04 1120.91 1085.64C1121.7 1085.25 1122.55 1085.06 1123.46 1085.06C1123.83 1085.06 1124.19 1085.09 1124.52 1085.17C1124.86 1085.22 1125.15 1085.3 1125.39 1085.39H1130.12V1087.16H1127.32C1127.64 1087.45 1127.9 1087.86 1128.11 1088.36C1128.33 1088.85 1128.44 1089.38 1128.44 1089.96C1128.44 1090.93 1128.22 1091.77 1127.77 1092.48C1127.32 1093.19 1126.73 1093.74 1125.98 1094.13C1125.23 1094.5 1124.39 1094.69 1123.46 1094.69C1122.73 1094.69 1122.05 1094.53 1121.42 1094.21C1121.17 1094.42 1120.97 1094.65 1120.8 1094.91C1120.63 1095.15 1120.55 1095.46 1120.55 1095.84C1120.55 1096.27 1120.72 1096.62 1121.05 1096.9C1121.41 1097.18 1122.04 1097.32 1122.96 1097.32H1125.59C1127.17 1097.32 1128.36 1097.58 1129.14 1098.1C1129.95 1098.61 1130.35 1099.43 1130.35 1100.57C1130.35 1101.41 1130.07 1102.18 1129.51 1102.89C1128.95 1103.6 1128.15 1104.17 1127.13 1104.6C1126.1 1105.05 1124.88 1105.27 1123.46 1105.27ZM1123.46 1093.15C1124.24 1093.15 1124.92 1092.86 1125.48 1092.28C1126.05 1091.68 1126.34 1090.89 1126.34 1089.9C1126.34 1088.91 1126.06 1088.14 1125.5 1087.58C1124.94 1087.02 1124.26 1086.74 1123.46 1086.74C1122.66 1086.74 1121.98 1087.02 1121.42 1087.58C1120.86 1088.14 1120.58 1088.91 1120.58 1089.9C1120.58 1090.89 1120.86 1091.68 1121.42 1092.28C1121.99 1092.86 1122.68 1093.15 1123.46 1093.15ZM1123.8 1103.68C1125.1 1103.68 1126.15 1103.39 1126.93 1102.81C1127.72 1102.25 1128.11 1101.61 1128.11 1100.9C1128.11 1100.27 1127.87 1099.83 1127.38 1099.59C1126.91 1099.35 1126.24 1099.22 1125.36 1099.22H1123.01C1122.75 1099.22 1122.46 1099.21 1122.14 1099.17C1121.85 1099.13 1121.55 1099.07 1121.25 1099C1120.76 1099.35 1120.41 1099.73 1120.18 1100.12C1119.96 1100.51 1119.85 1100.9 1119.85 1101.3C1119.85 1102.02 1120.19 1102.6 1120.88 1103.03C1121.59 1103.46 1122.56 1103.68 1123.8 1103.68ZM1132.98 1099V1079.06H1135.27V1084.5L1135.19 1087.3C1135.84 1086.68 1136.52 1086.16 1137.23 1085.73C1137.96 1085.28 1138.79 1085.06 1139.73 1085.06C1141.16 1085.06 1142.21 1085.51 1142.86 1086.43C1143.53 1087.32 1143.87 1088.64 1143.87 1090.38V1099H1141.57V1090.68C1141.57 1089.41 1141.37 1088.49 1140.96 1087.91C1140.55 1087.33 1139.89 1087.04 1139 1087.04C1138.31 1087.04 1137.68 1087.22 1137.12 1087.58C1136.58 1087.93 1135.96 1088.45 1135.27 1089.14V1099H1132.98ZM1152.49 1099.34C1151.04 1099.34 1150.02 1098.92 1149.44 1098.08C1148.88 1097.24 1148.6 1096.14 1148.6 1094.8V1087.27H1146.58V1085.53L1148.71 1085.39L1148.99 1081.58H1150.92V1085.39H1154.59V1087.27H1150.92V1094.83C1150.92 1095.67 1151.07 1096.32 1151.37 1096.79C1151.69 1097.24 1152.24 1097.46 1153.02 1097.46C1153.27 1097.46 1153.53 1097.42 1153.81 1097.35C1154.09 1097.25 1154.34 1097.17 1154.56 1097.1L1155.01 1098.83C1154.64 1098.96 1154.23 1099.07 1153.78 1099.17C1153.35 1099.28 1152.92 1099.34 1152.49 1099.34ZM1157.87 1103.93L1156.44 1103.26C1157.52 1101.48 1158.32 1099.57 1158.85 1097.52C1159.39 1095.44 1159.66 1093.34 1159.66 1091.22C1159.66 1089.09 1159.39 1087 1158.85 1084.94C1158.32 1082.87 1157.52 1080.95 1156.44 1079.18L1157.87 1078.5C1159.02 1080.37 1159.93 1082.34 1160.58 1084.41C1161.23 1086.48 1161.56 1088.75 1161.56 1091.22C1161.56 1093.68 1161.23 1095.95 1160.58 1098.02C1159.93 1100.07 1159.02 1102.04 1157.87 1103.93Z" fill="black"/>
<path d="M974.384 65.336C972.853 65.336 971.491 64.944 970.296 64.16C969.12 63.376 968.196 62.2653 967.524 60.828C966.871 59.3907 966.544 57.692 966.544 55.732C966.544 53.772 966.871 52.092 967.524 50.692C968.196 49.2733 969.12 48.1907 970.296 47.444C971.491 46.6787 972.853 46.296 974.384 46.296C975.933 46.296 977.296 46.6787 978.472 47.444C979.648 48.1907 980.572 49.2733 981.244 50.692C981.916 52.092 982.252 53.772 982.252 55.732C982.252 57.692 981.916 59.3907 981.244 60.828C980.572 62.2653 979.648 63.376 978.472 64.16C977.296 64.944 975.933 65.336 974.384 65.336ZM974.384 63.292C975.485 63.292 976.437 62.984 977.24 62.368C978.061 61.7333 978.696 60.856 979.144 59.736C979.592 58.5973 979.816 57.2627 979.816 55.732C979.816 53.4547 979.321 51.6533 978.332 50.328C977.343 49.0027 976.027 48.34 974.384 48.34C972.741 48.34 971.425 49.0027 970.436 50.328C969.447 51.6533 968.952 53.4547 968.952 55.732C968.952 57.2627 969.176 58.5973 969.624 59.736C970.072 60.856 970.707 61.7333 971.528 62.368C972.349 62.984 973.301 63.292 974.384 63.292ZM989.954 65.336C988.516 65.336 987.462 64.888 986.79 63.992C986.118 63.0773 985.782 61.752 985.782 60.016V51.392H988.106V59.708C988.106 60.9773 988.302 61.9013 988.694 62.48C989.104 63.0587 989.758 63.348 990.654 63.348C991.363 63.348 991.988 63.1707 992.53 62.816C993.09 62.4427 993.687 61.8547 994.322 61.052V51.392H996.618V65H994.714L994.518 62.872H994.434C993.799 63.6187 993.127 64.216 992.418 64.664C991.708 65.112 990.887 65.336 989.954 65.336ZM1005.49 65.336C1004.04 65.336 1003.02 64.916 1002.44 64.076C1001.88 63.236 1001.6 62.144 1001.6 60.8V53.268H999.584V51.532L1001.71 51.392L1001.99 47.584H1003.92V51.392H1007.59V53.268H1003.92V60.828C1003.92 61.668 1004.07 62.3213 1004.37 62.788C1004.69 63.236 1005.24 63.46 1006.02 63.46C1006.27 63.46 1006.53 63.4227 1006.81 63.348C1007.09 63.2547 1007.34 63.1707 1007.56 63.096L1008.01 64.832C1007.64 64.9627 1007.23 65.0747 1006.78 65.168C1006.35 65.28 1005.92 65.336 1005.49 65.336ZM1010.67 70.74V51.392H1012.57L1012.77 52.96H1012.85C1013.47 52.4373 1014.14 51.9893 1014.87 51.616C1015.62 51.2427 1016.39 51.056 1017.19 51.056C1018.95 51.056 1020.28 51.6907 1021.2 52.96C1022.11 54.2107 1022.57 55.8907 1022.57 58C1022.57 59.5307 1022.29 60.8467 1021.73 61.948C1021.19 63.0493 1020.47 63.8893 1019.57 64.468C1018.7 65.0467 1017.73 65.336 1016.69 65.336C1016.05 65.336 1015.42 65.196 1014.79 64.916C1014.17 64.636 1013.54 64.2533 1012.91 63.768L1012.97 66.148V70.74H1010.67ZM1016.3 63.404C1017.42 63.404 1018.34 62.928 1019.07 61.976C1019.82 61.0053 1020.19 59.68 1020.19 58C1020.19 56.5067 1019.91 55.3027 1019.35 54.388C1018.81 53.4547 1017.89 52.988 1016.61 52.988C1016.03 52.988 1015.44 53.1467 1014.84 53.464C1014.26 53.7813 1013.64 54.2387 1012.97 54.836V61.976C1013.58 62.4987 1014.18 62.872 1014.76 63.096C1015.34 63.3013 1015.85 63.404 1016.3 63.404ZM1030.18 65.336C1028.74 65.336 1027.68 64.888 1027.01 63.992C1026.34 63.0773 1026 61.752 1026 60.016V51.392H1028.33V59.708C1028.33 60.9773 1028.52 61.9013 1028.92 62.48C1029.33 63.0587 1029.98 63.348 1030.88 63.348C1031.59 63.348 1032.21 63.1707 1032.75 62.816C1033.31 62.4427 1033.91 61.8547 1034.54 61.052V51.392H1036.84V65H1034.94L1034.74 62.872H1034.66C1034.02 63.6187 1033.35 64.216 1032.64 64.664C1031.93 65.112 1031.11 65.336 1030.18 65.336ZM1045.71 65.336C1044.26 65.336 1043.24 64.916 1042.66 64.076C1042.1 63.236 1041.82 62.144 1041.82 60.8V53.268H1039.81V51.532L1041.93 51.392L1042.21 47.584H1044.15V51.392H1047.81V53.268H1044.15V60.828C1044.15 61.668 1044.3 62.3213 1044.59 62.788C1044.91 63.236 1045.46 63.46 1046.25 63.46C1046.49 63.46 1046.75 63.4227 1047.03 63.348C1047.31 63.2547 1047.56 63.1707 1047.79 63.096L1048.23 64.832C1047.86 64.9627 1047.45 65.0747 1047 65.168C1046.57 65.28 1046.14 65.336 1045.71 65.336ZM1056.5 70.74V51.392H1058.4L1058.6 52.96H1058.68C1059.3 52.4373 1059.97 51.9893 1060.7 51.616C1061.44 51.2427 1062.22 51.056 1063.02 51.056C1064.78 51.056 1066.11 51.6907 1067.03 52.96C1067.94 54.2107 1068.4 55.8907 1068.4 58C1068.4 59.5307 1068.12 60.8467 1067.56 61.948C1067.02 63.0493 1066.3 63.8893 1065.4 64.468C1064.52 65.0467 1063.56 65.336 1062.52 65.336C1061.88 65.336 1061.25 65.196 1060.61 64.916C1060 64.636 1059.37 64.2533 1058.74 63.768L1058.79 66.148V70.74H1056.5ZM1062.13 63.404C1063.25 63.404 1064.17 62.928 1064.9 61.976C1065.64 61.0053 1066.02 59.68 1066.02 58C1066.02 56.5067 1065.74 55.3027 1065.18 54.388C1064.64 53.4547 1063.72 52.988 1062.43 52.988C1061.85 52.988 1061.27 53.1467 1060.67 53.464C1060.09 53.7813 1059.47 54.2387 1058.79 54.836V61.976C1059.41 62.4987 1060.01 62.872 1060.59 63.096C1061.16 63.3013 1061.68 63.404 1062.13 63.404ZM1072.03 65V51.392H1073.93L1074.13 53.856H1074.21C1074.68 52.9973 1075.25 52.316 1075.92 51.812C1076.59 51.308 1077.31 51.056 1078.08 51.056C1078.62 51.056 1079.1 51.1493 1079.53 51.336L1079.08 53.352C1078.86 53.2773 1078.66 53.2213 1078.47 53.184C1078.28 53.1467 1078.05 53.128 1077.77 53.128C1077.19 53.128 1076.58 53.3613 1075.95 53.828C1075.33 54.2947 1074.79 55.1067 1074.32 56.264V65H1072.03ZM1086.75 65.336C1085.65 65.336 1084.62 65.056 1083.65 64.496C1082.69 63.936 1081.92 63.124 1081.32 62.06C1080.74 60.996 1080.45 59.7173 1080.45 58.224C1080.45 56.6933 1080.74 55.396 1081.32 54.332C1081.92 53.268 1082.69 52.456 1083.65 51.896C1084.62 51.336 1085.65 51.056 1086.75 51.056C1087.87 51.056 1088.91 51.336 1089.86 51.896C1090.81 52.456 1091.58 53.268 1092.16 54.332C1092.76 55.396 1093.05 56.6933 1093.05 58.224C1093.05 59.7173 1092.76 60.996 1092.16 62.06C1091.58 63.124 1090.81 63.936 1089.86 64.496C1088.91 65.056 1087.87 65.336 1086.75 65.336ZM1086.75 63.432C1087.93 63.432 1088.87 62.956 1089.58 62.004C1090.31 61.0333 1090.67 59.7733 1090.67 58.224C1090.67 56.656 1090.31 55.3867 1089.58 54.416C1088.87 53.4453 1087.93 52.96 1086.75 52.96C1085.6 52.96 1084.65 53.4453 1083.93 54.416C1083.2 55.3867 1082.83 56.656 1082.83 58.224C1082.83 59.7733 1083.2 61.0333 1083.93 62.004C1084.65 62.956 1085.6 63.432 1086.75 63.432ZM1102.66 65.336C1102.02 65.336 1101.36 65.1867 1100.67 64.888C1100 64.5707 1099.36 64.1413 1098.77 63.6H1098.68L1098.49 65H1096.64V45.064H1098.93V50.496L1098.88 52.96C1099.49 52.4187 1100.17 51.9707 1100.89 51.616C1101.64 51.2427 1102.39 51.056 1103.13 51.056C1104.91 51.056 1106.25 51.6813 1107.17 52.932C1108.08 54.1827 1108.54 55.8627 1108.54 57.972C1108.54 59.5213 1108.26 60.8467 1107.7 61.948C1107.16 63.0493 1106.44 63.8893 1105.54 64.468C1104.66 65.0467 1103.7 65.336 1102.66 65.336ZM1102.27 63.404C1103.39 63.404 1104.31 62.928 1105.04 61.976C1105.78 61.0053 1106.16 59.68 1106.16 58C1106.16 56.5067 1105.88 55.3027 1105.32 54.388C1104.78 53.4547 1103.86 52.988 1102.57 52.988C1102 52.988 1101.41 53.1467 1100.81 53.464C1100.21 53.7813 1099.59 54.2387 1098.93 54.836V61.976C1099.53 62.4987 1100.12 62.872 1100.7 63.096C1101.3 63.3013 1101.82 63.404 1102.27 63.404ZM1114.87 65.336C1113.73 65.336 1112.78 65 1112.01 64.328C1111.26 63.6373 1110.89 62.6853 1110.89 61.472C1110.89 59.9787 1111.55 58.84 1112.88 58.056C1114.22 57.2533 1116.34 56.6933 1119.24 56.376C1119.24 55.7973 1119.15 55.2467 1118.98 54.724C1118.83 54.2013 1118.55 53.7813 1118.14 53.464C1117.75 53.128 1117.18 52.96 1116.44 52.96C1115.65 52.96 1114.91 53.1093 1114.22 53.408C1113.53 53.7067 1112.92 54.0427 1112.38 54.416L1111.48 52.82C1112.11 52.4093 1112.89 52.0173 1113.8 51.644C1114.74 51.252 1115.74 51.056 1116.83 51.056C1118.49 51.056 1119.69 51.5693 1120.44 52.596C1121.19 53.604 1121.56 54.9573 1121.56 56.656V65H1119.66L1119.46 63.376H1119.38C1118.74 63.8987 1118.04 64.356 1117.28 64.748C1116.53 65.14 1115.73 65.336 1114.87 65.336ZM1115.54 63.488C1116.19 63.488 1116.81 63.3293 1117.39 63.012C1117.97 62.6947 1118.58 62.2467 1119.24 61.668V57.888C1116.98 58.168 1115.39 58.588 1114.48 59.148C1113.58 59.708 1113.13 60.4267 1113.13 61.304C1113.13 62.0693 1113.36 62.6293 1113.83 62.984C1114.3 63.32 1114.87 63.488 1115.54 63.488ZM1131.86 65.336C1131.23 65.336 1130.56 65.1867 1129.87 64.888C1129.2 64.5707 1128.57 64.1413 1127.97 63.6H1127.88L1127.69 65H1125.84V45.064H1128.14V50.496L1128.08 52.96C1128.7 52.4187 1129.37 51.9707 1130.1 51.616C1130.84 51.2427 1131.59 51.056 1132.34 51.056C1134.11 51.056 1135.45 51.6813 1136.37 52.932C1137.28 54.1827 1137.74 55.8627 1137.74 57.972C1137.74 59.5213 1137.46 60.8467 1136.9 61.948C1136.36 63.0493 1135.64 63.8893 1134.74 64.468C1133.87 65.0467 1132.91 65.336 1131.86 65.336ZM1131.47 63.404C1132.59 63.404 1133.51 62.928 1134.24 61.976C1134.99 61.0053 1135.36 59.68 1135.36 58C1135.36 56.5067 1135.08 55.3027 1134.52 54.388C1133.98 53.4547 1133.06 52.988 1131.78 52.988C1131.2 52.988 1130.61 53.1467 1130.01 53.464C1129.42 53.7813 1128.79 54.2387 1128.14 54.836V61.976C1128.73 62.4987 1129.32 62.872 1129.9 63.096C1130.5 63.3013 1131.02 63.404 1131.47 63.404ZM1141.32 65V51.392H1143.61V65H1141.32ZM1142.49 48.592C1142.05 48.592 1141.67 48.4613 1141.37 48.2C1141.09 47.92 1140.95 47.5467 1140.95 47.08C1140.95 46.632 1141.09 46.268 1141.37 45.988C1141.67 45.708 1142.05 45.568 1142.49 45.568C1142.94 45.568 1143.31 45.708 1143.59 45.988C1143.88 46.268 1144.03 46.632 1144.03 47.08C1144.03 47.5467 1143.88 47.92 1143.59 48.2C1143.31 48.4613 1142.94 48.592 1142.49 48.592ZM1150.64 65.336C1149.79 65.336 1149.16 65.0747 1148.77 64.552C1148.39 64.0107 1148.21 63.2453 1148.21 62.256V45.064H1150.5V62.424C1150.5 62.7787 1150.57 63.04 1150.7 63.208C1150.83 63.3573 1150.98 63.432 1151.15 63.432C1151.22 63.432 1151.29 63.432 1151.34 63.432C1151.42 63.4133 1151.52 63.3947 1151.65 63.376L1151.96 65.112C1151.81 65.1867 1151.63 65.2427 1151.43 65.28C1151.22 65.3173 1150.96 65.336 1150.64 65.336ZM1155.34 65V51.392H1157.64V65H1155.34ZM1156.52 48.592C1156.07 48.592 1155.7 48.4613 1155.4 48.2C1155.12 47.92 1154.98 47.5467 1154.98 47.08C1154.98 46.632 1155.12 46.268 1155.4 45.988C1155.7 45.708 1156.07 45.568 1156.52 45.568C1156.97 45.568 1157.33 45.708 1157.61 45.988C1157.91 46.268 1158.06 46.632 1158.06 47.08C1158.06 47.5467 1157.91 47.92 1157.61 48.2C1157.33 48.4613 1156.97 48.592 1156.52 48.592ZM1166.52 65.336C1165.06 65.336 1164.05 64.916 1163.47 64.076C1162.91 63.236 1162.63 62.144 1162.63 60.8V53.268H1160.61V51.532L1162.74 51.392L1163.02 47.584H1164.95V51.392H1168.62V53.268H1164.95V60.828C1164.95 61.668 1165.1 62.3213 1165.4 62.788C1165.72 63.236 1166.27 63.46 1167.05 63.46C1167.29 63.46 1167.56 63.4227 1167.84 63.348C1168.12 63.2547 1168.37 63.1707 1168.59 63.096L1169.04 64.832C1168.67 64.9627 1168.26 65.0747 1167.81 65.168C1167.38 65.28 1166.95 65.336 1166.52 65.336ZM1171.7 65V51.392H1173.99V65H1171.7ZM1172.87 48.592C1172.42 48.592 1172.05 48.4613 1171.75 48.2C1171.47 47.92 1171.33 47.5467 1171.33 47.08C1171.33 46.632 1171.47 46.268 1171.75 45.988C1172.05 45.708 1172.42 45.568 1172.87 45.568C1173.32 45.568 1173.68 45.708 1173.96 45.988C1174.26 46.268 1174.41 46.632 1174.41 47.08C1174.41 47.5467 1174.26 47.92 1173.96 48.2C1173.68 48.4613 1173.32 48.592 1172.87 48.592ZM1184.1 65.336C1182.89 65.336 1181.79 65.056 1180.8 64.496C1179.81 63.9173 1179.03 63.096 1178.45 62.032C1177.87 60.968 1177.58 59.6987 1177.58 58.224C1177.58 56.7307 1177.87 55.452 1178.45 54.388C1179.04 53.324 1179.81 52.5027 1180.74 51.924C1181.68 51.3453 1182.66 51.056 1183.68 51.056C1185.42 51.056 1186.75 51.6347 1187.69 52.792C1188.64 53.9493 1189.12 55.4987 1189.12 57.44C1189.12 57.6827 1189.11 57.9253 1189.09 58.168C1189.09 58.392 1189.07 58.588 1189.03 58.756H1179.85C1179.94 60.1933 1180.39 61.3413 1181.19 62.2C1182.01 63.0587 1183.08 63.488 1184.38 63.488C1185.04 63.488 1185.63 63.3947 1186.18 63.208C1186.74 63.0027 1187.27 62.7413 1187.77 62.424L1188.58 63.936C1188 64.3093 1187.34 64.636 1186.6 64.916C1185.87 65.196 1185.04 65.336 1184.1 65.336ZM1179.82 57.104H1187.1C1187.1 55.7227 1186.8 54.6773 1186.2 53.968C1185.62 53.24 1184.8 52.876 1183.74 52.876C1182.79 52.876 1181.93 53.2493 1181.16 53.996C1180.42 54.724 1179.97 55.76 1179.82 57.104ZM1196.03 65.336C1195.06 65.336 1194.14 65.1587 1193.26 64.804C1192.38 64.4307 1191.62 63.9827 1190.97 63.46L1192.11 61.92C1192.71 62.3867 1193.33 62.7787 1193.96 63.096C1194.6 63.3947 1195.31 63.544 1196.12 63.544C1197.01 63.544 1197.69 63.3387 1198.13 62.928C1198.58 62.4987 1198.81 61.9947 1198.81 61.416C1198.81 60.9493 1198.65 60.5573 1198.33 60.24C1198.03 59.9227 1197.64 59.6613 1197.15 59.456C1196.69 59.232 1196.2 59.0267 1195.7 58.84C1195.06 58.5973 1194.44 58.3267 1193.82 58.028C1193.21 57.7107 1192.7 57.3093 1192.31 56.824C1191.92 56.32 1191.72 55.6853 1191.72 54.92C1191.72 53.8187 1192.13 52.904 1192.95 52.176C1193.79 51.4293 1194.95 51.056 1196.43 51.056C1197.27 51.056 1198.05 51.2053 1198.78 51.504C1199.51 51.8027 1200.13 52.1667 1200.65 52.596L1199.53 54.052C1199.07 53.6973 1198.58 53.408 1198.08 53.184C1197.57 52.96 1197.02 52.848 1196.43 52.848C1195.57 52.848 1194.93 53.044 1194.52 53.436C1194.13 53.828 1193.93 54.2853 1193.93 54.808C1193.93 55.2373 1194.07 55.592 1194.35 55.872C1194.63 56.1333 1195 56.3667 1195.45 56.572C1195.89 56.7587 1196.37 56.9547 1196.87 57.16C1197.53 57.4027 1198.17 57.6827 1198.81 58C1199.44 58.2987 1199.96 58.7093 1200.37 59.232C1200.8 59.736 1201.02 60.4173 1201.02 61.276C1201.02 62.004 1200.82 62.676 1200.43 63.292C1200.06 63.908 1199.5 64.4027 1198.75 64.776C1198.02 65.1493 1197.12 65.336 1196.03 65.336Z" fill="black"/>
<path d="M1084.71 88.2929C1084.32 87.9024 1083.68 87.9024 1083.29 88.2929L1076.93 94.6569C1076.54 95.0474 1076.54 95.6805 1076.93 96.0711C1077.32 96.4616 1077.95 96.4616 1078.34 96.0711L1084 90.4142L1089.66 96.0711C1090.05 96.4616 1090.68 96.4616 1091.07 96.0711C1091.46 95.6805 1091.46 95.0474 1091.07 94.6569L1084.71 88.2929ZM1085 113L1085 89L1083 89L1083 113L1085 113Z" fill="black"/>
<path d="M730 425.5V421.5C730 408.245 740.745 397.5 754 397.5H875.5C888.755 397.5 899.5 408.245 899.5 421.5V579C899.5 592.255 910.245 603 923.5 603H935.5" stroke="#B4B4B4" stroke-width="4"/>
</svg>
