<svg width="1792" height="496" viewBox="0 0 1792 496" fill="none" xmlns="http://www.w3.org/2000/svg">
<rect width="1792" height="496" fill="white"/>
<path d="M110.292 55V52.722C112.309 50.7727 114.043 49.0387 115.494 47.52C116.967 45.9787 118.101 44.5847 118.894 43.338C119.687 42.0687 120.084 40.89 120.084 39.802C120.084 38.6687 119.778 37.762 119.166 37.082C118.554 36.402 117.67 36.062 116.514 36.062C115.675 36.062 114.905 36.3 114.202 36.776C113.522 37.252 112.887 37.8187 112.298 38.476L110.122 36.3C111.119 35.2347 112.151 34.4187 113.216 33.852C114.281 33.2627 115.551 32.968 117.024 32.968C119.109 32.968 120.764 33.5687 121.988 34.77C123.235 35.9713 123.858 37.5807 123.858 39.598C123.858 40.8673 123.495 42.1707 122.77 43.508C122.067 44.8227 121.115 46.1713 119.914 47.554C118.735 48.9367 117.432 50.3873 116.004 51.906C116.571 51.8607 117.183 51.8153 117.84 51.77C118.497 51.702 119.087 51.668 119.608 51.668H124.912V55H110.292ZM135.136 55.408C132.892 55.408 131.101 54.4333 129.764 52.484C128.449 50.5347 127.792 47.7353 127.792 44.086C127.792 40.4367 128.449 37.6713 129.764 35.79C131.101 33.9087 132.892 32.968 135.136 32.968C137.38 32.968 139.159 33.9087 140.474 35.79C141.811 37.6713 142.48 40.4367 142.48 44.086C142.48 47.7353 141.811 50.5347 140.474 52.484C139.159 54.4333 137.38 55.408 135.136 55.408ZM135.136 52.348C135.838 52.348 136.462 52.0873 137.006 51.566C137.55 51.022 137.969 50.1493 138.264 48.948C138.581 47.7467 138.74 46.126 138.74 44.086C138.74 42.046 138.581 40.4367 138.264 39.258C137.969 38.0793 137.55 37.252 137.006 36.776C136.462 36.2773 135.838 36.028 135.136 36.028C134.456 36.028 133.844 36.2773 133.3 36.776C132.756 37.252 132.325 38.0793 132.008 39.258C131.69 40.4367 131.532 42.046 131.532 44.086C131.532 46.126 131.69 47.7467 132.008 48.948C132.325 50.1493 132.756 51.022 133.3 51.566C133.844 52.0873 134.456 52.348 135.136 52.348ZM146.379 55V51.804H151.207V37.592H147.229V35.144C148.295 34.94 149.224 34.702 150.017 34.43C150.811 34.1353 151.547 33.784 152.227 33.376H155.151V51.804H159.401V55H146.379ZM170.033 55.408C168.628 55.408 167.37 55.1587 166.259 54.66C165.148 54.1387 164.276 53.436 163.641 52.552C163.006 51.668 162.689 50.6367 162.689 49.458C162.689 48.1207 163.086 46.9987 163.879 46.092C164.672 45.1853 165.579 44.46 166.599 43.916V43.78C165.76 43.1907 165.046 42.488 164.457 41.672C163.89 40.8333 163.607 39.8473 163.607 38.714C163.607 37.5353 163.89 36.5267 164.457 35.688C165.024 34.8267 165.794 34.158 166.769 33.682C167.766 33.206 168.888 32.968 170.135 32.968C172.084 32.968 173.626 33.512 174.759 34.6C175.915 35.6653 176.493 37.0707 176.493 38.816C176.493 39.8813 176.187 40.8447 175.575 41.706C174.963 42.5673 174.306 43.2587 173.603 43.78V43.916C174.6 44.4827 175.473 45.1967 176.221 46.058C176.969 46.9193 177.343 48.0753 177.343 49.526C177.343 50.6367 177.037 51.634 176.425 52.518C175.813 53.402 174.963 54.1047 173.875 54.626C172.787 55.1473 171.506 55.408 170.033 55.408ZM171.461 42.794C172.05 42.2047 172.492 41.604 172.787 40.992C173.104 40.38 173.263 39.734 173.263 39.054C173.263 38.102 172.98 37.32 172.413 36.708C171.846 36.0733 171.064 35.756 170.067 35.756C169.228 35.756 168.526 36.0167 167.959 36.538C167.392 37.0593 167.109 37.7847 167.109 38.714C167.109 39.4393 167.302 40.0513 167.687 40.55C168.072 41.026 168.594 41.4453 169.251 41.808C169.931 42.148 170.668 42.4767 171.461 42.794ZM170.101 52.62C171.144 52.62 171.994 52.3367 172.651 51.77C173.331 51.1807 173.671 50.3873 173.671 49.39C173.671 48.5967 173.433 47.9507 172.957 47.452C172.504 46.9533 171.88 46.5227 171.087 46.16C170.316 45.7747 169.444 45.3893 168.469 45.004C167.789 45.5027 167.222 46.092 166.769 46.772C166.338 47.452 166.123 48.2113 166.123 49.05C166.123 50.1153 166.508 50.9767 167.279 51.634C168.05 52.2913 168.99 52.62 170.101 52.62Z" fill="black"/>
<path d="M600.292 55V52.722C602.309 50.7727 604.043 49.0387 605.494 47.52C606.967 45.9787 608.101 44.5847 608.894 43.338C609.687 42.0687 610.084 40.89 610.084 39.802C610.084 38.6687 609.778 37.762 609.166 37.082C608.554 36.402 607.67 36.062 606.514 36.062C605.675 36.062 604.905 36.3 604.202 36.776C603.522 37.252 602.887 37.8187 602.298 38.476L600.122 36.3C601.119 35.2347 602.151 34.4187 603.216 33.852C604.281 33.2627 605.551 32.968 607.024 32.968C609.109 32.968 610.764 33.5687 611.988 34.77C613.235 35.9713 613.858 37.5807 613.858 39.598C613.858 40.8673 613.495 42.1707 612.77 43.508C612.067 44.8227 611.115 46.1713 609.914 47.554C608.735 48.9367 607.432 50.3873 606.004 51.906C606.571 51.8607 607.183 51.8153 607.84 51.77C608.497 51.702 609.087 51.668 609.608 51.668H614.912V55H600.292ZM625.136 55.408C622.892 55.408 621.101 54.4333 619.764 52.484C618.449 50.5347 617.792 47.7353 617.792 44.086C617.792 40.4367 618.449 37.6713 619.764 35.79C621.101 33.9087 622.892 32.968 625.136 32.968C627.38 32.968 629.159 33.9087 630.474 35.79C631.811 37.6713 632.48 40.4367 632.48 44.086C632.48 47.7353 631.811 50.5347 630.474 52.484C629.159 54.4333 627.38 55.408 625.136 55.408ZM625.136 52.348C625.838 52.348 626.462 52.0873 627.006 51.566C627.55 51.022 627.969 50.1493 628.264 48.948C628.581 47.7467 628.74 46.126 628.74 44.086C628.74 42.046 628.581 40.4367 628.264 39.258C627.969 38.0793 627.55 37.252 627.006 36.776C626.462 36.2773 625.838 36.028 625.136 36.028C624.456 36.028 623.844 36.2773 623.3 36.776C622.756 37.252 622.325 38.0793 622.008 39.258C621.69 40.4367 621.532 42.046 621.532 44.086C621.532 46.126 621.69 47.7467 622.008 48.948C622.325 50.1493 622.756 51.022 623.3 51.566C623.844 52.0873 624.456 52.348 625.136 52.348ZM636.379 55V51.804H641.207V37.592H637.229V35.144C638.295 34.94 639.224 34.702 640.017 34.43C640.811 34.1353 641.547 33.784 642.227 33.376H645.151V51.804H649.401V55H636.379ZM656.157 40.04C656.157 41.3093 656.452 42.2727 657.041 42.93C657.653 43.5873 658.503 43.916 659.591 43.916C660.226 43.916 660.883 43.7233 661.563 43.338C662.266 42.93 662.9 42.284 663.467 41.4C663.263 39.496 662.798 38.1133 662.073 37.252C661.348 36.3907 660.452 35.96 659.387 35.96C658.503 35.96 657.744 36.3113 657.109 37.014C656.474 37.7167 656.157 38.7253 656.157 40.04ZM658.673 55.408C657.381 55.408 656.259 55.17 655.307 54.694C654.355 54.218 653.55 53.64 652.893 52.96L655.001 50.58C655.409 51.056 655.919 51.4527 656.531 51.77C657.166 52.0647 657.812 52.212 658.469 52.212C659.376 52.212 660.203 51.9627 660.951 51.464C661.699 50.9653 662.311 50.138 662.787 48.982C663.263 47.8033 663.524 46.2167 663.569 44.222C662.934 44.9927 662.186 45.6047 661.325 46.058C660.464 46.5113 659.636 46.738 658.843 46.738C656.984 46.738 655.466 46.194 654.287 45.106C653.131 43.9953 652.553 42.3067 652.553 40.04C652.553 38.5893 652.859 37.3427 653.471 36.3C654.106 35.2347 654.933 34.4187 655.953 33.852C656.996 33.2627 658.129 32.968 659.353 32.968C660.758 32.968 662.05 33.342 663.229 34.09C664.43 34.838 665.382 35.994 666.085 37.558C666.81 39.0993 667.173 41.0827 667.173 43.508C667.173 46.296 666.776 48.574 665.983 50.342C665.19 52.0873 664.147 53.368 662.855 54.184C661.563 55 660.169 55.408 658.673 55.408Z" fill="black"/>
<path d="M1090.29 55V52.722C1092.31 50.7727 1094.04 49.0387 1095.49 47.52C1096.97 45.9787 1098.1 44.5847 1098.89 43.338C1099.69 42.0687 1100.08 40.89 1100.08 39.802C1100.08 38.6687 1099.78 37.762 1099.17 37.082C1098.55 36.402 1097.67 36.062 1096.51 36.062C1095.68 36.062 1094.9 36.3 1094.2 36.776C1093.52 37.252 1092.89 37.8187 1092.3 38.476L1090.12 36.3C1091.12 35.2347 1092.15 34.4187 1093.22 33.852C1094.28 33.2627 1095.55 32.968 1097.02 32.968C1099.11 32.968 1100.76 33.5687 1101.99 34.77C1103.23 35.9713 1103.86 37.5807 1103.86 39.598C1103.86 40.8673 1103.5 42.1707 1102.77 43.508C1102.07 44.8227 1101.12 46.1713 1099.91 47.554C1098.74 48.9367 1097.43 50.3873 1096 51.906C1096.57 51.8607 1097.18 51.8153 1097.84 51.77C1098.5 51.702 1099.09 51.668 1099.61 51.668H1104.91V55H1090.29ZM1115.14 55.408C1112.89 55.408 1111.1 54.4333 1109.76 52.484C1108.45 50.5347 1107.79 47.7353 1107.79 44.086C1107.79 40.4367 1108.45 37.6713 1109.76 35.79C1111.1 33.9087 1112.89 32.968 1115.14 32.968C1117.38 32.968 1119.16 33.9087 1120.47 35.79C1121.81 37.6713 1122.48 40.4367 1122.48 44.086C1122.48 47.7353 1121.81 50.5347 1120.47 52.484C1119.16 54.4333 1117.38 55.408 1115.14 55.408ZM1115.14 52.348C1115.84 52.348 1116.46 52.0873 1117.01 51.566C1117.55 51.022 1117.97 50.1493 1118.26 48.948C1118.58 47.7467 1118.74 46.126 1118.74 44.086C1118.74 42.046 1118.58 40.4367 1118.26 39.258C1117.97 38.0793 1117.55 37.252 1117.01 36.776C1116.46 36.2773 1115.84 36.028 1115.14 36.028C1114.46 36.028 1113.84 36.2773 1113.3 36.776C1112.76 37.252 1112.32 38.0793 1112.01 39.258C1111.69 40.4367 1111.53 42.046 1111.53 44.086C1111.53 46.126 1111.69 47.7467 1112.01 48.948C1112.32 50.1493 1112.76 51.022 1113.3 51.566C1113.84 52.0873 1114.46 52.348 1115.14 52.348ZM1125.16 55V52.722C1127.17 50.7727 1128.91 49.0387 1130.36 47.52C1131.83 45.9787 1132.96 44.5847 1133.76 43.338C1134.55 42.0687 1134.95 40.89 1134.95 39.802C1134.95 38.6687 1134.64 37.762 1134.03 37.082C1133.42 36.402 1132.53 36.062 1131.38 36.062C1130.54 36.062 1129.77 36.3 1129.07 36.776C1128.39 37.252 1127.75 37.8187 1127.16 38.476L1124.99 36.3C1125.98 35.2347 1127.01 34.4187 1128.08 33.852C1129.14 33.2627 1130.41 32.968 1131.89 32.968C1133.97 32.968 1135.63 33.5687 1136.85 34.77C1138.1 35.9713 1138.72 37.5807 1138.72 39.598C1138.72 40.8673 1138.36 42.1707 1137.63 43.508C1136.93 44.8227 1135.98 46.1713 1134.78 47.554C1133.6 48.9367 1132.3 50.3873 1130.87 51.906C1131.43 51.8607 1132.05 51.8153 1132.7 51.77C1133.36 51.702 1133.95 51.668 1134.47 51.668H1139.78V55H1125.16ZM1150 55.408C1147.75 55.408 1145.96 54.4333 1144.63 52.484C1143.31 50.5347 1142.65 47.7353 1142.65 44.086C1142.65 40.4367 1143.31 37.6713 1144.63 35.79C1145.96 33.9087 1147.75 32.968 1150 32.968C1152.24 32.968 1154.02 33.9087 1155.34 35.79C1156.67 37.6713 1157.34 40.4367 1157.34 44.086C1157.34 47.7353 1156.67 50.5347 1155.34 52.484C1154.02 54.4333 1152.24 55.408 1150 55.408ZM1150 52.348C1150.7 52.348 1151.32 52.0873 1151.87 51.566C1152.41 51.022 1152.83 50.1493 1153.13 48.948C1153.44 47.7467 1153.6 46.126 1153.6 44.086C1153.6 42.046 1153.44 40.4367 1153.13 39.258C1152.83 38.0793 1152.41 37.252 1151.87 36.776C1151.32 36.2773 1150.7 36.028 1150 36.028C1149.32 36.028 1148.71 36.2773 1148.16 36.776C1147.62 37.252 1147.19 38.0793 1146.87 39.258C1146.55 40.4367 1146.39 42.046 1146.39 44.086C1146.39 46.126 1146.55 47.7467 1146.87 48.948C1147.19 50.1493 1147.62 51.022 1148.16 51.566C1148.71 52.0873 1149.32 52.348 1150 52.348Z" fill="black"/>
<path d="M1580.29 55V52.722C1582.31 50.7727 1584.04 49.0387 1585.49 47.52C1586.97 45.9787 1588.1 44.5847 1588.89 43.338C1589.69 42.0687 1590.08 40.89 1590.08 39.802C1590.08 38.6687 1589.78 37.762 1589.17 37.082C1588.55 36.402 1587.67 36.062 1586.51 36.062C1585.68 36.062 1584.9 36.3 1584.2 36.776C1583.52 37.252 1582.89 37.8187 1582.3 38.476L1580.12 36.3C1581.12 35.2347 1582.15 34.4187 1583.22 33.852C1584.28 33.2627 1585.55 32.968 1587.02 32.968C1589.11 32.968 1590.76 33.5687 1591.99 34.77C1593.23 35.9713 1593.86 37.5807 1593.86 39.598C1593.86 40.8673 1593.5 42.1707 1592.77 43.508C1592.07 44.8227 1591.12 46.1713 1589.91 47.554C1588.74 48.9367 1587.43 50.3873 1586 51.906C1586.57 51.8607 1587.18 51.8153 1587.84 51.77C1588.5 51.702 1589.09 51.668 1589.61 51.668H1594.91V55H1580.29ZM1605.14 55.408C1602.89 55.408 1601.1 54.4333 1599.76 52.484C1598.45 50.5347 1597.79 47.7353 1597.79 44.086C1597.79 40.4367 1598.45 37.6713 1599.76 35.79C1601.1 33.9087 1602.89 32.968 1605.14 32.968C1607.38 32.968 1609.16 33.9087 1610.47 35.79C1611.81 37.6713 1612.48 40.4367 1612.48 44.086C1612.48 47.7353 1611.81 50.5347 1610.47 52.484C1609.16 54.4333 1607.38 55.408 1605.14 55.408ZM1605.14 52.348C1605.84 52.348 1606.46 52.0873 1607.01 51.566C1607.55 51.022 1607.97 50.1493 1608.26 48.948C1608.58 47.7467 1608.74 46.126 1608.74 44.086C1608.74 42.046 1608.58 40.4367 1608.26 39.258C1607.97 38.0793 1607.55 37.252 1607.01 36.776C1606.46 36.2773 1605.84 36.028 1605.14 36.028C1604.46 36.028 1603.84 36.2773 1603.3 36.776C1602.76 37.252 1602.32 38.0793 1602.01 39.258C1601.69 40.4367 1601.53 42.046 1601.53 44.086C1601.53 46.126 1601.69 47.7467 1602.01 48.948C1602.32 50.1493 1602.76 51.022 1603.3 51.566C1603.84 52.0873 1604.46 52.348 1605.14 52.348ZM1615.16 55V52.722C1617.17 50.7727 1618.91 49.0387 1620.36 47.52C1621.83 45.9787 1622.96 44.5847 1623.76 43.338C1624.55 42.0687 1624.95 40.89 1624.95 39.802C1624.95 38.6687 1624.64 37.762 1624.03 37.082C1623.42 36.402 1622.53 36.062 1621.38 36.062C1620.54 36.062 1619.77 36.3 1619.07 36.776C1618.39 37.252 1617.75 37.8187 1617.16 38.476L1614.99 36.3C1615.98 35.2347 1617.01 34.4187 1618.08 33.852C1619.14 33.2627 1620.41 32.968 1621.89 32.968C1623.97 32.968 1625.63 33.5687 1626.85 34.77C1628.1 35.9713 1628.72 37.5807 1628.72 39.598C1628.72 40.8673 1628.36 42.1707 1627.63 43.508C1626.93 44.8227 1625.98 46.1713 1624.78 47.554C1623.6 48.9367 1622.3 50.3873 1620.87 51.906C1621.43 51.8607 1622.05 51.8153 1622.7 51.77C1623.36 51.702 1623.95 51.668 1624.47 51.668H1629.78V55H1615.16ZM1633.81 55V51.804H1638.64V37.592H1634.66V35.144C1635.73 34.94 1636.66 34.702 1637.45 34.43C1638.24 34.1353 1638.98 33.784 1639.66 33.376H1642.58V51.804H1646.83V55H1633.81Z" fill="black"/>
<rect x="218.5" y="141.5" width="127" height="51" rx="9.5" fill="#FFF6DE" stroke="#FFD392"/>
<rect x="471.5" y="321.5" width="127" height="51" rx="9.5" fill="#FFF6DE" stroke="#FFD392"/>
<rect x="624.5" y="234.5" width="127" height="51" rx="9.5" fill="#FFF6DE" stroke="#FFD392"/>
<rect x="676.5" y="141.5" width="150" height="51" rx="9.5" fill="#FFF6DE" stroke="#FFD392"/>
<rect x="998.5" y="102.5" width="105" height="51" rx="9.5" fill="#FFF6DE" stroke="#FFD392"/>
<rect x="934.5" y="194.5" width="154" height="51" rx="9.5" fill="#FFF6DE" stroke="#FFD392"/>
<rect x="1022.5" y="321.5" width="128" height="51" rx="9.5" fill="#FFF6DE" stroke="#FFD392"/>
<rect x="807.5" y="388.5" width="138" height="51" rx="9.5" fill="#FFF6DE" stroke="#FFD392"/>
<rect x="984.5" y="411.5" width="204" height="51" rx="9.5" fill="#FFF6DE" stroke="#FFD392"/>
<rect x="807.5" y="292.5" width="190" height="51" rx="9.5" fill="#FFF6DE" stroke="#FFD392"/>
<rect x="1335.5" y="112.5" width="134" height="51" rx="9.5" fill="#FFF6DE" stroke="#FFD392"/>
<rect x="1478.5" y="205.5" width="160" height="51" rx="9.5" fill="#FFF6DE" stroke="#FFD392"/>
<rect x="1176.5" y="217.5" width="187" height="51" rx="9.5" fill="#FFF6DE" stroke="#FFD392"/>
<rect x="1301.5" y="298.5" width="202" height="51" rx="9.5" fill="#FFF6DE" stroke="#FFD392"/>
<rect x="1571.5" y="336.5" width="134" height="51" rx="9.5" fill="#FFF6DE" stroke="#FFD392"/>
<rect x="1277.5" y="397.5" width="221" height="51" rx="9.5" fill="#FFF6DE" stroke="#FFD392"/>
<path d="M266.511 178.384C264.676 178.384 263.044 177.957 261.615 177.104C260.186 176.229 259.066 174.981 258.255 173.36C257.444 171.739 257.039 169.787 257.039 167.504C257.039 165.243 257.455 163.301 258.287 161.68C259.119 160.059 260.26 158.811 261.711 157.936C263.162 157.061 264.815 156.624 266.671 156.624C268.122 156.624 269.338 156.901 270.319 157.456C271.322 157.989 272.122 158.576 272.719 159.216L271.247 160.944C270.714 160.389 270.095 159.92 269.391 159.536C268.687 159.152 267.802 158.96 266.735 158.96C265.327 158.96 264.1 159.312 263.055 160.016C262.01 160.699 261.199 161.669 260.623 162.928C260.068 164.187 259.791 165.691 259.791 167.44C259.791 170.085 260.388 172.187 261.583 173.744C262.799 175.28 264.527 176.048 266.767 176.048C267.514 176.048 268.228 175.941 268.911 175.728C269.594 175.493 270.138 175.184 270.543 174.8V169.328H266.095V167.12H272.975V175.952C272.314 176.656 271.418 177.243 270.287 177.712C269.178 178.16 267.919 178.384 266.511 178.384ZM278.005 178V157.008H283.989C285.568 157.008 286.944 157.2 288.117 157.584C289.29 157.968 290.208 158.619 290.869 159.536C291.53 160.432 291.861 161.648 291.861 163.184C291.861 165.381 291.146 167.013 289.717 168.08C288.288 169.147 286.421 169.68 284.117 169.68H280.661V178H278.005ZM280.661 167.504H283.797C285.632 167.504 286.986 167.163 287.861 166.48C288.757 165.776 289.205 164.677 289.205 163.184C289.205 161.669 288.736 160.624 287.797 160.048C286.88 159.451 285.504 159.152 283.669 159.152H280.661V167.504ZM299.701 178V159.248H293.365V157.008H308.725V159.248H302.389V178H299.701Z" fill="black"/>
<path d="M502.068 358V337.008H508.308C509.737 337.008 510.985 337.179 512.052 337.52C513.14 337.861 513.982 338.405 514.58 339.152C515.198 339.899 515.508 340.891 515.508 342.128C515.508 343.173 515.241 344.123 514.708 344.976C514.196 345.808 513.438 346.384 512.436 346.704V346.832C513.694 347.067 514.718 347.6 515.508 348.432C516.318 349.264 516.724 350.405 516.724 351.856C516.724 353.221 516.382 354.363 515.7 355.28C515.038 356.197 514.11 356.88 512.916 357.328C511.721 357.776 510.334 358 508.756 358H502.068ZM504.724 345.936H507.828C509.62 345.936 510.91 345.627 511.7 345.008C512.489 344.389 512.884 343.547 512.884 342.48C512.884 341.264 512.468 340.4 511.636 339.888C510.825 339.376 509.598 339.12 507.956 339.12H504.724V345.936ZM504.724 355.888H508.372C510.185 355.888 511.593 355.557 512.596 354.896C513.598 354.213 514.1 353.168 514.1 351.76C514.1 350.459 513.598 349.509 512.596 348.912C511.614 348.293 510.206 347.984 508.372 347.984H504.724V355.888ZM520.88 358V337.008H532.976V339.248H523.536V345.84H531.504V348.112H523.536V355.728H533.296V358H520.88ZM537.755 358V337.008H544.315C545.744 337.008 547.014 337.2 548.123 337.584C549.232 337.947 550.096 338.565 550.715 339.44C551.355 340.293 551.675 341.445 551.675 342.896C551.675 344.517 551.248 345.829 550.395 346.832C549.542 347.813 548.39 348.485 546.939 348.848L552.283 358H549.275L544.219 349.136H540.411V358H537.755ZM540.411 346.96H543.931C545.574 346.96 546.832 346.629 547.707 345.968C548.582 345.285 549.019 344.261 549.019 342.896C549.019 341.509 548.582 340.539 547.707 339.984C546.832 339.429 545.574 339.152 543.931 339.152H540.411V346.96ZM559.888 358V339.248H553.552V337.008H568.912V339.248H562.576V358H559.888Z" fill="black"/>
<path d="M1053.3 358V337.008H1059.54C1060.97 337.008 1062.22 337.179 1063.29 337.52C1064.37 337.861 1065.22 338.405 1065.81 339.152C1066.43 339.899 1066.74 340.891 1066.74 342.128C1066.74 343.173 1066.48 344.123 1065.94 344.976C1065.43 345.808 1064.67 346.384 1063.67 346.704V346.832C1064.93 347.067 1065.95 347.6 1066.74 348.432C1067.55 349.264 1067.96 350.405 1067.96 351.856C1067.96 353.221 1067.62 354.363 1066.93 355.28C1066.27 356.197 1065.34 356.88 1064.15 357.328C1062.96 357.776 1061.57 358 1059.99 358H1053.3ZM1055.96 345.936H1059.06C1060.85 345.936 1062.14 345.627 1062.93 345.008C1063.72 344.389 1064.12 343.547 1064.12 342.48C1064.12 341.264 1063.7 340.4 1062.87 339.888C1062.06 339.376 1060.83 339.12 1059.19 339.12H1055.96V345.936ZM1055.96 355.888H1059.61C1061.42 355.888 1062.83 355.557 1063.83 354.896C1064.83 354.213 1065.33 353.168 1065.33 351.76C1065.33 350.459 1064.83 349.509 1063.83 348.912C1062.85 348.293 1061.44 347.984 1059.61 347.984H1055.96V355.888ZM1075.73 346.256L1074.74 349.456H1081.04L1080.05 346.256C1079.67 345.083 1079.3 343.92 1078.96 342.768C1078.62 341.595 1078.28 340.4 1077.94 339.184H1077.81C1077.49 340.4 1077.16 341.595 1076.82 342.768C1076.48 343.92 1076.11 345.083 1075.73 346.256ZM1069.33 358L1076.43 337.008H1079.44L1086.55 358H1083.7L1081.71 351.6H1074.07L1072.05 358H1069.33ZM1089.52 358V337.008H1096.08C1097.51 337.008 1098.78 337.2 1099.89 337.584C1101 337.947 1101.86 338.565 1102.48 339.44C1103.12 340.293 1103.44 341.445 1103.44 342.896C1103.44 344.517 1103.01 345.829 1102.16 346.832C1101.31 347.813 1100.16 348.485 1098.7 348.848L1104.05 358H1101.04L1095.98 349.136H1092.18V358H1089.52ZM1092.18 346.96H1095.7C1097.34 346.96 1098.6 346.629 1099.47 345.968C1100.35 345.285 1100.78 344.261 1100.78 342.896C1100.78 341.509 1100.35 340.539 1099.47 339.984C1098.6 339.429 1097.34 339.152 1095.7 339.152H1092.18V346.96ZM1111.65 358V339.248H1105.32V337.008H1120.68V339.248H1114.34V358H1111.65Z" fill="black"/>
<path d="M1020.97 448V427.008H1026.22C1029.46 427.008 1031.93 427.915 1033.61 429.728C1035.3 431.52 1036.14 434.08 1036.14 437.408C1036.14 440.757 1035.3 443.36 1033.61 445.216C1031.95 447.072 1029.53 448 1026.35 448H1020.97ZM1023.63 445.824H1026.03C1028.48 445.824 1030.32 445.088 1031.53 443.616C1032.77 442.123 1033.39 440.053 1033.39 437.408C1033.39 434.763 1032.77 432.736 1031.53 431.328C1030.32 429.899 1028.48 429.184 1026.03 429.184H1023.63V445.824ZM1040.41 448V432.448H1043.03V448H1040.41ZM1041.75 429.248C1041.24 429.248 1040.81 429.099 1040.47 428.8C1040.15 428.48 1039.99 428.053 1039.99 427.52C1039.99 427.008 1040.15 426.592 1040.47 426.272C1040.81 425.952 1041.24 425.792 1041.75 425.792C1042.26 425.792 1042.68 425.952 1043 426.272C1043.34 426.592 1043.51 427.008 1043.51 427.52C1043.51 428.053 1043.34 428.48 1043 428.8C1042.68 429.099 1042.26 429.248 1041.75 429.248ZM1052.34 448.384C1051.23 448.384 1050.18 448.181 1049.18 447.776C1048.17 447.349 1047.3 446.837 1046.55 446.24L1047.86 444.48C1048.55 445.013 1049.25 445.461 1049.98 445.824C1050.7 446.165 1051.52 446.336 1052.44 446.336C1053.46 446.336 1054.23 446.101 1054.74 445.632C1055.26 445.141 1055.51 444.565 1055.51 443.904C1055.51 443.371 1055.33 442.923 1054.97 442.56C1054.63 442.197 1054.18 441.899 1053.62 441.664C1053.09 441.408 1052.54 441.173 1051.96 440.96C1051.23 440.683 1050.52 440.373 1049.82 440.032C1049.11 439.669 1048.54 439.211 1048.09 438.656C1047.64 438.08 1047.42 437.355 1047.42 436.48C1047.42 435.221 1047.89 434.176 1048.82 433.344C1049.78 432.491 1051.11 432.064 1052.79 432.064C1053.75 432.064 1054.65 432.235 1055.48 432.576C1056.31 432.917 1057.03 433.333 1057.62 433.824L1056.34 435.488C1055.81 435.083 1055.26 434.752 1054.68 434.496C1054.1 434.24 1053.47 434.112 1052.79 434.112C1051.81 434.112 1051.09 434.336 1050.62 434.784C1050.17 435.232 1049.94 435.755 1049.94 436.352C1049.94 436.843 1050.1 437.248 1050.42 437.568C1050.74 437.867 1051.16 438.133 1051.67 438.368C1052.18 438.581 1052.73 438.805 1053.3 439.04C1054.05 439.317 1054.79 439.637 1055.51 440C1056.24 440.341 1056.83 440.811 1057.3 441.408C1057.79 441.984 1058.04 442.763 1058.04 443.744C1058.04 444.576 1057.82 445.344 1057.37 446.048C1056.94 446.752 1056.3 447.317 1055.45 447.744C1054.62 448.171 1053.58 448.384 1052.34 448.384ZM1065.96 448.384C1064.29 448.384 1063.13 447.904 1062.47 446.944C1061.83 445.984 1061.51 444.736 1061.51 443.2V434.592H1059.21V432.608L1061.64 432.448L1061.96 428.096H1064.17V432.448H1068.36V434.592H1064.17V443.232C1064.17 444.192 1064.34 444.939 1064.68 445.472C1065.04 445.984 1065.67 446.24 1066.57 446.24C1066.84 446.24 1067.14 446.197 1067.46 446.112C1067.78 446.005 1068.07 445.909 1068.33 445.824L1068.84 447.808C1068.41 447.957 1067.94 448.085 1067.43 448.192C1066.94 448.32 1066.45 448.384 1065.96 448.384ZM1071.87 448V432.448H1074.5V448H1071.87ZM1073.22 429.248C1072.71 429.248 1072.28 429.099 1071.94 428.8C1071.62 428.48 1071.46 428.053 1071.46 427.52C1071.46 427.008 1071.62 426.592 1071.94 426.272C1072.28 425.952 1072.71 425.792 1073.22 425.792C1073.73 425.792 1074.15 425.952 1074.47 426.272C1074.81 426.592 1074.98 427.008 1074.98 427.52C1074.98 428.053 1074.81 428.48 1074.47 428.8C1074.15 429.099 1073.73 429.248 1073.22 429.248ZM1082.53 448.384C1081.55 448.384 1080.84 448.085 1080.39 447.488C1079.96 446.869 1079.75 445.995 1079.75 444.864V425.216H1082.37V445.056C1082.37 445.461 1082.45 445.76 1082.6 445.952C1082.75 446.123 1082.92 446.208 1083.11 446.208C1083.19 446.208 1083.27 446.208 1083.33 446.208C1083.42 446.187 1083.54 446.165 1083.69 446.144L1084.04 448.128C1083.87 448.213 1083.66 448.277 1083.43 448.32C1083.19 448.363 1082.9 448.384 1082.53 448.384ZM1088.16 448V427.008H1094.4C1095.83 427.008 1097.08 427.179 1098.15 427.52C1099.23 427.861 1100.08 428.405 1100.67 429.152C1101.29 429.899 1101.6 430.891 1101.6 432.128C1101.6 433.173 1101.33 434.123 1100.8 434.976C1100.29 435.808 1099.53 436.384 1098.53 436.704V436.832C1099.79 437.067 1100.81 437.6 1101.6 438.432C1102.41 439.264 1102.82 440.405 1102.82 441.856C1102.82 443.221 1102.48 444.363 1101.79 445.28C1101.13 446.197 1100.2 446.88 1099.01 447.328C1097.81 447.776 1096.43 448 1094.85 448H1088.16ZM1090.82 435.936H1093.92C1095.71 435.936 1097 435.627 1097.79 435.008C1098.58 434.389 1098.98 433.547 1098.98 432.48C1098.98 431.264 1098.56 430.4 1097.73 429.888C1096.92 429.376 1095.69 429.12 1094.05 429.12H1090.82V435.936ZM1090.82 445.888H1094.47C1096.28 445.888 1097.69 445.557 1098.69 444.896C1099.69 444.213 1100.19 443.168 1100.19 441.76C1100.19 440.459 1099.69 439.509 1098.69 438.912C1097.71 438.293 1096.3 437.984 1094.47 437.984H1090.82V445.888ZM1106.97 448V427.008H1119.07V429.248H1109.63V435.84H1117.6V438.112H1109.63V445.728H1119.39V448H1106.97ZM1123.85 448V427.008H1130.41C1131.84 427.008 1133.11 427.2 1134.22 427.584C1135.33 427.947 1136.19 428.565 1136.81 429.44C1137.45 430.293 1137.77 431.445 1137.77 432.896C1137.77 434.517 1137.34 435.829 1136.49 436.832C1135.64 437.813 1134.48 438.485 1133.03 438.848L1138.38 448H1135.37L1130.31 439.136H1126.5V448H1123.85ZM1126.5 436.96H1130.02C1131.67 436.96 1132.93 436.629 1133.8 435.968C1134.68 435.285 1135.11 434.261 1135.11 432.896C1135.11 431.509 1134.68 430.539 1133.8 429.984C1132.93 429.429 1131.67 429.152 1130.02 429.152H1126.5V436.96ZM1145.98 448V429.248H1139.65V427.008H1155.01V429.248H1148.67V448H1145.98Z" fill="black"/>
<path d="M1312.32 434V413.008H1314.97V431.728H1324.16V434H1312.32ZM1333.3 434.384C1332.04 434.384 1330.85 434.064 1329.75 433.424C1328.66 432.784 1327.77 431.856 1327.09 430.64C1326.43 429.424 1326.1 427.963 1326.1 426.256C1326.1 424.507 1326.43 423.024 1327.09 421.808C1327.77 420.592 1328.66 419.664 1329.75 419.024C1330.85 418.384 1332.04 418.064 1333.3 418.064C1334.58 418.064 1335.76 418.384 1336.85 419.024C1337.94 419.664 1338.81 420.592 1339.47 421.808C1340.16 423.024 1340.5 424.507 1340.5 426.256C1340.5 427.963 1340.16 429.424 1339.47 430.64C1338.81 431.856 1337.94 432.784 1336.85 433.424C1335.76 434.064 1334.58 434.384 1333.3 434.384ZM1333.3 432.208C1334.64 432.208 1335.72 431.664 1336.53 430.576C1337.36 429.467 1337.78 428.027 1337.78 426.256C1337.78 424.464 1337.36 423.013 1336.53 421.904C1335.72 420.795 1334.64 420.24 1333.3 420.24C1331.97 420.24 1330.9 420.795 1330.07 421.904C1329.23 423.013 1328.82 424.464 1328.82 426.256C1328.82 428.027 1329.23 429.467 1330.07 430.576C1330.9 431.664 1331.97 432.208 1333.3 432.208ZM1344.59 434V418.448H1346.77L1346.99 420.688H1347.09C1347.84 419.941 1348.62 419.323 1349.46 418.832C1350.29 418.32 1351.24 418.064 1352.3 418.064C1353.95 418.064 1355.14 418.587 1355.89 419.632C1356.66 420.656 1357.04 422.16 1357.04 424.144V434H1354.42V424.496C1354.42 423.045 1354.18 421.989 1353.71 421.328C1353.24 420.667 1352.5 420.336 1351.47 420.336C1350.68 420.336 1349.97 420.539 1349.33 420.944C1348.71 421.349 1348.01 421.947 1347.22 422.736V434H1344.59ZM1367.34 441.168C1365.44 441.168 1363.9 440.805 1362.7 440.08C1361.51 439.355 1360.91 438.32 1360.91 436.976C1360.91 436.315 1361.11 435.675 1361.52 435.056C1361.92 434.459 1362.48 433.925 1363.18 433.456V433.328C1362.8 433.093 1362.47 432.763 1362.19 432.336C1361.93 431.909 1361.8 431.397 1361.8 430.8C1361.8 430.139 1361.99 429.563 1362.35 429.072C1362.71 428.581 1363.1 428.197 1363.5 427.92V427.792C1362.99 427.365 1362.52 426.789 1362.09 426.064C1361.69 425.339 1361.48 424.517 1361.48 423.6C1361.48 422.469 1361.75 421.488 1362.28 420.656C1362.82 419.824 1363.53 419.184 1364.43 418.736C1365.32 418.288 1366.3 418.064 1367.34 418.064C1367.77 418.064 1368.17 418.107 1368.56 418.192C1368.94 418.256 1369.27 418.341 1369.55 418.448H1374.96V420.464H1371.76C1372.12 420.805 1372.42 421.264 1372.65 421.84C1372.91 422.395 1373.04 423.003 1373.04 423.664C1373.04 424.773 1372.78 425.733 1372.27 426.544C1371.76 427.355 1371.07 427.984 1370.22 428.432C1369.37 428.859 1368.41 429.072 1367.34 429.072C1366.51 429.072 1365.73 428.891 1365 428.528C1364.73 428.763 1364.49 429.029 1364.3 429.328C1364.11 429.605 1364.01 429.957 1364.01 430.384C1364.01 430.875 1364.2 431.28 1364.59 431.6C1364.99 431.92 1365.72 432.08 1366.76 432.08H1369.77C1371.59 432.08 1372.94 432.379 1373.84 432.976C1374.75 433.552 1375.21 434.491 1375.21 435.792C1375.21 436.752 1374.89 437.637 1374.25 438.448C1373.61 439.259 1372.71 439.909 1371.53 440.4C1370.36 440.912 1368.96 441.168 1367.34 441.168ZM1367.34 427.312C1368.24 427.312 1369 426.981 1369.64 426.32C1370.31 425.637 1370.64 424.731 1370.64 423.6C1370.64 422.469 1370.32 421.584 1369.68 420.944C1369.04 420.304 1368.26 419.984 1367.34 419.984C1366.42 419.984 1365.64 420.304 1365 420.944C1364.36 421.584 1364.04 422.469 1364.04 423.6C1364.04 424.731 1364.36 425.637 1365 426.32C1365.67 426.981 1366.44 427.312 1367.34 427.312ZM1367.72 439.344C1369.22 439.344 1370.41 439.013 1371.31 438.352C1372.2 437.712 1372.65 436.987 1372.65 436.176C1372.65 435.451 1372.38 434.949 1371.82 434.672C1371.29 434.395 1370.52 434.256 1369.52 434.256H1366.83C1366.53 434.256 1366.2 434.235 1365.84 434.192C1365.5 434.149 1365.15 434.085 1364.81 434C1364.26 434.405 1363.85 434.832 1363.6 435.28C1363.34 435.728 1363.21 436.176 1363.21 436.624C1363.21 437.456 1363.61 438.117 1364.4 438.608C1365.21 439.099 1366.32 439.344 1367.72 439.344ZM1378.67 434V420.592H1376.55V418.608L1378.67 418.448V415.984C1378.67 414.405 1379.03 413.157 1379.75 412.24C1380.5 411.301 1381.65 410.832 1383.21 410.832C1383.7 410.832 1384.17 410.885 1384.62 410.992C1385.07 411.077 1385.46 411.195 1385.8 411.344L1385.23 413.36C1384.65 413.104 1384.06 412.976 1383.47 412.976C1382.02 412.976 1381.29 413.979 1381.29 415.984V418.448H1384.59V420.592H1381.29V434H1378.67ZM1393.3 434.384C1392.04 434.384 1390.85 434.064 1389.75 433.424C1388.66 432.784 1387.77 431.856 1387.09 430.64C1386.43 429.424 1386.1 427.963 1386.1 426.256C1386.1 424.507 1386.43 423.024 1387.09 421.808C1387.77 420.592 1388.66 419.664 1389.75 419.024C1390.85 418.384 1392.04 418.064 1393.3 418.064C1394.58 418.064 1395.76 418.384 1396.85 419.024C1397.94 419.664 1398.81 420.592 1399.47 421.808C1400.16 423.024 1400.5 424.507 1400.5 426.256C1400.5 427.963 1400.16 429.424 1399.47 430.64C1398.81 431.856 1397.94 432.784 1396.85 433.424C1395.76 434.064 1394.58 434.384 1393.3 434.384ZM1393.3 432.208C1394.64 432.208 1395.72 431.664 1396.53 430.576C1397.36 429.467 1397.78 428.027 1397.78 426.256C1397.78 424.464 1397.36 423.013 1396.53 421.904C1395.72 420.795 1394.64 420.24 1393.3 420.24C1391.97 420.24 1390.9 420.795 1390.07 421.904C1389.23 423.013 1388.82 424.464 1388.82 426.256C1388.82 428.027 1389.23 429.467 1390.07 430.576C1390.9 431.664 1391.97 432.208 1393.3 432.208ZM1404.59 434V418.448H1406.77L1406.99 421.264H1407.09C1407.62 420.283 1408.27 419.504 1409.04 418.928C1409.81 418.352 1410.63 418.064 1411.5 418.064C1412.12 418.064 1412.68 418.171 1413.17 418.384L1412.66 420.688C1412.4 420.603 1412.17 420.539 1411.95 420.496C1411.74 420.453 1411.47 420.432 1411.15 420.432C1410.49 420.432 1409.8 420.699 1409.07 421.232C1408.37 421.765 1407.75 422.693 1407.22 424.016V434H1404.59ZM1415.69 434V418.448H1417.86L1418.09 420.688H1418.18C1418.87 419.941 1419.61 419.323 1420.42 418.832C1421.23 418.32 1422.1 418.064 1423.01 418.064C1424.21 418.064 1425.14 418.331 1425.8 418.864C1426.48 419.376 1426.98 420.101 1427.3 421.04C1428.11 420.165 1428.93 419.451 1429.77 418.896C1430.6 418.341 1431.48 418.064 1432.42 418.064C1434.02 418.064 1435.21 418.587 1435.97 419.632C1436.76 420.656 1437.16 422.16 1437.16 424.144V434H1434.53V424.496C1434.53 423.045 1434.3 421.989 1433.83 421.328C1433.36 420.667 1432.64 420.336 1431.65 420.336C1430.5 420.336 1429.2 421.136 1427.75 422.736V434H1425.13V424.496C1425.13 423.045 1424.89 421.989 1424.42 421.328C1423.95 420.667 1423.22 420.336 1422.21 420.336C1421.06 420.336 1419.76 421.136 1418.31 422.736V434H1415.69ZM1448.52 434.384C1447.14 434.384 1445.88 434.064 1444.75 433.424C1443.62 432.763 1442.72 431.824 1442.06 430.608C1441.4 429.392 1441.07 427.941 1441.07 426.256C1441.07 424.549 1441.4 423.088 1442.06 421.872C1442.74 420.656 1443.62 419.717 1444.68 419.056C1445.75 418.395 1446.87 418.064 1448.04 418.064C1450.03 418.064 1451.55 418.725 1452.62 420.048C1453.71 421.371 1454.25 423.141 1454.25 425.36C1454.25 425.637 1454.24 425.915 1454.22 426.192C1454.22 426.448 1454.2 426.672 1454.15 426.864H1443.66C1443.76 428.507 1444.28 429.819 1445.19 430.8C1446.13 431.781 1447.35 432.272 1448.84 432.272C1449.59 432.272 1450.27 432.165 1450.89 431.952C1451.53 431.717 1452.14 431.419 1452.71 431.056L1453.64 432.784C1452.98 433.211 1452.22 433.584 1451.37 433.904C1450.54 434.224 1449.59 434.384 1448.52 434.384ZM1443.63 424.976H1451.95C1451.95 423.397 1451.6 422.203 1450.92 421.392C1450.26 420.56 1449.32 420.144 1448.11 420.144C1447.02 420.144 1446.04 420.571 1445.16 421.424C1444.31 422.256 1443.8 423.44 1443.63 424.976ZM1458.09 434V418.448H1460.27L1460.49 421.264H1460.59C1461.12 420.283 1461.77 419.504 1462.54 418.928C1463.31 418.352 1464.13 418.064 1465 418.064C1465.62 418.064 1466.18 418.171 1466.67 418.384L1466.16 420.688C1465.9 420.603 1465.67 420.539 1465.45 420.496C1465.24 420.453 1464.97 420.432 1464.65 420.432C1463.99 420.432 1463.3 420.699 1462.57 421.232C1461.87 421.765 1461.25 422.693 1460.72 424.016V434H1458.09Z" fill="black"/>
<path d="M659.871 271L665.983 260.152L660.287 250.008H663.231L666.079 255.384C666.356 255.853 666.612 256.323 666.847 256.792C667.103 257.261 667.391 257.805 667.711 258.424H667.839C668.137 257.805 668.393 257.261 668.607 256.792C668.841 256.323 669.087 255.853 669.343 255.384L672.127 250.008H674.943L669.215 260.28L675.327 271H672.383L669.311 265.336C669.033 264.824 668.745 264.301 668.447 263.768C668.169 263.213 667.86 262.616 667.519 261.976H667.391C667.092 262.616 666.804 263.213 666.527 263.768C666.249 264.301 665.983 264.824 665.727 265.336L662.687 271H659.871ZM678.677 271V250.008H681.333V268.728H690.517V271H678.677ZM694.239 271V250.008H697.439L701.471 261.208C701.727 261.933 701.973 262.669 702.207 263.416C702.463 264.141 702.719 264.867 702.975 265.592H703.103C703.359 264.867 703.594 264.141 703.807 263.416C704.042 262.669 704.287 261.933 704.543 261.208L708.511 250.008H711.743V271H709.247V259.448C709.247 258.509 709.29 257.475 709.375 256.344C709.461 255.192 709.535 254.157 709.599 253.24H709.471L707.807 258.008L703.839 268.888H702.079L698.111 258.008L696.447 253.24H696.319C696.383 254.157 696.447 255.192 696.511 256.344C696.597 257.475 696.639 258.509 696.639 259.448V271H694.239Z" fill="black"/>
<path d="M837.949 425L844.061 414.152L838.365 404.008H841.309L844.157 409.384C844.434 409.853 844.69 410.323 844.925 410.792C845.181 411.261 845.469 411.805 845.789 412.424H845.917C846.215 411.805 846.471 411.261 846.685 410.792C846.919 410.323 847.165 409.853 847.421 409.384L850.205 404.008H853.021L847.293 414.28L853.405 425H850.461L847.389 419.336C847.111 418.824 846.823 418.301 846.525 417.768C846.247 417.213 845.938 416.616 845.597 415.976H845.469C845.17 416.616 844.882 417.213 844.605 417.768C844.327 418.301 844.061 418.824 843.805 419.336L840.765 425H837.949ZM856.755 425V404.008H859.411V422.728H868.595V425H856.755ZM872.318 425V404.008H875.07L882.654 417.192L884.926 421.544H885.054C884.99 420.477 884.915 419.379 884.83 418.248C884.766 417.096 884.734 415.965 884.734 414.856V404.008H887.262V425H884.51L876.894 411.784L874.622 407.464H874.494C874.579 408.509 874.654 409.587 874.718 410.696C874.803 411.805 874.846 412.915 874.846 414.024V425H872.318ZM899.084 425.384C897.698 425.384 896.439 425.064 895.308 424.424C894.178 423.763 893.282 422.824 892.62 421.608C891.959 420.392 891.628 418.941 891.628 417.256C891.628 415.549 891.959 414.088 892.62 412.872C893.303 411.656 894.178 410.717 895.244 410.056C896.311 409.395 897.431 409.064 898.604 409.064C900.588 409.064 902.114 409.725 903.18 411.048C904.268 412.371 904.812 414.141 904.812 416.36C904.812 416.637 904.802 416.915 904.78 417.192C904.78 417.448 904.759 417.672 904.716 417.864H894.22C894.327 419.507 894.839 420.819 895.756 421.8C896.695 422.781 897.911 423.272 899.404 423.272C900.151 423.272 900.834 423.165 901.452 422.952C902.092 422.717 902.7 422.419 903.276 422.056L904.204 423.784C903.543 424.211 902.786 424.584 901.932 424.904C901.1 425.224 900.151 425.384 899.084 425.384ZM894.188 415.976H902.508C902.508 414.397 902.167 413.203 901.484 412.392C900.823 411.56 899.884 411.144 898.668 411.144C897.58 411.144 896.599 411.571 895.724 412.424C894.871 413.256 894.359 414.44 894.188 415.976ZM913.239 425.384C911.575 425.384 910.412 424.904 909.751 423.944C909.111 422.984 908.791 421.736 908.791 420.2V411.592H906.487V409.608L908.919 409.448L909.239 405.096H911.447V409.448H915.639V411.592H911.447V420.232C911.447 421.192 911.617 421.939 911.959 422.472C912.321 422.984 912.951 423.24 913.847 423.24C914.124 423.24 914.423 423.197 914.743 423.112C915.063 423.005 915.351 422.909 915.607 422.824L916.119 424.808C915.692 424.957 915.223 425.085 914.711 425.192C914.22 425.32 913.729 425.384 913.239 425.384Z" fill="black"/>
<path d="M966.699 219.256L965.707 222.456H972.011L971.019 219.256C970.635 218.083 970.272 216.92 969.931 215.768C969.59 214.595 969.248 213.4 968.907 212.184H968.779C968.459 213.4 968.128 214.595 967.787 215.768C967.446 216.92 967.083 218.083 966.699 219.256ZM960.299 231L967.403 210.008H970.411L977.515 231H974.667L972.683 224.6H965.035L963.019 231H960.299ZM980.489 231V210.008H983.145V228.728H992.329V231H980.489ZM996.052 231V210.008H1002.29C1003.72 210.008 1004.97 210.179 1006.04 210.52C1007.12 210.861 1007.97 211.405 1008.56 212.152C1009.18 212.899 1009.49 213.891 1009.49 215.128C1009.49 216.173 1009.23 217.123 1008.69 217.976C1008.18 218.808 1007.42 219.384 1006.42 219.704V219.832C1007.68 220.067 1008.7 220.6 1009.49 221.432C1010.3 222.264 1010.71 223.405 1010.71 224.856C1010.71 226.221 1010.37 227.363 1009.68 228.28C1009.02 229.197 1008.09 229.88 1006.9 230.328C1005.71 230.776 1004.32 231 1002.74 231H996.052ZM998.708 218.936H1001.81C1003.6 218.936 1004.89 218.627 1005.68 218.008C1006.47 217.389 1006.87 216.547 1006.87 215.48C1006.87 214.264 1006.45 213.4 1005.62 212.888C1004.81 212.376 1003.58 212.12 1001.94 212.12H998.708V218.936ZM998.708 228.888H1002.36C1004.17 228.888 1005.58 228.557 1006.58 227.896C1007.58 227.213 1008.08 226.168 1008.08 224.76C1008.08 223.459 1007.58 222.509 1006.58 221.912C1005.6 221.293 1004.19 220.984 1002.36 220.984H998.708V228.888ZM1014.86 231V210.008H1026.96V212.248H1017.52V218.84H1025.49V221.112H1017.52V228.728H1027.28V231H1014.86ZM1031.74 231V210.008H1038.3C1039.73 210.008 1041 210.2 1042.11 210.584C1043.22 210.947 1044.08 211.565 1044.7 212.44C1045.34 213.293 1045.66 214.445 1045.66 215.896C1045.66 217.517 1045.23 218.829 1044.38 219.832C1043.53 220.813 1042.37 221.485 1040.92 221.848L1046.27 231H1043.26L1038.2 222.136H1034.4V231H1031.74ZM1034.4 219.96H1037.92C1039.56 219.96 1040.82 219.629 1041.69 218.968C1042.57 218.285 1043 217.261 1043 215.896C1043 214.509 1042.57 213.539 1041.69 212.984C1040.82 212.429 1039.56 212.152 1037.92 212.152H1034.4V219.96ZM1053.87 231V212.248H1047.54V210.008H1062.9V212.248H1056.56V231H1053.87Z" fill="black"/>
<path d="M1213.04 254V233.008H1225.13V235.248H1215.69V241.84H1223.66V244.112H1215.69V251.728H1225.45V254H1213.04ZM1229.91 254V233.008H1232.57V251.728H1241.75V254H1229.91ZM1245.47 254V233.008H1257.57V235.248H1248.13V241.84H1256.1V244.112H1248.13V251.728H1257.89V254H1245.47ZM1270.28 254.384C1268.54 254.384 1266.97 253.957 1265.58 253.104C1264.22 252.229 1263.13 250.981 1262.32 249.36C1261.53 247.739 1261.13 245.787 1261.13 243.504C1261.13 241.243 1261.54 239.301 1262.35 237.68C1263.16 236.059 1264.27 234.811 1265.68 233.936C1267.08 233.061 1268.67 232.624 1270.44 232.624C1271.72 232.624 1272.86 232.891 1273.84 233.424C1274.82 233.936 1275.61 234.533 1276.2 235.216L1274.76 236.944C1274.21 236.347 1273.58 235.867 1272.88 235.504C1272.17 235.141 1271.37 234.96 1270.48 234.96C1269.15 234.96 1267.99 235.312 1266.99 236.016C1266.01 236.699 1265.24 237.669 1264.68 238.928C1264.15 240.187 1263.88 241.691 1263.88 243.44C1263.88 245.189 1264.15 246.715 1264.68 248.016C1265.22 249.296 1265.96 250.288 1266.92 250.992C1267.91 251.696 1269.06 252.048 1270.38 252.048C1271.38 252.048 1272.28 251.835 1273.07 251.408C1273.86 250.981 1274.58 250.405 1275.24 249.68L1276.72 251.344C1275.88 252.304 1274.95 253.051 1273.9 253.584C1272.86 254.117 1271.65 254.384 1270.28 254.384ZM1284.42 254V235.248H1278.08V233.008H1293.44V235.248H1287.11V254H1284.42ZM1297.22 254V233.008H1303.78C1305.21 233.008 1306.48 233.2 1307.59 233.584C1308.7 233.947 1309.57 234.565 1310.18 235.44C1310.82 236.293 1311.14 237.445 1311.14 238.896C1311.14 240.517 1310.72 241.829 1309.86 242.832C1309.01 243.813 1307.86 244.485 1306.41 244.848L1311.75 254H1308.74L1303.69 245.136H1299.88V254H1297.22ZM1299.88 242.96H1303.4C1305.04 242.96 1306.3 242.629 1307.18 241.968C1308.05 241.285 1308.49 240.261 1308.49 238.896C1308.49 237.509 1308.05 236.539 1307.18 235.984C1306.3 235.429 1305.04 235.152 1303.4 235.152H1299.88V242.96ZM1318.93 242.256L1317.94 245.456H1324.25L1323.25 242.256C1322.87 241.083 1322.51 239.92 1322.17 238.768C1321.82 237.595 1321.48 236.4 1321.14 235.184H1321.01C1320.69 236.4 1320.36 237.595 1320.02 238.768C1319.68 239.92 1319.32 241.083 1318.93 242.256ZM1312.53 254L1319.64 233.008H1322.65L1329.75 254H1326.9L1324.92 247.6H1317.27L1315.25 254H1312.53Z" fill="black"/>
<path d="M1345.9 335V314.008H1351.14C1354.39 314.008 1356.85 314.915 1358.54 316.728C1360.22 318.52 1361.06 321.08 1361.06 324.408C1361.06 327.757 1360.22 330.36 1358.54 332.216C1356.87 334.072 1354.45 335 1351.27 335H1345.9ZM1348.55 332.824H1350.95C1353.4 332.824 1355.24 332.088 1356.46 330.616C1357.69 329.123 1358.31 327.053 1358.31 324.408C1358.31 321.763 1357.69 319.736 1356.46 318.328C1355.24 316.899 1353.4 316.184 1350.95 316.184H1348.55V332.824ZM1371.63 335.384C1370.24 335.384 1368.99 335.064 1367.86 334.424C1366.72 333.763 1365.83 332.824 1365.17 331.608C1364.51 330.392 1364.18 328.941 1364.18 327.256C1364.18 325.549 1364.51 324.088 1365.17 322.872C1365.85 321.656 1366.72 320.717 1367.79 320.056C1368.86 319.395 1369.98 319.064 1371.15 319.064C1373.14 319.064 1374.66 319.725 1375.73 321.048C1376.82 322.371 1377.36 324.141 1377.36 326.36C1377.36 326.637 1377.35 326.915 1377.33 327.192C1377.33 327.448 1377.31 327.672 1377.26 327.864H1366.77C1366.87 329.507 1367.39 330.819 1368.3 331.8C1369.24 332.781 1370.46 333.272 1371.95 333.272C1372.7 333.272 1373.38 333.165 1374 332.952C1374.64 332.717 1375.25 332.419 1375.82 332.056L1376.75 333.784C1376.09 334.211 1375.33 334.584 1374.48 334.904C1373.65 335.224 1372.7 335.384 1371.63 335.384ZM1366.74 325.976H1375.06C1375.06 324.397 1374.71 323.203 1374.03 322.392C1373.37 321.56 1372.43 321.144 1371.22 321.144C1370.13 321.144 1369.15 321.571 1368.27 322.424C1367.42 323.256 1366.91 324.44 1366.74 325.976ZM1381.46 335V314.008H1387.7C1389.13 314.008 1390.38 314.179 1391.44 314.52C1392.53 314.861 1393.37 315.405 1393.97 316.152C1394.59 316.899 1394.9 317.891 1394.9 319.128C1394.9 320.173 1394.63 321.123 1394.1 321.976C1393.59 322.808 1392.83 323.384 1391.83 323.704V323.832C1393.08 324.067 1394.11 324.6 1394.9 325.432C1395.71 326.264 1396.11 327.405 1396.11 328.856C1396.11 330.221 1395.77 331.363 1395.09 332.28C1394.43 333.197 1393.5 333.88 1392.31 334.328C1391.11 334.776 1389.72 335 1388.15 335H1381.46ZM1384.11 322.936H1387.22C1389.01 322.936 1390.3 322.627 1391.09 322.008C1391.88 321.389 1392.27 320.547 1392.27 319.48C1392.27 318.264 1391.86 317.4 1391.03 316.888C1390.22 316.376 1388.99 316.12 1387.35 316.12H1384.11V322.936ZM1384.11 332.888H1387.76C1389.58 332.888 1390.98 332.557 1391.99 331.896C1392.99 331.213 1393.49 330.168 1393.49 328.76C1393.49 327.459 1392.99 326.509 1391.99 325.912C1391 325.293 1389.6 324.984 1387.76 324.984H1384.11V332.888ZM1400.27 335V314.008H1412.37V316.248H1402.93V322.84H1410.89V325.112H1402.93V332.728H1412.69V335H1400.27ZM1417.15 335V314.008H1423.71C1425.13 314.008 1426.4 314.2 1427.51 314.584C1428.62 314.947 1429.49 315.565 1430.11 316.44C1430.75 317.293 1431.07 318.445 1431.07 319.896C1431.07 321.517 1430.64 322.829 1429.79 323.832C1428.93 324.813 1427.78 325.485 1426.33 325.848L1431.67 335H1428.67L1423.61 326.136H1419.8V335H1417.15ZM1419.8 323.96H1423.32C1424.96 323.96 1426.22 323.629 1427.1 322.968C1427.97 322.285 1428.41 321.261 1428.41 319.896C1428.41 318.509 1427.97 317.539 1427.1 316.984C1426.22 316.429 1424.96 316.152 1423.32 316.152H1419.8V323.96ZM1439.28 335V316.248H1432.94V314.008H1448.3V316.248H1441.97V335H1439.28ZM1453.07 335.384C1451.77 335.384 1450.68 335 1449.8 334.232C1448.95 333.443 1448.52 332.355 1448.52 330.968C1448.52 329.261 1449.28 327.96 1450.8 327.064C1452.33 326.147 1454.75 325.507 1458.06 325.144C1458.06 324.483 1457.96 323.853 1457.77 323.256C1457.6 322.659 1457.28 322.179 1456.81 321.816C1456.36 321.432 1455.71 321.24 1454.86 321.24C1453.96 321.24 1453.12 321.411 1452.33 321.752C1451.54 322.093 1450.84 322.477 1450.22 322.904L1449.2 321.08C1449.92 320.611 1450.81 320.163 1451.85 319.736C1452.92 319.288 1454.07 319.064 1455.31 319.064C1457.21 319.064 1458.58 319.651 1459.44 320.824C1460.29 321.976 1460.72 323.523 1460.72 325.464V335H1458.54L1458.32 333.144H1458.22C1457.49 333.741 1456.69 334.264 1455.82 334.712C1454.97 335.16 1454.05 335.384 1453.07 335.384ZM1453.84 333.272C1454.58 333.272 1455.29 333.091 1455.95 332.728C1456.61 332.365 1457.31 331.853 1458.06 331.192V326.872C1455.48 327.192 1453.66 327.672 1452.62 328.312C1451.6 328.952 1451.08 329.773 1451.08 330.776C1451.08 331.651 1451.35 332.291 1451.88 332.696C1452.42 333.08 1453.07 333.272 1453.84 333.272Z" fill="black"/>
<path d="M1506.32 242V221.008H1509.52L1513.55 232.208C1513.81 232.933 1514.05 233.669 1514.29 234.416C1514.54 235.141 1514.8 235.867 1515.05 236.592H1515.18C1515.44 235.867 1515.67 235.141 1515.89 234.416C1516.12 233.669 1516.37 232.933 1516.62 232.208L1520.59 221.008H1523.82V242H1521.33V230.448C1521.33 229.509 1521.37 228.475 1521.45 227.344C1521.54 226.192 1521.61 225.157 1521.68 224.24H1521.55L1519.89 229.008L1515.92 239.888H1514.16L1510.19 229.008L1508.53 224.24H1508.4C1508.46 225.157 1508.53 226.192 1508.59 227.344C1508.67 228.475 1508.72 229.509 1508.72 230.448V242H1506.32ZM1527.97 242V240.432C1530.02 238.384 1531.75 236.592 1533.18 235.056C1534.61 233.499 1535.7 232.101 1536.45 230.864C1537.19 229.605 1537.57 228.432 1537.57 227.344C1537.57 226.171 1537.25 225.211 1536.61 224.464C1535.97 223.717 1535 223.344 1533.7 223.344C1532.84 223.344 1532.05 223.589 1531.33 224.08C1530.6 224.549 1529.94 225.125 1529.34 225.808L1527.84 224.304C1528.69 223.365 1529.6 222.619 1530.56 222.064C1531.54 221.488 1532.69 221.2 1534.02 221.2C1535.91 221.2 1537.41 221.755 1538.5 222.864C1539.58 223.952 1540.13 225.403 1540.13 227.216C1540.13 228.496 1539.76 229.797 1539.04 231.12C1538.34 232.421 1537.35 233.797 1536.1 235.248C1534.86 236.677 1533.43 238.235 1531.81 239.92C1532.36 239.877 1532.94 239.835 1533.54 239.792C1534.13 239.749 1534.7 239.728 1535.23 239.728H1541.15V242H1527.97ZM1545.47 242V221.008H1548.67L1552.71 232.208C1552.96 232.933 1553.21 233.669 1553.44 234.416C1553.7 235.141 1553.95 235.867 1554.21 236.592H1554.34C1554.59 235.867 1554.83 235.141 1555.04 234.416C1555.28 233.669 1555.52 232.933 1555.78 232.208L1559.75 221.008H1562.98V242H1560.48V230.448C1560.48 229.509 1560.52 228.475 1560.61 227.344C1560.7 226.192 1560.77 225.157 1560.83 224.24H1560.71L1559.04 229.008L1555.07 239.888H1553.31L1549.35 229.008L1547.68 224.24H1547.55C1547.62 225.157 1547.68 226.192 1547.75 227.344C1547.83 228.475 1547.87 229.509 1547.87 230.448V242H1545.47ZM1568.37 242V239.824H1573.04V224.784H1569.33V223.088C1570.27 222.917 1571.08 222.715 1571.76 222.48C1572.47 222.224 1573.1 221.925 1573.65 221.584H1575.67V239.824H1579.89V242H1568.37ZM1589.72 242.384C1587.67 242.384 1586.06 241.467 1584.89 239.632C1583.73 237.776 1583.16 235.141 1583.16 231.728C1583.16 228.293 1583.73 225.68 1584.89 223.888C1586.06 222.096 1587.67 221.2 1589.72 221.2C1591.74 221.2 1593.33 222.096 1594.49 223.888C1595.66 225.68 1596.25 228.293 1596.25 231.728C1596.25 235.141 1595.66 237.776 1594.49 239.632C1593.33 241.467 1591.74 242.384 1589.72 242.384ZM1589.72 240.272C1590.91 240.272 1591.87 239.6 1592.6 238.256C1593.32 236.891 1593.69 234.715 1593.69 231.728C1593.69 228.741 1593.32 226.597 1592.6 225.296C1591.87 223.973 1590.91 223.312 1589.72 223.312C1588.52 223.312 1587.55 223.973 1586.81 225.296C1586.08 226.597 1585.72 228.741 1585.72 231.728C1585.72 234.715 1586.08 236.891 1586.81 238.256C1587.55 239.6 1588.52 240.272 1589.72 240.272ZM1605.62 242.384C1603.58 242.384 1601.97 241.467 1600.79 239.632C1599.64 237.776 1599.06 235.141 1599.06 231.728C1599.06 228.293 1599.64 225.68 1600.79 223.888C1601.97 222.096 1603.58 221.2 1605.62 221.2C1607.65 221.2 1609.24 222.096 1610.39 223.888C1611.57 225.68 1612.15 228.293 1612.15 231.728C1612.15 235.141 1611.57 237.776 1610.39 239.632C1609.24 241.467 1607.65 242.384 1605.62 242.384ZM1605.62 240.272C1606.82 240.272 1607.78 239.6 1608.5 238.256C1609.23 236.891 1609.59 234.715 1609.59 231.728C1609.59 228.741 1609.23 226.597 1608.5 225.296C1607.78 223.973 1606.82 223.312 1605.62 223.312C1604.43 223.312 1603.46 223.973 1602.71 225.296C1601.99 226.597 1601.62 228.741 1601.62 231.728C1601.62 234.715 1601.99 236.891 1602.71 238.256C1603.46 239.6 1604.43 240.272 1605.62 240.272Z" fill="black"/>
<path d="M1606.05 373V352.008H1608.71V370.728H1617.89V373H1606.05ZM1628.13 373.384C1626.7 373.384 1625.41 373.096 1624.26 372.52C1623.13 371.944 1622.23 370.995 1621.57 369.672C1620.91 368.349 1620.58 366.568 1620.58 364.328V352.008H1623.24V364.392C1623.24 366.077 1623.45 367.411 1623.88 368.392C1624.32 369.352 1624.91 370.035 1625.64 370.44C1626.38 370.845 1627.22 371.048 1628.13 371.048C1629.07 371.048 1629.91 370.845 1630.66 370.44C1631.41 370.035 1631.99 369.352 1632.42 368.392C1632.87 367.411 1633.09 366.077 1633.09 364.392V352.008H1635.65V364.328C1635.65 366.568 1635.32 368.349 1634.66 369.672C1634 370.995 1633.1 371.944 1631.97 372.52C1630.84 373.096 1629.56 373.384 1628.13 373.384ZM1641.3 373V352.008H1643.96V362.536H1644.05L1652.79 352.008H1655.8L1649.24 360.008L1656.82 373H1653.85L1647.57 362.088L1643.96 366.344V373H1641.3ZM1659.83 373V352.008H1671.93V354.248H1662.49V360.84H1670.46V363.112H1662.49V370.728H1672.25V373H1659.83Z" fill="black"/>
<path d="M846.052 329V308.008H852.612C854.041 308.008 855.311 308.2 856.42 308.584C857.529 308.947 858.393 309.565 859.012 310.44C859.652 311.293 859.972 312.445 859.972 313.896C859.972 315.517 859.545 316.829 858.692 317.832C857.839 318.813 856.687 319.485 855.236 319.848L860.58 329H857.572L852.516 320.136H848.708V329H846.052ZM848.708 317.96H852.228C853.871 317.96 855.129 317.629 856.004 316.968C856.879 316.285 857.316 315.261 857.316 313.896C857.316 312.509 856.879 311.539 856.004 310.984C855.129 310.429 853.871 310.152 852.228 310.152H848.708V317.96ZM869.75 329.384C868.491 329.384 867.307 329.064 866.198 328.424C865.11 327.784 864.225 326.856 863.542 325.64C862.881 324.424 862.55 322.963 862.55 321.256C862.55 319.507 862.881 318.024 863.542 316.808C864.225 315.592 865.11 314.664 866.198 314.024C867.307 313.384 868.491 313.064 869.75 313.064C871.03 313.064 872.214 313.384 873.302 314.024C874.39 314.664 875.265 315.592 875.926 316.808C876.609 318.024 876.95 319.507 876.95 321.256C876.95 322.963 876.609 324.424 875.926 325.64C875.265 326.856 874.39 327.784 873.302 328.424C872.214 329.064 871.03 329.384 869.75 329.384ZM869.75 327.208C871.094 327.208 872.171 326.664 872.982 325.576C873.814 324.467 874.23 323.027 874.23 321.256C874.23 319.464 873.814 318.013 872.982 316.904C872.171 315.795 871.094 315.24 869.75 315.24C868.427 315.24 867.35 315.795 866.518 316.904C865.686 318.013 865.27 319.464 865.27 321.256C865.27 323.027 865.686 324.467 866.518 325.576C867.35 326.664 868.427 327.208 869.75 327.208ZM881.302 329V308.008H887.542C888.971 308.008 890.219 308.179 891.286 308.52C892.374 308.861 893.217 309.405 893.814 310.152C894.433 310.899 894.742 311.891 894.742 313.128C894.742 314.173 894.475 315.123 893.942 315.976C893.43 316.808 892.673 317.384 891.67 317.704V317.832C892.929 318.067 893.953 318.6 894.742 319.432C895.553 320.264 895.958 321.405 895.958 322.856C895.958 324.221 895.617 325.363 894.934 326.28C894.273 327.197 893.345 327.88 892.15 328.328C890.955 328.776 889.569 329 887.99 329H881.302ZM883.958 316.936H887.062C888.854 316.936 890.145 316.627 890.934 316.008C891.723 315.389 892.118 314.547 892.118 313.48C892.118 312.264 891.702 311.4 890.87 310.888C890.059 310.376 888.833 310.12 887.19 310.12H883.958V316.936ZM883.958 326.888H887.606C889.419 326.888 890.827 326.557 891.83 325.896C892.833 325.213 893.334 324.168 893.334 322.76C893.334 321.459 892.833 320.509 891.83 319.912C890.849 319.293 889.441 318.984 887.606 318.984H883.958V326.888ZM900.114 329V308.008H912.21V310.248H902.77V316.84H910.738V319.112H902.77V326.728H912.53V329H900.114ZM916.989 329V308.008H923.549C924.979 308.008 926.248 308.2 927.357 308.584C928.467 308.947 929.331 309.565 929.949 310.44C930.589 311.293 930.909 312.445 930.909 313.896C930.909 315.517 930.483 316.829 929.629 317.832C928.776 318.813 927.624 319.485 926.173 319.848L931.517 329H928.509L923.453 320.136H919.645V329H916.989ZM919.645 317.96H923.165C924.808 317.96 926.067 317.629 926.941 316.968C927.816 316.285 928.253 315.261 928.253 313.896C928.253 312.509 927.816 311.539 926.941 310.984C926.067 310.429 924.808 310.152 923.165 310.152H919.645V317.96ZM939.123 329V310.248H932.787V308.008H948.147V310.248H941.811V329H939.123ZM952.911 329.384C951.61 329.384 950.522 329 949.647 328.232C948.794 327.443 948.367 326.355 948.367 324.968C948.367 323.261 949.124 321.96 950.639 321.064C952.175 320.147 954.596 319.507 957.903 319.144C957.903 318.483 957.807 317.853 957.615 317.256C957.444 316.659 957.124 316.179 956.655 315.816C956.207 315.432 955.556 315.24 954.703 315.24C953.807 315.24 952.964 315.411 952.175 315.752C951.386 316.093 950.682 316.477 950.063 316.904L949.039 315.08C949.764 314.611 950.65 314.163 951.695 313.736C952.762 313.288 953.914 313.064 955.151 313.064C957.05 313.064 958.426 313.651 959.279 314.824C960.132 315.976 960.559 317.523 960.559 319.464V329H958.383L958.159 327.144H958.063C957.338 327.741 956.538 328.264 955.663 328.712C954.81 329.16 953.892 329.384 952.911 329.384ZM953.679 327.272C954.426 327.272 955.13 327.091 955.791 326.728C956.452 326.365 957.156 325.853 957.903 325.192V320.872C955.322 321.192 953.508 321.672 952.463 322.312C951.439 322.952 950.927 323.773 950.927 324.776C950.927 325.651 951.194 326.291 951.727 326.696C952.26 327.08 952.911 327.272 953.679 327.272Z" fill="black"/>
<path d="M724.261 178.384C722.426 178.384 720.794 177.957 719.365 177.104C717.936 176.229 716.816 174.981 716.005 173.36C715.194 171.739 714.789 169.787 714.789 167.504C714.789 165.243 715.205 163.301 716.037 161.68C716.869 160.059 718.01 158.811 719.461 157.936C720.912 157.061 722.565 156.624 724.421 156.624C725.872 156.624 727.088 156.901 728.069 157.456C729.072 157.989 729.872 158.576 730.469 159.216L728.997 160.944C728.464 160.389 727.845 159.92 727.141 159.536C726.437 159.152 725.552 158.96 724.485 158.96C723.077 158.96 721.85 159.312 720.805 160.016C719.76 160.699 718.949 161.669 718.373 162.928C717.818 164.187 717.541 165.691 717.541 167.44C717.541 170.085 718.138 172.187 719.333 173.744C720.549 175.28 722.277 176.048 724.517 176.048C725.264 176.048 725.978 175.941 726.661 175.728C727.344 175.493 727.888 175.184 728.293 174.8V169.328H723.845V167.12H730.725V175.952C730.064 176.656 729.168 177.243 728.037 177.712C726.928 178.16 725.669 178.384 724.261 178.384ZM735.755 178V157.008H741.739C743.318 157.008 744.694 157.2 745.867 157.584C747.04 157.968 747.958 158.619 748.619 159.536C749.28 160.432 749.611 161.648 749.611 163.184C749.611 165.381 748.896 167.013 747.467 168.08C746.038 169.147 744.171 169.68 741.867 169.68H738.411V178H735.755ZM738.411 167.504H741.547C743.382 167.504 744.736 167.163 745.611 166.48C746.507 165.776 746.955 164.677 746.955 163.184C746.955 161.669 746.486 160.624 745.547 160.048C744.63 159.451 743.254 159.152 741.419 159.152H738.411V167.504ZM757.451 178V159.248H751.115V157.008H766.475V159.248H760.139V178H757.451ZM766.343 170.992V168.976H773.703V170.992H766.343ZM776.249 178V176.432C778.297 174.384 780.035 172.592 781.465 171.056C782.894 169.499 783.982 168.101 784.729 166.864C785.475 165.605 785.849 164.432 785.849 163.344C785.849 162.171 785.529 161.211 784.889 160.464C784.249 159.717 783.278 159.344 781.977 159.344C781.123 159.344 780.334 159.589 779.609 160.08C778.883 160.549 778.222 161.125 777.625 161.808L776.121 160.304C776.974 159.365 777.881 158.619 778.841 158.064C779.822 157.488 780.974 157.2 782.297 157.2C784.195 157.2 785.689 157.755 786.777 158.864C787.865 159.952 788.409 161.403 788.409 163.216C788.409 164.496 788.046 165.797 787.321 167.12C786.617 168.421 785.635 169.797 784.377 171.248C783.139 172.677 781.71 174.235 780.089 175.92C780.643 175.877 781.219 175.835 781.817 175.792C782.414 175.749 782.979 175.728 783.513 175.728H789.433V178H776.249Z" fill="black"/>
<path d="M1375.26 149.384C1373.43 149.384 1371.79 148.957 1370.37 148.104C1368.94 147.229 1367.82 145.981 1367.01 144.36C1366.19 142.739 1365.79 140.787 1365.79 138.504C1365.79 136.243 1366.21 134.301 1367.04 132.68C1367.87 131.059 1369.01 129.811 1370.46 128.936C1371.91 128.061 1373.57 127.624 1375.42 127.624C1376.87 127.624 1378.09 127.901 1379.07 128.456C1380.07 128.989 1380.87 129.576 1381.47 130.216L1380 131.944C1379.46 131.389 1378.85 130.92 1378.14 130.536C1377.44 130.152 1376.55 129.96 1375.49 129.96C1374.08 129.96 1372.85 130.312 1371.81 131.016C1370.76 131.699 1369.95 132.669 1369.37 133.928C1368.82 135.187 1368.54 136.691 1368.54 138.44C1368.54 141.085 1369.14 143.187 1370.33 144.744C1371.55 146.28 1373.28 147.048 1375.52 147.048C1376.26 147.048 1376.98 146.941 1377.66 146.728C1378.34 146.493 1378.89 146.184 1379.29 145.8V140.328H1374.85V138.12H1381.73V146.952C1381.06 147.656 1380.17 148.243 1379.04 148.712C1377.93 149.16 1376.67 149.384 1375.26 149.384ZM1386.76 149V128.008H1392.74C1394.32 128.008 1395.69 128.2 1396.87 128.584C1398.04 128.968 1398.96 129.619 1399.62 130.536C1400.28 131.432 1400.61 132.648 1400.61 134.184C1400.61 136.381 1399.9 138.013 1398.47 139.08C1397.04 140.147 1395.17 140.68 1392.87 140.68H1389.41V149H1386.76ZM1389.41 138.504H1392.55C1394.38 138.504 1395.74 138.163 1396.61 137.48C1397.51 136.776 1397.96 135.677 1397.96 134.184C1397.96 132.669 1397.49 131.624 1396.55 131.048C1395.63 130.451 1394.25 130.152 1392.42 130.152H1389.41V138.504ZM1408.45 149V130.248H1402.11V128.008H1417.47V130.248H1411.14V149H1408.45ZM1417.34 141.992V139.976H1424.7V141.992H1417.34ZM1433.52 149.384C1431.9 149.384 1430.54 149.096 1429.46 148.52C1428.37 147.923 1427.48 147.251 1426.8 146.504L1428.14 144.776C1428.76 145.416 1429.49 145.981 1430.32 146.472C1431.15 146.963 1432.17 147.208 1433.36 147.208C1434.6 147.208 1435.61 146.867 1436.4 146.184C1437.19 145.501 1437.58 144.595 1437.58 143.464C1437.58 142.653 1437.37 141.949 1436.94 141.352C1436.54 140.733 1435.86 140.253 1434.9 139.912C1433.96 139.571 1432.68 139.4 1431.06 139.4V137.384C1432.51 137.384 1433.65 137.213 1434.48 136.872C1435.33 136.531 1435.94 136.072 1436.3 135.496C1436.67 134.92 1436.85 134.28 1436.85 133.576C1436.85 132.573 1436.53 131.784 1435.89 131.208C1435.27 130.632 1434.42 130.344 1433.33 130.344C1432.48 130.344 1431.69 130.536 1430.96 130.92C1430.26 131.304 1429.6 131.805 1428.98 132.424L1427.57 130.76C1428.36 130.013 1429.23 129.405 1430.19 128.936C1431.15 128.445 1432.23 128.2 1433.42 128.2C1435.2 128.2 1436.66 128.659 1437.81 129.576C1438.96 130.472 1439.54 131.741 1439.54 133.384C1439.54 134.621 1439.2 135.635 1438.51 136.424C1437.83 137.213 1436.93 137.821 1435.82 138.248V138.376C1437.06 138.653 1438.11 139.24 1438.96 140.136C1439.81 141.011 1440.24 142.152 1440.24 143.56C1440.24 144.755 1439.94 145.789 1439.34 146.664C1438.75 147.539 1437.94 148.211 1436.91 148.68C1435.91 149.149 1434.78 149.384 1433.52 149.384Z" fill="black"/>
<path d="M1041.7 140V121.248H1035.36V119.008H1050.72V121.248H1044.39V140H1041.7ZM1059.11 140.384C1057.49 140.384 1056.15 140.096 1055.08 139.52C1054.01 138.944 1053.13 138.304 1052.43 137.6L1053.71 135.872C1054.32 136.469 1055.04 137.013 1055.85 137.504C1056.66 137.973 1057.66 138.208 1058.86 138.208C1060.12 138.208 1061.17 137.792 1062.03 136.96C1062.9 136.107 1063.34 134.965 1063.34 133.536C1063.34 132.128 1062.94 131.029 1062.15 130.24C1061.36 129.451 1060.31 129.056 1058.99 129.056C1058.28 129.056 1057.67 129.163 1057.16 129.376C1056.67 129.589 1056.12 129.899 1055.5 130.304L1054.09 129.408L1054.76 119.584H1064.97V121.856H1057.07L1056.52 127.904C1057.01 127.648 1057.5 127.445 1057.99 127.296C1058.48 127.147 1059.04 127.072 1059.66 127.072C1060.83 127.072 1061.89 127.307 1062.83 127.776C1063.79 128.224 1064.55 128.917 1065.13 129.856C1065.71 130.795 1065.99 132 1065.99 133.472C1065.99 134.944 1065.66 136.203 1065 137.248C1064.36 138.272 1063.52 139.051 1062.47 139.584C1061.43 140.117 1060.31 140.384 1059.11 140.384Z" fill="black"/>
</svg>
